{
.appVersion = "1057";
DisplayStrings = (
"Hnwnovoony/y.001 nxn\012HHXHOXOOHYH\012PRK\012n.n:n;n,n\U00B7n/bullet n/ellipsis n\012n-n/endash n/emdash n_n~n\012n/guilsinglleft non/guilsinglright n\U00ABn\U00BBn\012H#H^H*H/.notdef H|H\U00A6H//H/backslash H!HSH?HH\U00BFnSl!H\U00A1nh?H@H\012CH&HNM\012BPR\012h(h[{ho-oh}])(p)\012{H}\012JOZEF\012HheAVH\012HMHWH\012HXHKH\012DMAKBTF",

glyphs = (
{
color = 4;
glyphname = .notdef;
lastChange = "2018-03-02 10:50:24 +0000";
layers = (
{
background = {
paths = (
{
closed = 1;
nodes = (
"188 710 LINE",
"62 0 LINE",
"616 0 LINE",
"742 710 LINE"
);
},
{
closed = 1;
nodes = (
"544 48 LINE",
"152 48 LINE",
"396 314 LINE"
);
},
{
closed = 1;
nodes = (
"371 353 LINE",
"131 89 LINE",
"225 619 LINE"
);
},
{
closed = 1;
nodes = (
"579 89 LINE",
"431 356 LINE",
"673 619 LINE"
);
},
{
closed = 1;
nodes = (
"407 396 LINE",
"260 662 LINE",
"652 662 LINE"
);
}
);
};
layerId = "CC363ACD-D5A5-4E19-A940-9AF36D109D9E";
paths = (
{
closed = 1;
nodes = (
"201 710 LINE",
"75 0 LINE",
"629 0 LINE",
"755 710 LINE"
);
},
{
closed = 1;
nodes = (
"559 48 LINE",
"167 48 LINE",
"412 315 LINE"
);
},
{
closed = 1;
nodes = (
"385 356 LINE",
"144 91 LINE",
"238 622 LINE"
);
},
{
closed = 1;
nodes = (
"592 86 LINE",
"445 352 LINE",
"686 616 LINE"
);
},
{
closed = 1;
nodes = (
"420 392 LINE",
"271 662 LINE",
"663 662 LINE"
);
}
);
width = 795;
},
{
background = {
paths = (
{
closed = 1;
nodes = (
"70 710 LINE",
"70 0 LINE",
"634 0 LINE",
"634 710 LINE"
);
},
{
closed = 1;
nodes = (
"553 48 LINE",
"151 48 LINE",
"353 314 LINE"
);
},
{
closed = 1;
nodes = (
"321 353 LINE",
"123 89 LINE",
"123 619 LINE"
);
},
{
closed = 1;
nodes = (
"581 89 LINE",
"381 356 LINE",
"581 619 LINE"
);
},
{
closed = 1;
nodes = (
"350 396 LINE",
"151 662 LINE",
"553 662 LINE"
);
}
);
};
layerId = "C1DA716A-5F29-4CD0-A38F-CCADF5849A80";
paths = (
{
closed = 1;
nodes = (
"149 710 LINE",
"23 0 LINE",
"577 0 LINE",
"703 710 LINE"
);
},
{
closed = 1;
nodes = (
"507 48 LINE",
"115 48 LINE",
"360 315 LINE"
);
},
{
closed = 1;
nodes = (
"333 356 LINE",
"92 91 LINE",
"186 622 LINE"
);
},
{
closed = 1;
nodes = (
"540 86 LINE",
"393 352 LINE",
"634 616 LINE"
);
},
{
closed = 1;
nodes = (
"368 392 LINE",
"219 662 LINE",
"611 662 LINE"
);
}
);
width = 695;
},
{
layerId = "6641C2CA-B9F9-47EE-AEEC-6BEE387D8CB9";
paths = (
{
closed = 1;
nodes = (
"185 710 LINE",
"59 0 LINE",
"613 0 LINE",
"739 710 LINE"
);
},
{
closed = 1;
nodes = (
"543 48 LINE",
"151 48 LINE",
"396 315 LINE"
);
},
{
closed = 1;
nodes = (
"369 356 LINE",
"128 91 LINE",
"222 622 LINE"
);
},
{
closed = 1;
nodes = (
"576 86 LINE",
"429 352 LINE",
"670 616 LINE"
);
},
{
closed = 1;
nodes = (
"404 392 LINE",
"255 662 LINE",
"647 662 LINE"
);
}
);
width = 763;
}
);
},
{
color = 7;
glyphname = A;
lastChange = "2018-03-02 16:28:55 +0000";
layers = (
{
anchors = (
{
name = bottom;
position = "{286, 0}";
},
{
name = ogonek;
position = "{573, 0}";
},
{
name = top;
position = "{404, 710}";
}
);
background = {
paths = (
{
closed = 1;
nodes = (
"528 172 LINE",
"528 219 LINE",
"120 219 LINE",
"120 172 LINE"
);
},
{
closed = 1;
nodes = (
"358 710 LINE",
"293 710 LINE",
"10 0 LINE",
"67 0 LINE",
"323 648 LINE",
"327 648 LINE",
"583 0 LINE",
"640 0 LINE"
);
}
);
};
layerId = "CC363ACD-D5A5-4E19-A940-9AF36D109D9E";
paths = (
{
closed = 1;
nodes = (
"394 648 LINE",
"398 648 LINE",
"534 0 LINE",
"589 0 LINE",
"437 710 LINE",
"372 710 LINE",
"-31 0 LINE",
"28 0 LINE"
);
},
{
closed = 1;
nodes = (
"510 172 LINE",
"519 223 LINE",
"118 223 LINE",
"109 172 LINE"
);
}
);
width = 650;
},
{
anchors = (
{
name = bottom;
position = "{339, 0}";
},
{
name = ogonek;
position = "{657, 0}";
},
{
name = top;
position = "{453, 710}";
}
);
background = {
paths = (
{
closed = 1;
nodes = (
"584 111 LINE",
"584 263 LINE",
"165 263 LINE",
"165 111 LINE"
);
},
{
closed = 1;
nodes = (
"532 710 LINE",
"222 710 LINE",
"5 0 LINE",
"211 0 LINE",
"369 566 LINE",
"376 566 LINE",
"524 0 LINE",
"749 0 LINE"
);
}
);
};
layerId = "C1DA716A-5F29-4CD0-A38F-CCADF5849A80";
paths = (
{
closed = 1;
nodes = (
"426 566 LINE",
"433 566 LINE",
"472 0 LINE",
"692 0 LINE",
"606 710 LINE",
"296 710 LINE",
"-42 0 LINE",
"183 0 LINE"
);
},
{
closed = 1;
nodes = (
"554 111 LINE",
"581 263 LINE",
"169 263 LINE",
"142 111 LINE"
);
}
);
width = 744;
},
{
anchors = (
{
name = bottom;
position = "{293, 0}";
},
{
name = ogonek;
position = "{602, 0}";
},
{
name = top;
position = "{412, 710}";
}
);
background = {
paths = (
{
closed = 1;
nodes = (
"537 154 LINE",
"537 238 LINE",
"118 238 LINE",
"118 154 LINE"
);
},
{
closed = 1;
nodes = (
"399 710 LINE",
"262 710 LINE",
"-8 0 LINE",
"101 0 LINE",
"327 623 LINE",
"332 623 LINE",
"555 0 LINE",
"666 0 LINE"
);
}
);
};
layerId = "6641C2CA-B9F9-47EE-AEEC-6BEE387D8CB9";
paths = (
{
closed = 1;
nodes = (
"400 623 LINE",
"405 623 LINE",
"514 0 LINE",
"622 0 LINE",
"481 710 LINE",
"344 710 LINE",
"-42 0 LINE",
"70 0 LINE"
);
},
{
closed = 1;
nodes = (
"519 153 LINE",
"534 238 LINE",
"123 238 LINE",
"107 153 LINE"
);
}
);
width = 674;
}
);
unicode = 0041;
userData = {
RMXScaler = {
source = A;
};
};
},
{
color = 7;
glyphname = B;
lastChange = "2018-03-02 23:07:08 +0000";
layers = (
{
background = {
paths = (
{
closed = 1;
nodes = (
"174 0 LINE",
"174 710 LINE",
"120 710 LINE",
"120 0 LINE"
);
},
{
closed = 1;
nodes = (
"511 359 LINE",
"593 376 OFFCURVE",
"638 428 OFFCURVE",
"638 528 CURVE SMOOTH",
"638 639 OFFCURVE",
"574 710 OFFCURVE",
"415 710 CURVE SMOOTH",
"162 710 LINE",
"162 661 LINE",
"423 661 LINE SMOOTH",
"535 661 OFFCURVE",
"584 607 OFFCURVE",
"584 521 CURVE SMOOTH",
"584 433 OFFCURVE",
"535 379 OFFCURVE",
"423 379 CURVE SMOOTH",
"162 379 LINE",
"162 330 LINE",
"420 330 LINE SMOOTH",
"540 330 OFFCURVE",
"601 289 OFFCURVE",
"601 190 CURVE SMOOTH",
"601 93 OFFCURVE",
"540 49 OFFCURVE",
"420 49 CURVE SMOOTH",
"162 49 LINE",
"162 0 LINE",
"412 0 LINE SMOOTH",
"572 0 OFFCURVE",
"655 67 OFFCURVE",
"655 185 CURVE SMOOTH",
"655 299 OFFCURVE",
"592 341 OFFCURVE",
"511 355 CURVE"
);
}
);
};
layerId = "CC363ACD-D5A5-4E19-A940-9AF36D109D9E";
paths = (
{
closed = 1;
nodes = (
"129 0 LINE",
"254 710 LINE",
"199 710 LINE",
"74 0 LINE"
);
},
{
closed = 1;
nodes = (
"512 356 LINE",
"594 372 OFFCURVE",
"679 418 OFFCURVE",
"679 548 CURVE SMOOTH",
"679 639 OFFCURVE",
"614 710 OFFCURVE",
"490 710 CURVE SMOOTH",
"242 710 LINE",
"234 661 LINE",
"485 661 LINE SMOOTH",
"579 661 OFFCURVE",
"625 616 OFFCURVE",
"625 543 CURVE SMOOTH",
"625 436 OFFCURVE",
"549 379 OFFCURVE",
"421 379 CURVE SMOOTH",
"184 379 LINE",
"175 330 LINE",
"416 330 LINE SMOOTH",
"529 330 OFFCURVE",
"583 288 OFFCURVE",
"583 207 CURVE SMOOTH",
"583 96 OFFCURVE",
"503 49 OFFCURVE",
"372 49 CURVE SMOOTH",
"126 49 LINE",
"117 0 LINE",
"367 0 LINE SMOOTH",
"534 0 OFFCURVE",
"637 67 OFFCURVE",
"637 207 CURVE SMOOTH",
"637 293 OFFCURVE",
"577 340 OFFCURVE",
"511 352 CURVE"
);
}
);
width = 731;
},
{
background = {
paths = (
{
closed = 1;
nodes = (
"282 0 LINE",
"282 710 LINE",
"70 710 LINE",
"70 0 LINE"
);
},
{
closed = 1;
nodes = (
"582 360 LINE",
"660 383 OFFCURVE",
"695 434 OFFCURVE",
"695 529 CURVE SMOOTH",
"695 639 OFFCURVE",
"617 710 OFFCURVE",
"444 710 CURVE SMOOTH",
"263 710 LINE",
"263 556 LINE",
"406 556 LINE SMOOTH",
"460 556 OFFCURVE",
"484 543 OFFCURVE",
"484 491 CURVE SMOOTH",
"484 445 OFFCURVE",
"460 425 OFFCURVE",
"406 425 CURVE SMOOTH",
"263 425 LINE",
"263 285 LINE",
"423 285 LINE SMOOTH",
"477 285 OFFCURVE",
"503 266 OFFCURVE",
"503 220 CURVE SMOOTH",
"503 168 OFFCURVE",
"477 154 OFFCURVE",
"423 154 CURVE SMOOTH",
"263 154 LINE",
"263 0 LINE",
"460 0 LINE SMOOTH",
"634 0 OFFCURVE",
"713 71 OFFCURVE",
"713 186 CURVE SMOOTH",
"713 287 OFFCURVE",
"672 336 OFFCURVE",
"582 354 CURVE"
);
}
);
};
layerId = "C1DA716A-5F29-4CD0-A38F-CCADF5849A80";
paths = (
{
closed = 1;
nodes = (
"235 0 LINE",
"360 710 LINE",
"148 710 LINE",
"23 0 LINE"
);
},
{
closed = 1;
nodes = (
"587 360 LINE",
"677 387 OFFCURVE",
"727 438 OFFCURVE",
"727 544 CURVE SMOOTH",
"727 644 OFFCURVE",
"650 710 OFFCURVE",
"499 710 CURVE SMOOTH",
"339 710 LINE",
"312 556 LINE",
"449 556 LINE SMOOTH",
"501 556 OFFCURVE",
"520 535 OFFCURVE",
"521 503 CURVE SMOOTH",
"523 451 OFFCURVE",
"496 425 OFFCURVE",
"432 425 CURVE SMOOTH",
"289 425 LINE",
"266 285 LINE",
"415 285 LINE SMOOTH",
"469 285 OFFCURVE",
"488 265 OFFCURVE",
"488 230 CURVE SMOOTH",
"488 178 OFFCURVE",
"465 154 OFFCURVE",
"400 154 CURVE SMOOTH",
"242 154 LINE",
"214 0 LINE",
"418 0 LINE SMOOTH",
"590 0 OFFCURVE",
"698 65 OFFCURVE",
"698 214 CURVE SMOOTH",
"698 291 OFFCURVE",
"656 330 OFFCURVE",
"586 353 CURVE"
);
}
);
width = 747;
},
{
background = {
paths = (
{
closed = 1;
nodes = (
"209 0 LINE",
"209 710 LINE",
"106 710 LINE",
"106 0 LINE"
);
},
{
closed = 1;
nodes = (
"539 360 LINE",
"621 379 OFFCURVE",
"662 431 OFFCURVE",
"662 529 CURVE SMOOTH",
"662 640 OFFCURVE",
"601 710 OFFCURVE",
"433 710 CURVE SMOOTH",
"194 710 LINE",
"194 623 LINE",
"426 623 LINE SMOOTH",
"518 623 OFFCURVE",
"560 591 OFFCURVE",
"560 510 CURVE SMOOTH",
"560 435 OFFCURVE",
"518 396 OFFCURVE",
"426 396 CURVE SMOOTH",
"194 396 LINE",
"194 314 LINE",
"430 314 LINE SMOOTH",
"528 314 OFFCURVE",
"577 282 OFFCURVE",
"577 200 CURVE SMOOTH",
"577 116 OFFCURVE",
"528 87 OFFCURVE",
"430 87 CURVE SMOOTH",
"194 87 LINE",
"194 0 LINE",
"434 0 LINE SMOOTH",
"604 0 OFFCURVE",
"679 70 OFFCURVE",
"679 186 CURVE SMOOTH",
"679 293 OFFCURVE",
"627 337 OFFCURVE",
"539 354 CURVE"
);
}
);
};
layerId = "6641C2CA-B9F9-47EE-AEEC-6BEE387D8CB9";
paths = (
{
closed = 1;
nodes = (
"163 0 LINE",
"288 710 LINE",
"185 710 LINE",
"60 0 LINE"
);
},
{
closed = 1;
nodes = (
"547 357 LINE",
"628 372 OFFCURVE",
"699 423 OFFCURVE",
"699 540 CURVE SMOOTH",
"699 646 OFFCURVE",
"628 710 OFFCURVE",
"493 710 CURVE SMOOTH",
"272 710 LINE",
"258 623 LINE",
"478 623 LINE SMOOTH",
"561 623 OFFCURVE",
"597 589 OFFCURVE",
"597 530 CURVE SMOOTH",
"597 438 OFFCURVE",
"540 396 OFFCURVE",
"438 396 CURVE SMOOTH",
"217 396 LINE",
"203 314 LINE",
"428 314 LINE SMOOTH",
"511 314 OFFCURVE",
"557 281 OFFCURVE",
"557 220 CURVE SMOOTH",
"557 121 OFFCURVE",
"500 87 OFFCURVE",
"390 87 CURVE SMOOTH",
"163 87 LINE",
"147 0 LINE",
"380 0 LINE SMOOTH",
"568 0 OFFCURVE",
"659 71 OFFCURVE",
"659 208 CURVE SMOOTH",
"659 288 OFFCURVE",
"613 336 OFFCURVE",
"546 351 CURVE"
);
}
);
width = 736;
}
);
leftMetricsKey = H;
unicode = 0042;
userData = {
RMXScaler = {
source = B;
};
};
},
{
color = 4;
glyphname = C;
lastChange = "2018-03-02 10:50:24 +0000";
layers = (
{
anchors = (
{
name = bottom;
position = "{347, 0}";
},
{
name = top;
position = "{470, 710}";
}
);
background = {
paths = (
{
closed = 1;
nodes = (
"526 -15 OFFCURVE",
"626 69 OFFCURVE",
"675 219 CURVE",
"615 219 LINE",
"564 93 OFFCURVE",
"487 39 OFFCURVE",
"359 39 CURVE SMOOTH",
"222 39 OFFCURVE",
"146 130 OFFCURVE",
"146 271 CURVE SMOOTH",
"146 476 OFFCURVE",
"239 671 OFFCURVE",
"456 671 CURVE SMOOTH",
"588 671 OFFCURVE",
"648 607 OFFCURVE",
"661 492 CURVE",
"721 492 LINE",
"713 631 OFFCURVE",
"624 725 OFFCURVE",
"461 725 CURVE SMOOTH",
"204 725 OFFCURVE",
"85 506 OFFCURVE",
"85 267 CURVE SMOOTH",
"85 96 OFFCURVE",
"188 -15 OFFCURVE",
"354 -15 CURVE SMOOTH"
);
}
);
};
layerId = "CC363ACD-D5A5-4E19-A940-9AF36D109D9E";
paths = (
{
closed = 1;
nodes = (
"526 -15 OFFCURVE",
"625 69 OFFCURVE",
"674 214 CURVE",
"615 219 LINE",
"564 93 OFFCURVE",
"487 39 OFFCURVE",
"359 39 CURVE SMOOTH",
"222 39 OFFCURVE",
"146 130 OFFCURVE",
"146 271 CURVE SMOOTH",
"146 476 OFFCURVE",
"239 671 OFFCURVE",
"456 671 CURVE SMOOTH",
"588 671 OFFCURVE",
"648 607 OFFCURVE",
"661 492 CURVE",
"721 496 LINE",
"713 630 OFFCURVE",
"624 725 OFFCURVE",
"461 725 CURVE SMOOTH",
"204 725 OFFCURVE",
"85 506 OFFCURVE",
"85 267 CURVE SMOOTH",
"85 96 OFFCURVE",
"188 -15 OFFCURVE",
"354 -15 CURVE SMOOTH"
);
}
);
width = 755;
},
{
anchors = (
{
name = bottom;
position = "{351, 0}";
},
{
name = top;
position = "{472, 710}";
}
);
background = {
paths = (
{
closed = 1;
nodes = (
"588 -15 OFFCURVE",
"685 81 OFFCURVE",
"719 265 CURVE",
"513 265 LINE",
"494 191 OFFCURVE",
"457 158 OFFCURVE",
"391 158 CURVE SMOOTH",
"316 158 OFFCURVE",
"278 199 OFFCURVE",
"278 280 CURVE SMOOTH",
"278 419 OFFCURVE",
"325 553 OFFCURVE",
"443 553 CURVE SMOOTH",
"515 553 OFFCURVE",
"548 517 OFFCURVE",
"544 445 CURVE",
"750 445 LINE",
"763 626 OFFCURVE",
"654 725 OFFCURVE",
"461 725 CURVE SMOOTH",
"196 725 OFFCURVE",
"56 539 OFFCURVE",
"56 272 CURVE SMOOTH",
"56 87 OFFCURVE",
"182 -15 OFFCURVE",
"371 -15 CURVE SMOOTH"
);
}
);
};
layerId = "C1DA716A-5F29-4CD0-A38F-CCADF5849A80";
paths = (
{
closed = 1;
nodes = (
"598 -15 OFFCURVE",
"681 81 OFFCURVE",
"715 245 CURVE",
"513 265 LINE",
"494 191 OFFCURVE",
"457 158 OFFCURVE",
"391 158 CURVE SMOOTH",
"316 158 OFFCURVE",
"278 199 OFFCURVE",
"278 280 CURVE SMOOTH",
"278 419 OFFCURVE",
"325 553 OFFCURVE",
"443 553 CURVE SMOOTH",
"520 553 OFFCURVE",
"545 512 OFFCURVE",
"544 440 CURVE",
"750 455 LINE",
"755 616 OFFCURVE",
"654 725 OFFCURVE",
"461 725 CURVE SMOOTH",
"186 725 OFFCURVE",
"56 539 OFFCURVE",
"56 272 CURVE SMOOTH",
"56 87 OFFCURVE",
"182 -15 OFFCURVE",
"371 -15 CURVE SMOOTH"
);
}
);
width = 762;
},
{
anchors = (
{
name = bottom;
position = "{360, 0}";
},
{
name = top;
position = "{482, 710}";
}
);
layerId = "6641C2CA-B9F9-47EE-AEEC-6BEE387D8CB9";
paths = (
{
closed = 1;
nodes = (
"564 -15 OFFCURVE",
"658 74 OFFCURVE",
"699 223 CURVE",
"593 235 LINE",
"556 131 OFFCURVE",
"498 77 OFFCURVE",
"374 77 CURVE SMOOTH",
"253 77 OFFCURVE",
"185 155 OFFCURVE",
"185 278 CURVE SMOOTH",
"185 473 OFFCURVE",
"269 633 OFFCURVE",
"455 633 CURVE SMOOTH",
"576 633 OFFCURVE",
"626 575 OFFCURVE",
"635 476 CURVE",
"743 483 LINE",
"736 631 OFFCURVE",
"646 725 OFFCURVE",
"463 725 CURVE SMOOTH",
"208 725 OFFCURVE",
"75 525 OFFCURVE",
"75 271 CURVE SMOOTH",
"75 100 OFFCURVE",
"183 -15 OFFCURVE",
"367 -15 CURVE SMOOTH"
);
}
);
width = 769;
}
);
leftMetricsKey = O;
rightMetricsKey = O;
unicode = 0043;
userData = {
RMXScaler = {
source = C;
};
};
},
{
color = 6;
glyphname = D;
lastChange = "2018-03-02 18:15:37 +0000";
layers = (
{
anchors = (
{
name = top;
position = "{407, 710}";
}
);
background = {
paths = (
{
closed = 1;
nodes = (
"175 0 LINE",
"175 710 LINE",
"120 710 LINE",
"120 0 LINE"
);
},
{
closed = 1;
nodes = (
"145 50 LINE",
"145 0 LINE",
"328 0 LINE SMOOTH",
"568 0 OFFCURVE",
"672 105 OFFCURVE",
"672 353 CURVE SMOOTH",
"672 606 OFFCURVE",
"567 710 OFFCURVE",
"337 710 CURVE SMOOTH",
"145 710 LINE",
"145 660 LINE",
"346 660 LINE SMOOTH",
"526 660 OFFCURVE",
"615 589 OFFCURVE",
"615 353 CURVE SMOOTH",
"615 121 OFFCURVE",
"526 50 OFFCURVE",
"346 50 CURVE SMOOTH"
);
}
);
};
layerId = "CC363ACD-D5A5-4E19-A940-9AF36D109D9E";
paths = (
{
closed = 1;
nodes = (
"129 0 LINE",
"255 710 LINE",
"200 710 LINE",
"74 0 LINE"
);
},
{
closed = 1;
nodes = (
"108 50 LINE",
"99 0 LINE",
"301 0 LINE SMOOTH",
"567 0 OFFCURVE",
"694 153 OFFCURVE",
"696 439 CURVE SMOOTH",
"697 610 OFFCURVE",
"592 710 OFFCURVE",
"414 710 CURVE SMOOTH",
"225 710 LINE",
"216 660 LINE",
"409 660 LINE SMOOTH",
"560 660 OFFCURVE",
"639 585 OFFCURVE",
"639 439 CURVE SMOOTH",
"639 178 OFFCURVE",
"532 50 OFFCURVE",
"306 50 CURVE SMOOTH"
);
}
);
width = 749;
},
{
anchors = (
{
name = top;
position = "{433, 710}";
}
);
background = {
paths = (
{
closed = 1;
nodes = (
"290 0 LINE",
"290 710 LINE",
"70 710 LINE",
"70 0 LINE"
);
},
{
closed = 1;
nodes = (
"249 167 LINE",
"249 0 LINE",
"386 0 LINE SMOOTH",
"612 0 OFFCURVE",
"743 118 OFFCURVE",
"743 355 CURVE SMOOTH",
"743 595 OFFCURVE",
"611 710 OFFCURVE",
"397 710 CURVE SMOOTH",
"249 710 LINE",
"249 543 LINE",
"369 543 LINE SMOOTH",
"471 543 OFFCURVE",
"518 491 OFFCURVE",
"518 355 CURVE SMOOTH",
"518 219 OFFCURVE",
"471 167 OFFCURVE",
"369 167 CURVE SMOOTH"
);
}
);
};
layerId = "C1DA716A-5F29-4CD0-A38F-CCADF5849A80";
paths = (
{
closed = 1;
nodes = (
"243 0 LINE",
"369 710 LINE",
"149 710 LINE",
"23 0 LINE"
);
},
{
closed = 1;
nodes = (
"232 167 LINE",
"202 0 LINE",
"334 0 LINE SMOOTH",
"616 0 OFFCURVE",
"754 147 OFFCURVE",
"754 424 CURVE SMOOTH",
"754 611 OFFCURVE",
"627 710 OFFCURVE",
"438 710 CURVE SMOOTH",
"328 710 LINE",
"298 543 LINE",
"403 543 LINE SMOOTH",
"491 543 OFFCURVE",
"532 499 OFFCURVE",
"532 414 CURVE SMOOTH",
"532 273 OFFCURVE",
"486 167 OFFCURVE",
"349 167 CURVE SMOOTH"
);
}
);
width = 780;
},
{
anchors = (
{
name = top;
position = "{418, 710}";
}
);
background = {
paths = (
{
closed = 1;
nodes = (
"211 0 LINE",
"211 710 LINE",
"106 710 LINE",
"106 0 LINE"
);
},
{
closed = 1;
nodes = (
"176 90 LINE",
"176 0 LINE",
"353 0 LINE SMOOTH",
"589 0 OFFCURVE",
"695 111 OFFCURVE",
"695 355 CURVE SMOOTH",
"695 602 OFFCURVE",
"588 710 OFFCURVE",
"363 710 CURVE SMOOTH",
"176 710 LINE",
"176 620 LINE",
"361 620 LINE SMOOTH",
"512 620 OFFCURVE",
"588 559 OFFCURVE",
"588 355 CURVE SMOOTH",
"588 151 OFFCURVE",
"512 90 OFFCURVE",
"361 90 CURVE SMOOTH"
);
}
);
};
layerId = "6641C2CA-B9F9-47EE-AEEC-6BEE387D8CB9";
paths = (
{
closed = 1;
nodes = (
"164 0 LINE",
"290 710 LINE",
"185 710 LINE",
"59 0 LINE"
);
},
{
closed = 1;
nodes = (
"146 90 LINE",
"130 0 LINE",
"320 0 LINE SMOOTH",
"588 0 OFFCURVE",
"710 161 OFFCURVE",
"712 413 CURVE SMOOTH",
"713 588 OFFCURVE",
"619 710 OFFCURVE",
"421 710 CURVE SMOOTH",
"256 710 LINE",
"240 620 LINE",
"411 620 LINE SMOOTH",
"559 620 OFFCURVE",
"605 543 OFFCURVE",
"605 413 CURVE SMOOTH",
"605 211 OFFCURVE",
"528 90 OFFCURVE",
"330 90 CURVE SMOOTH"
);
}
);
width = 759;
}
);
leftMetricsKey = H;
rightMetricsKey = O;
unicode = 0044;
userData = {
RMXScaler = {
source = D;
};
};
},
{
color = 7;
glyphname = E;
lastChange = "2018-03-02 11:22:59 +0000";
layers = (
{
anchors = (
{
name = bottom;
position = "{322, 0}";
},
{
name = ogonek;
position = "{516, 0}";
},
{
name = top;
position = "{440, 710}";
}
);
background = {
paths = (
{
closed = 1;
nodes = (
"175 0 LINE",
"175 710 LINE",
"120 710 LINE",
"120 0 LINE"
);
},
{
closed = 1;
nodes = (
"590 660 LINE",
"590 710 LINE",
"162 710 LINE",
"162 660 LINE"
);
},
{
closed = 1;
nodes = (
"524 339 LINE",
"524 387 LINE",
"162 387 LINE",
"162 339 LINE"
);
},
{
closed = 1;
nodes = (
"590 0 LINE",
"590 50 LINE",
"162 50 LINE",
"162 0 LINE"
);
}
);
};
layerId = "CC363ACD-D5A5-4E19-A940-9AF36D109D9E";
paths = (
{
closed = 1;
nodes = (
"129 0 LINE",
"254 710 LINE",
"199 710 LINE",
"74 0 LINE"
);
},
{
closed = 1;
nodes = (
"651 660 LINE",
"660 710 LINE",
"242 710 LINE",
"233 660 LINE"
);
},
{
closed = 1;
nodes = (
"529 339 LINE",
"537 387 LINE",
"185 387 LINE",
"177 339 LINE"
);
},
{
closed = 1;
nodes = (
"534 0 LINE",
"543 50 LINE",
"125 50 LINE",
"116 0 LINE"
);
}
);
width = 661;
},
{
anchors = (
{
name = bottom;
position = "{322, 0}";
},
{
name = ogonek;
position = "{546, 0}";
},
{
name = top;
position = "{443, 710}";
}
);
background = {
paths = (
{
closed = 1;
nodes = (
"285 0 LINE",
"285 710 LINE",
"70 710 LINE",
"70 0 LINE"
);
},
{
closed = 1;
nodes = (
"643 537 LINE",
"643 710 LINE",
"189 710 LINE",
"189 537 LINE"
);
},
{
closed = 1;
nodes = (
"573 279 LINE",
"573 430 LINE",
"207 430 LINE",
"207 279 LINE"
);
},
{
closed = 1;
nodes = (
"643 0 LINE",
"643 173 LINE",
"189 173 LINE",
"189 0 LINE"
);
}
);
};
layerId = "C1DA716A-5F29-4CD0-A38F-CCADF5849A80";
paths = (
{
closed = 1;
nodes = (
"237 0 LINE",
"362 710 LINE",
"148 710 LINE",
"23 0 LINE"
);
},
{
closed = 1;
nodes = (
"681 537 LINE",
"712 710 LINE",
"267 710 LINE",
"236 537 LINE"
);
},
{
closed = 1;
nodes = (
"574 279 LINE",
"600 430 LINE",
"235 430 LINE",
"209 279 LINE"
);
},
{
closed = 1;
nodes = (
"586 0 LINE",
"617 173 LINE",
"172 173 LINE",
"141 0 LINE"
);
}
);
width = 684;
},
{
anchors = (
{
name = bottom;
position = "{327, 0}";
},
{
name = ogonek;
position = "{537, 0}";
},
{
name = top;
position = "{441, 710}";
}
);
background = {
paths = (
{
closed = 1;
nodes = (
"211 0 LINE",
"211 710 LINE",
"106 710 LINE",
"106 0 LINE"
);
},
{
closed = 1;
nodes = (
"612 620 LINE",
"612 710 LINE",
"179 710 LINE",
"179 620 LINE"
);
},
{
closed = 1;
nodes = (
"547 314 LINE",
"547 400 LINE",
"192 400 LINE",
"192 314 LINE"
);
},
{
closed = 1;
nodes = (
"612 0 LINE",
"612 90 LINE",
"179 90 LINE",
"179 0 LINE"
);
}
);
};
layerId = "6641C2CA-B9F9-47EE-AEEC-6BEE387D8CB9";
paths = (
{
closed = 1;
nodes = (
"164 0 LINE",
"289 710 LINE",
"185 710 LINE",
"60 0 LINE"
);
},
{
closed = 1;
nodes = (
"665 620 LINE",
"682 710 LINE",
"257 710 LINE",
"241 620 LINE"
);
},
{
closed = 1;
nodes = (
"548 314 LINE",
"563 400 LINE",
"215 400 LINE",
"199 314 LINE"
);
},
{
closed = 1;
nodes = (
"556 0 LINE",
"572 90 LINE",
"148 90 LINE",
"132 0 LINE"
);
}
);
width = 672;
}
);
leftMetricsKey = "=H";
unicode = 0045;
userData = {
RMXScaler = {
source = E;
};
};
},
{
color = 7;
glyphname = F;
lastChange = "2018-03-02 13:17:43 +0000";
layers = (
{
background = {
paths = (
{
closed = 1;
nodes = (
"175 0 LINE",
"175 710 LINE",
"120 710 LINE",
"120 0 LINE"
);
},
{
closed = 1;
nodes = (
"577 660 LINE",
"577 710 LINE",
"162 710 LINE",
"162 660 LINE"
);
},
{
closed = 1;
nodes = (
"510 331 LINE",
"510 379 LINE",
"162 379 LINE",
"162 331 LINE"
);
}
);
};
layerId = "CC363ACD-D5A5-4E19-A940-9AF36D109D9E";
paths = (
{
closed = 1;
nodes = (
"129 0 LINE",
"254 710 LINE",
"199 710 LINE",
"74 0 LINE"
);
},
{
closed = 1;
nodes = (
"637 660 LINE",
"646 710 LINE",
"242 710 LINE",
"233 660 LINE"
);
},
{
closed = 1;
nodes = (
"512 331 LINE",
"520 379 LINE",
"183 379 LINE",
"175 331 LINE"
);
}
);
width = 597;
},
{
background = {
paths = (
{
closed = 1;
nodes = (
"290 0 LINE",
"290 710 LINE",
"70 710 LINE",
"70 0 LINE"
);
},
{
closed = 1;
nodes = (
"626 537 LINE",
"626 710 LINE",
"190 710 LINE",
"190 537 LINE"
);
},
{
closed = 1;
nodes = (
"563 248 LINE",
"563 401 LINE",
"190 401 LINE",
"190 248 LINE"
);
}
);
};
layerId = "C1DA716A-5F29-4CD0-A38F-CCADF5849A80";
paths = (
{
closed = 1;
nodes = (
"243 0 LINE",
"368 710 LINE",
"148 710 LINE",
"23 0 LINE"
);
},
{
closed = 1;
nodes = (
"663 537 LINE",
"694 710 LINE",
"267 710 LINE",
"236 537 LINE"
);
},
{
closed = 1;
nodes = (
"549 248 LINE",
"576 401 LINE",
"212 401 LINE",
"185 248 LINE"
);
}
);
width = 636;
},
{
background = {
paths = (
{
closed = 1;
nodes = (
"211 0 LINE",
"211 710 LINE",
"106 710 LINE",
"106 0 LINE"
);
},
{
closed = 1;
nodes = (
"593 620 LINE",
"593 710 LINE",
"180 710 LINE",
"180 620 LINE"
);
},
{
closed = 1;
nodes = (
"528 300 LINE",
"528 387 LINE",
"180 387 LINE",
"180 300 LINE"
);
}
);
};
layerId = "6641C2CA-B9F9-47EE-AEEC-6BEE387D8CB9";
paths = (
{
closed = 1;
nodes = (
"165 0 LINE",
"290 710 LINE",
"185 710 LINE",
"60 0 LINE"
);
},
{
closed = 1;
nodes = (
"645 620 LINE",
"662 710 LINE",
"259 710 LINE",
"242 620 LINE"
);
},
{
closed = 1;
nodes = (
"526 300 LINE",
"541 387 LINE",
"202 387 LINE",
"186 300 LINE"
);
}
);
width = 610;
}
);
leftMetricsKey = H;
unicode = 0046;
userData = {
RMXScaler = {
source = F;
};
};
},
{
color = 4;
glyphname = G;
lastChange = "2018-03-02 10:50:24 +0000";
layers = (
{
anchors = (
{
name = bottom;
position = "{374, 0}";
},
{
name = top;
position = "{461, 710}";
}
);
background = {
paths = (
{
closed = 1;
nodes = (
"509 -15 OFFCURVE",
"582 82 OFFCURVE",
"616 140 CURVE",
"621 140 LINE",
"603 0 LINE",
"648 0 LINE",
"709 346 LINE",
"460 346 LINE",
"452 299 LINE",
"670 299 LINE",
"655 309 LINE",
"595 139 OFFCURVE",
"509 38 OFFCURVE",
"359 38 CURVE SMOOTH",
"228 38 OFFCURVE",
"146 125 OFFCURVE",
"146 267 CURVE SMOOTH",
"146 479 OFFCURVE",
"243 671 OFFCURVE",
"457 671 CURVE SMOOTH",
"594 671 OFFCURVE",
"654 609 OFFCURVE",
"664 502 CURVE",
"724 502 LINE",
"719 630 OFFCURVE",
"630 725 OFFCURVE",
"463 725 CURVE SMOOTH",
"213 725 OFFCURVE",
"85 513 OFFCURVE",
"85 262 CURVE SMOOTH",
"85 92 OFFCURVE",
"193 -15 OFFCURVE",
"352 -15 CURVE SMOOTH"
);
}
);
};
layerId = "CC363ACD-D5A5-4E19-A940-9AF36D109D9E";
paths = (
{
closed = 1;
nodes = (
"509 -15 OFFCURVE",
"582 82 OFFCURVE",
"616 140 CURVE",
"621 140 LINE",
"603 0 LINE",
"648 0 LINE",
"709 346 LINE",
"460 346 LINE",
"452 299 LINE",
"670 299 LINE",
"655 309 LINE",
"595 139 OFFCURVE",
"509 38 OFFCURVE",
"359 38 CURVE SMOOTH",
"228 38 OFFCURVE",
"146 125 OFFCURVE",
"146 267 CURVE SMOOTH",
"146 479 OFFCURVE",
"243 671 OFFCURVE",
"457 671 CURVE SMOOTH",
"594 671 OFFCURVE",
"654 609 OFFCURVE",
"664 502 CURVE",
"724 506 LINE",
"719 630 OFFCURVE",
"630 725 OFFCURVE",
"463 725 CURVE SMOOTH",
"213 725 OFFCURVE",
"85 513 OFFCURVE",
"85 262 CURVE SMOOTH",
"85 92 OFFCURVE",
"193 -15 OFFCURVE",
"352 -15 CURVE SMOOTH"
);
}
);
width = 811;
},
{
anchors = (
{
name = bottom;
position = "{352, 0}";
},
{
name = top;
position = "{466, 710}";
}
);
background = {
paths = (
{
closed = 1;
nodes = (
"430 -16 OFFCURVE",
"500 40 OFFCURVE",
"537 101 CURVE",
"545 101 LINE",
"542 0 LINE",
"698 0 LINE",
"767 390 LINE",
"441 390 LINE",
"417 253 LINE",
"591 253 LINE",
"561 288 LINE",
"549 200 OFFCURVE",
"489 149 OFFCURVE",
"405 149 CURVE SMOOTH",
"326 149 OFFCURVE",
"278 191 OFFCURVE",
"278 293 CURVE SMOOTH",
"278 440 OFFCURVE",
"322 556 OFFCURVE",
"452 556 CURVE SMOOTH",
"524 556 OFFCURVE",
"556 529 OFFCURVE",
"562 475 CURVE",
"772 475 LINE",
"778 632 OFFCURVE",
"674 725 OFFCURVE",
"466 725 CURVE SMOOTH",
"195 725 OFFCURVE",
"55 541 OFFCURVE",
"55 262 CURVE SMOOTH",
"55 91 OFFCURVE",
"157 -16 OFFCURVE",
"325 -16 CURVE SMOOTH"
);
}
);
};
layerId = "C1DA716A-5F29-4CD0-A38F-CCADF5849A80";
paths = (
{
closed = 1;
nodes = (
"430 -16 OFFCURVE",
"500 40 OFFCURVE",
"537 101 CURVE",
"545 101 LINE",
"542 0 LINE",
"698 0 LINE",
"767 390 LINE",
"441 390 LINE",
"417 253 LINE",
"591 253 LINE",
"561 288 LINE",
"549 200 OFFCURVE",
"489 149 OFFCURVE",
"405 149 CURVE SMOOTH",
"326 149 OFFCURVE",
"278 191 OFFCURVE",
"278 293 CURVE SMOOTH",
"278 440 OFFCURVE",
"322 556 OFFCURVE",
"452 556 CURVE SMOOTH",
"526 556 OFFCURVE",
"554 524 OFFCURVE",
"562 470 CURVE",
"772 485 LINE",
"766 638 OFFCURVE",
"664 725 OFFCURVE",
"466 725 CURVE SMOOTH",
"185 725 OFFCURVE",
"55 541 OFFCURVE",
"55 262 CURVE SMOOTH",
"55 91 OFFCURVE",
"157 -16 OFFCURVE",
"325 -16 CURVE SMOOTH"
);
}
);
width = 829;
},
{
anchors = (
{
name = bottom;
position = "{363, 0}";
},
{
name = top;
position = "{464, 710}";
}
);
layerId = "6641C2CA-B9F9-47EE-AEEC-6BEE387D8CB9";
paths = (
{
closed = 1;
nodes = (
"480 -16 OFFCURVE",
"545 52 OFFCURVE",
"593 125 CURVE",
"598 125 LINE",
"585 0 LINE",
"668 0 LINE",
"731 359 LINE",
"455 359 LINE",
"441 278 LINE",
"663 278 LINE",
"628 305 LINE",
"588 170 OFFCURVE",
"513 74 OFFCURVE",
"373 74 CURVE SMOOTH",
"261 74 OFFCURVE",
"185 144 OFFCURVE",
"185 278 CURVE SMOOTH",
"185 464 OFFCURVE",
"268 633 OFFCURVE",
"455 633 CURVE SMOOTH",
"577 633 OFFCURVE",
"629 577 OFFCURVE",
"638 491 CURVE",
"744 499 LINE",
"736 638 OFFCURVE",
"636 725 OFFCURVE",
"464 725 CURVE SMOOTH",
"208 725 OFFCURVE",
"75 520 OFFCURVE",
"75 270 CURVE SMOOTH",
"75 94 OFFCURVE",
"187 -16 OFFCURVE",
"341 -16 CURVE SMOOTH"
);
}
);
width = 817;
}
);
leftMetricsKey = O;
unicode = 0047;
userData = {
RMXScaler = {
source = G;
};
};
},
{
color = 7;
glyphname = H;
lastChange = "2018-03-02 11:02:40 +0000";
layers = (
{
anchors = (
{
name = top;
position = "{465, 710}";
}
);
background = {
paths = (
{
closed = 1;
nodes = (
"606 389 LINE",
"169 389 LINE",
"169 710 LINE",
"114 710 LINE",
"114 0 LINE",
"169 0 LINE",
"169 339 LINE",
"606 339 LINE",
"606 0 LINE",
"661 0 LINE",
"661 710 LINE",
"606 710 LINE"
);
}
);
};
layerId = "CC363ACD-D5A5-4E19-A940-9AF36D109D9E";
paths = (
{
closed = 1;
nodes = (
"129 0 LINE",
"189 339 LINE",
"616 339 LINE",
"556 0 LINE",
"611 0 LINE",
"736 710 LINE",
"681 710 LINE",
"625 389 LINE",
"198 389 LINE",
"254 710 LINE",
"199 710 LINE",
"74 0 LINE"
);
}
);
width = 777;
},
{
anchors = (
{
name = top;
position = "{474, 710}";
}
);
background = {
paths = (
{
closed = 1;
nodes = (
"515 445 LINE",
"287 445 LINE",
"287 710 LINE",
"67 710 LINE",
"67 0 LINE",
"287 0 LINE",
"287 270 LINE",
"515 270 LINE",
"515 0 LINE",
"735 0 LINE",
"735 710 LINE",
"515 710 LINE"
);
}
);
};
layerId = "C1DA716A-5F29-4CD0-A38F-CCADF5849A80";
paths = (
{
closed = 1;
nodes = (
"243 0 LINE",
"290 270 LINE",
"508 270 LINE",
"461 0 LINE",
"681 0 LINE",
"806 710 LINE",
"586 710 LINE",
"539 445 LINE",
"321 445 LINE",
"368 710 LINE",
"148 710 LINE",
"23 0 LINE"
);
}
);
width = 798;
},
{
anchors = (
{
name = top;
position = "{472, 710}";
}
);
background = {
paths = (
{
closed = 1;
nodes = (
"587 405 LINE",
"211 405 LINE",
"211 710 LINE",
"106 710 LINE",
"106 0 LINE",
"211 0 LINE",
"211 315 LINE",
"587 315 LINE",
"587 0 LINE",
"692 0 LINE",
"692 710 LINE",
"587 710 LINE"
);
}
);
};
layerId = "6641C2CA-B9F9-47EE-AEEC-6BEE387D8CB9";
paths = (
{
closed = 1;
nodes = (
"165 0 LINE",
"220 315 LINE",
"586 315 LINE",
"531 0 LINE",
"636 0 LINE",
"761 710 LINE",
"656 710 LINE",
"602 405 LINE",
"237 405 LINE",
"290 710 LINE",
"185 710 LINE",
"60 0 LINE"
);
}
);
width = 789;
}
);
unicode = 0048;
userData = {
RMXScaler = {
source = H;
};
};
},
{
color = 7;
glyphname = I;
lastChange = "2018-03-02 11:04:41 +0000";
layers = (
{
anchors = (
{
name = bottom;
position = "{105, 0}";
},
{
name = ogonek;
position = "{111, 0}";
},
{
name = top;
position = "{227, 710}";
}
);
background = {
paths = (
{
closed = 1;
nodes = (
"129 0 LINE",
"188 336 LINE",
"605 336 LINE",
"546 0 LINE",
"606 0 LINE",
"731 710 LINE",
"671 710 LINE",
"615 389 LINE",
"198 389 LINE",
"254 710 LINE",
"194 710 LINE",
"69 0 LINE"
);
}
);
};
layerId = "CC363ACD-D5A5-4E19-A940-9AF36D109D9E";
paths = (
{
closed = 1;
nodes = (
"129 0 LINE",
"254 710 LINE",
"199 710 LINE",
"74 0 LINE"
);
}
);
width = 295;
},
{
anchors = (
{
name = bottom;
position = "{138, 0}";
},
{
name = ogonek;
position = "{202, 0}";
},
{
name = top;
position = "{255, 710}";
}
);
background = {
paths = (
{
closed = 1;
nodes = (
"243 0 LINE",
"290 270 LINE",
"508 270 LINE",
"461 0 LINE",
"681 0 LINE",
"806 710 LINE",
"586 710 LINE",
"538 440 LINE",
"320 440 LINE",
"368 710 LINE",
"148 710 LINE",
"23 0 LINE"
);
}
);
};
layerId = "C1DA716A-5F29-4CD0-A38F-CCADF5849A80";
paths = (
{
closed = 1;
nodes = (
"243 0 LINE",
"368 710 LINE",
"148 710 LINE",
"23 0 LINE"
);
}
);
width = 360;
},
{
anchors = (
{
name = bottom;
position = "{118, 0}";
},
{
name = ogonek;
position = "{146, 0}";
},
{
name = top;
position = "{237, 710}";
}
);
layerId = "6641C2CA-B9F9-47EE-AEEC-6BEE387D8CB9";
paths = (
{
closed = 1;
nodes = (
"165 0 LINE",
"290 710 LINE",
"185 710 LINE",
"60 0 LINE"
);
}
);
width = 318;
}
);
leftMetricsKey = "=H";
rightMetricsKey = "=H";
unicode = 0049;
userData = {
RMXScaler = {
source = I;
};
};
},
{
color = 7;
glyphname = J;
lastChange = "2018-03-02 17:15:21 +0000";
layers = (
{
anchors = (
{
name = top;
position = "{345, 710}";
}
);
background = {
paths = (
{
closed = 1;
nodes = (
"-17 -6 LINE",
"6 -12 OFFCURVE",
"42 -15 OFFCURVE",
"69 -15 CURVE SMOOTH",
"220 -15 OFFCURVE",
"278 76 OFFCURVE",
"278 262 CURVE SMOOTH",
"278 710 LINE",
"223 710 LINE",
"223 263 LINE SMOOTH",
"223 103 OFFCURVE",
"187 36 OFFCURVE",
"63 36 CURVE SMOOTH",
"40 36 OFFCURVE",
"8 38 OFFCURVE",
"-11 42 CURVE"
);
}
);
};
layerId = "CC363ACD-D5A5-4E19-A940-9AF36D109D9E";
paths = (
{
closed = 1;
nodes = (
"-36 -1 LINE",
"-14 -7 OFFCURVE",
"21 -15 OFFCURVE",
"58 -15 CURVE SMOOTH",
"199 -15 OFFCURVE",
"260 76 OFFCURVE",
"289 242 CURVE SMOOTH",
"372 710 LINE",
"317 710 LINE",
"234 243 LINE SMOOTH",
"209 103 OFFCURVE",
"169 36 OFFCURVE",
"58 36 CURVE SMOOTH",
"25 36 OFFCURVE",
"0 41 OFFCURVE",
"-25 48 CURVE"
);
}
);
width = 403;
},
{
anchors = (
{
name = top;
position = "{379, 710}";
}
);
background = {
paths = (
{
closed = 1;
nodes = (
"-51 6 LINE",
"-16 -6 OFFCURVE",
"38 -15 OFFCURVE",
"103 -15 CURVE SMOOTH",
"295 -15 OFFCURVE",
"387 74 OFFCURVE",
"387 264 CURVE SMOOTH",
"387 710 LINE",
"167 710 LINE",
"167 263 LINE SMOOTH",
"167 184 OFFCURVE",
"134 155 OFFCURVE",
"65 155 CURVE SMOOTH",
"24 155 OFFCURVE",
"-8 163 OFFCURVE",
"-31 170 CURVE"
);
}
);
};
layerId = "C1DA716A-5F29-4CD0-A38F-CCADF5849A80";
paths = (
{
closed = 1;
nodes = (
"-41 11 LINE",
"6 -5 OFFCURVE",
"64 -15 OFFCURVE",
"119 -15 CURVE SMOOTH",
"301 -15 OFFCURVE",
"378 74 OFFCURVE",
"412 264 CURVE SMOOTH",
"491 710 LINE",
"271 710 LINE",
"192 263 LINE SMOOTH",
"179 189 OFFCURVE",
"145 155 OFFCURVE",
"86 155 CURVE SMOOTH",
"54 155 OFFCURVE",
"18 163 OFFCURVE",
"-7 172 CURVE"
);
}
);
width = 473;
},
{
anchors = (
{
name = top;
position = "{355, 710}";
}
);
background = {
paths = (
{
closed = 1;
nodes = (
"10 -1 LINE",
"38 -9 OFFCURVE",
"76 -15 OFFCURVE",
"122 -15 CURVE SMOOTH",
"275 -15 OFFCURVE",
"342 77 OFFCURVE",
"342 256 CURVE SMOOTH",
"342 710 LINE",
"237 710 LINE",
"237 249 LINE SMOOTH",
"237 137 OFFCURVE",
"211 76 OFFCURVE",
"105 76 CURVE SMOOTH",
"76 76 OFFCURVE",
"50 80 OFFCURVE",
"20 86 CURVE"
);
}
);
};
layerId = "6641C2CA-B9F9-47EE-AEEC-6BEE387D8CB9";
paths = (
{
closed = 1;
nodes = (
"-37 2 LINE",
"-6 -8 OFFCURVE",
"33 -15 OFFCURVE",
"76 -15 CURVE SMOOTH",
"229 -15 OFFCURVE",
"296 75 OFFCURVE",
"327 248 CURVE SMOOTH",
"409 710 LINE",
"304 710 LINE",
"222 249 LINE SMOOTH",
"200 128 OFFCURVE",
"159 76 OFFCURVE",
"68 76 CURVE SMOOTH",
"35 76 OFFCURVE",
"7 81 OFFCURVE",
"-18 89 CURVE"
);
}
);
width = 426;
}
);
rightMetricsKey = U;
unicode = 004A;
userData = {
RMXScaler = {
source = J;
};
};
},
{
color = 7;
glyphname = K;
lastChange = "2018-03-02 17:03:12 +0000";
layers = (
{
anchors = (
{
name = bottom;
position = "{308, 0}";
}
);
background = {
paths = (
{
closed = 1;
nodes = (
"194 336 LINE",
"622 710 LINE",
"550 710 LINE",
"178 386 LINE",
"153 386 LINE",
"153 336 LINE"
);
},
{
closed = 1;
nodes = (
"175 0 LINE",
"175 710 LINE",
"120 710 LINE",
"120 0 LINE"
);
},
{
closed = 1;
nodes = (
"632 0 LINE",
"198 392 LINE",
"163 350 LINE",
"559 0 LINE"
);
}
);
};
layerId = "CC363ACD-D5A5-4E19-A940-9AF36D109D9E";
paths = (
{
closed = 1;
nodes = (
"213 336 LINE",
"692 710 LINE",
"616 710 LINE",
"200 386 LINE",
"175 386 LINE",
"167 336 LINE"
);
},
{
closed = 1;
nodes = (
"129 0 LINE",
"255 710 LINE",
"200 710 LINE",
"74 0 LINE"
);
},
{
closed = 1;
nodes = (
"576 0 LINE",
"223 380 LINE",
"178 350 LINE",
"509 0 LINE"
);
}
);
width = 632;
},
{
anchors = (
{
name = bottom;
position = "{344, 0}";
}
);
background = {
paths = (
{
closed = 1;
nodes = (
"407 279 LINE",
"742 710 LINE",
"512 710 LINE",
"298 422 LINE",
"256 422 LINE",
"256 279 LINE"
);
},
{
closed = 1;
nodes = (
"289 0 LINE",
"289 710 LINE",
"70 710 LINE",
"70 0 LINE"
);
},
{
closed = 1;
nodes = (
"748 0 LINE",
"428 435 LINE",
"253 332 LINE",
"498 0 LINE"
);
}
);
};
layerId = "C1DA716A-5F29-4CD0-A38F-CCADF5849A80";
paths = (
{
closed = 1;
nodes = (
"425 279 LINE",
"811 710 LINE",
"577 710 LINE",
"328 432 LINE",
"286 432 LINE",
"259 279 LINE"
);
},
{
closed = 1;
nodes = (
"242 0 LINE",
"368 710 LINE",
"149 710 LINE",
"23 0 LINE"
);
},
{
closed = 1;
nodes = (
"691 0 LINE",
"456 415 LINE",
"270 332 LINE",
"451 0 LINE"
);
}
);
width = 743;
},
{
anchors = (
{
name = bottom;
position = "{319, 0}";
}
);
background = {
paths = (
{
closed = 1;
nodes = (
"253 319 LINE",
"663 710 LINE",
"535 710 LINE",
"216 405 LINE",
"191 405 LINE",
"191 319 LINE"
);
},
{
closed = 1;
nodes = (
"211 0 LINE",
"211 710 LINE",
"106 710 LINE",
"106 0 LINE"
);
},
{
closed = 1;
nodes = (
"671 0 LINE",
"268 407 LINE",
"187 348 LINE",
"539 0 LINE"
);
}
);
};
layerId = "6641C2CA-B9F9-47EE-AEEC-6BEE387D8CB9";
paths = (
{
closed = 1;
nodes = (
"275 319 LINE",
"732 710 LINE",
"602 710 LINE",
"240 405 LINE",
"215 405 LINE",
"201 319 LINE"
);
},
{
closed = 1;
nodes = (
"164 0 LINE",
"290 710 LINE",
"185 710 LINE",
"59 0 LINE"
);
},
{
closed = 1;
nodes = (
"614 0 LINE",
"292 393 LINE",
"202 348 LINE",
"491 0 LINE"
);
}
);
width = 666;
}
);
leftMetricsKey = H;
unicode = 004B;
userData = {
RMXScaler = {
source = K;
};
};
},
{
color = 7;
glyphname = L;
lastChange = "2018-03-02 11:07:54 +0000";
layers = (
{
anchors = (
{
name = bottom;
position = "{278, 0}";
},
{
name = periodcentered;
position = "{374, 370}";
},
{
name = top;
position = "{228, 710}";
},
{
name = topright;
position = "{343, 464}";
}
);
background = {
paths = (
{
closed = 1;
nodes = (
"145 0 LINE",
"145 710 LINE",
"90 710 LINE",
"90 0 LINE"
);
},
{
closed = 1;
nodes = (
"504 0 LINE",
"504 50 LINE",
"132 50 LINE",
"132 0 LINE"
);
}
);
};
layerId = "CC363ACD-D5A5-4E19-A940-9AF36D109D9E";
paths = (
{
closed = 1;
nodes = (
"129 0 LINE",
"254 710 LINE",
"199 710 LINE",
"74 0 LINE"
);
},
{
closed = 1;
nodes = (
"478 0 LINE",
"487 50 LINE",
"125 50 LINE",
"116 0 LINE"
);
}
);
width = 534;
},
{
anchors = (
{
name = bottom;
position = "{326, 0}";
},
{
name = periodcentered;
position = "{410, 370}";
},
{
name = top;
position = "{261, 710}";
},
{
name = topright;
position = "{431, 484}";
}
);
background = {
paths = (
{
closed = 1;
nodes = (
"270 0 LINE",
"270 710 LINE",
"50 710 LINE",
"50 0 LINE"
);
},
{
closed = 1;
nodes = (
"560 0 LINE",
"560 173 LINE",
"168 173 LINE",
"168 0 LINE"
);
}
);
};
layerId = "C1DA716A-5F29-4CD0-A38F-CCADF5849A80";
paths = (
{
closed = 1;
nodes = (
"243 0 LINE",
"368 710 LINE",
"148 710 LINE",
"23 0 LINE"
);
},
{
closed = 1;
nodes = (
"523 0 LINE",
"554 173 LINE",
"172 173 LINE",
"141 0 LINE"
);
}
);
width = 596;
},
{
anchors = (
{
name = bottom;
position = "{282, 0}";
},
{
name = periodcentered;
position = "{408, 370}";
},
{
name = top;
position = "{238, 710}";
},
{
name = topright;
position = "{375, 470}";
}
);
background = {
paths = (
{
closed = 1;
nodes = (
"181 0 LINE",
"181 710 LINE",
"76 710 LINE",
"76 0 LINE"
);
},
{
closed = 1;
nodes = (
"516 0 LINE",
"516 90 LINE",
"148 90 LINE",
"148 0 LINE"
);
}
);
};
layerId = "6641C2CA-B9F9-47EE-AEEC-6BEE387D8CB9";
paths = (
{
closed = 1;
nodes = (
"165 0 LINE",
"290 710 LINE",
"185 710 LINE",
"60 0 LINE"
);
},
{
closed = 1;
nodes = (
"490 0 LINE",
"506 90 LINE",
"148 90 LINE",
"132 0 LINE"
);
}
);
width = 557;
}
);
leftMetricsKey = "=H";
unicode = 004C;
userData = {
RMXScaler = {
source = L;
};
};
},
{
color = 7;
glyphname = M;
lastChange = "2018-03-02 17:44:39 +0000";
layers = (
{
background = {
paths = (
{
closed = 1;
nodes = (
"731 710 LINE",
"472 68 LINE",
"467 68 LINE",
"206 710 LINE",
"120 710 LINE",
"120 0 LINE",
"172 0 LINE",
"172 645 LINE",
"177 645 LINE",
"438 0 LINE",
"497 0 LINE",
"758 645 LINE",
"763 645 LINE",
"763 0 LINE",
"817 0 LINE",
"817 710 LINE"
);
}
);
};
layerId = "CC363ACD-D5A5-4E19-A940-9AF36D109D9E";
paths = (
{
closed = 1;
nodes = (
"799 710 LINE",
"429 68 LINE",
"424 68 LINE",
"284 710 LINE",
"199 710 LINE",
"74 0 LINE",
"126 0 LINE",
"240 645 LINE",
"245 645 LINE",
"387 0 LINE",
"446 0 LINE",
"817 645 LINE",
"822 645 LINE",
"707 0 LINE",
"761 0 LINE",
"886 710 LINE"
);
}
);
width = 927;
},
{
background = {
paths = (
{
closed = 1;
nodes = (
"623 710 LINE",
"493 256 LINE",
"486 256 LINE",
"352 710 LINE",
"27 710 LINE",
"27 0 LINE",
"207 0 LINE",
"207 500 LINE",
"214 500 LINE",
"370 0 LINE",
"570 0 LINE",
"726 500 LINE",
"733 500 LINE",
"733 0 LINE",
"943 0 LINE",
"943 710 LINE"
);
}
);
};
layerId = "C1DA716A-5F29-4CD0-A38F-CCADF5849A80";
paths = (
{
closed = 1;
nodes = (
"735 710 LINE",
"523 266 LINE",
"516 266 LINE",
"469 710 LINE",
"149 710 LINE",
"23 0 LINE",
"203 0 LINE",
"292 500 LINE",
"299 500 LINE",
"361 0 LINE",
"561 0 LINE",
"801 500 LINE",
"808 500 LINE",
"719 0 LINE",
"929 0 LINE",
"1055 710 LINE"
);
}
);
width = 1047;
},
{
background = {
paths = (
{
closed = 1;
nodes = (
"732 710 LINE",
"511 125 LINE",
"505 125 LINE",
"279 710 LINE",
"115 710 LINE",
"115 0 LINE",
"210 0 LINE",
"210 598 LINE",
"217 598 LINE",
"449 0 LINE",
"552 0 LINE",
"784 598 LINE",
"791 598 LINE",
"791 0 LINE",
"894 0 LINE",
"894 710 LINE"
);
}
);
};
layerId = "6641C2CA-B9F9-47EE-AEEC-6BEE387D8CB9";
paths = (
{
closed = 1;
nodes = (
"790 710 LINE",
"470 125 LINE",
"464 125 LINE",
"347 710 LINE",
"185 710 LINE",
"60 0 LINE",
"155 0 LINE",
"262 598 LINE",
"269 598 LINE",
"389 0 LINE",
"492 0 LINE",
"827 598 LINE",
"834 598 LINE",
"726 0 LINE",
"829 0 LINE",
"954 710 LINE"
);
}
);
width = 982;
}
);
leftMetricsKey = H;
rightMetricsKey = H;
unicode = 004D;
userData = {
RMXScaler = {
source = M;
};
};
},
{
color = 7;
glyphname = N;
lastChange = "2018-03-02 13:26:04 +0000";
layers = (
{
anchors = (
{
name = bottom;
position = "{344, 0}";
},
{
name = top;
position = "{475, 710}";
}
);
background = {
paths = (
{
closed = 1;
nodes = (
"616 98 LINE",
"169 710 LINE",
"120 710 LINE",
"120 0 LINE",
"172 0 LINE",
"172 612 LINE",
"176 612 LINE",
"623 0 LINE",
"672 0 LINE",
"672 710 LINE",
"620 710 LINE",
"620 98 LINE"
);
}
);
};
layerId = "CC363ACD-D5A5-4E19-A940-9AF36D109D9E";
paths = (
{
closed = 1;
nodes = (
"74 0 LINE",
"126 0 LINE",
"235 613 LINE",
"239 613 LINE",
"567 0 LINE",
"616 0 LINE",
"741 710 LINE",
"689 710 LINE",
"580 97 LINE",
"576 97 LINE",
"248 710 LINE",
"199 710 LINE"
);
}
);
width = 782;
},
{
anchors = (
{
name = bottom;
position = "{351, 0}";
},
{
name = top;
position = "{483, 710}";
}
);
background = {
paths = (
{
closed = 1;
nodes = (
"556 289 LINE",
"309 710 LINE",
"70 710 LINE",
"70 0 LINE",
"255 0 LINE",
"255 423 LINE",
"262 423 LINE",
"510 0 LINE",
"748 0 LINE",
"748 710 LINE",
"563 710 LINE",
"563 289 LINE"
);
}
);
};
layerId = "C1DA716A-5F29-4CD0-A38F-CCADF5849A80";
paths = (
{
closed = 1;
nodes = (
"23 0 LINE",
"208 0 LINE",
"283 423 LINE",
"290 423 LINE",
"458 0 LINE",
"691 0 LINE",
"816 710 LINE",
"631 710 LINE",
"557 289 LINE",
"550 289 LINE",
"381 710 LINE",
"148 710 LINE"
);
}
);
width = 808;
},
{
anchors = (
{
name = bottom;
position = "{351, 0}";
},
{
name = top;
position = "{482, 710}";
}
);
background = {
paths = (
{
closed = 1;
nodes = (
"602 165 LINE",
"213 710 LINE",
"106 710 LINE",
"106 0 LINE",
"201 0 LINE",
"201 545 LINE",
"207 545 LINE",
"595 0 LINE",
"702 0 LINE",
"702 710 LINE",
"607 710 LINE",
"607 165 LINE"
);
}
);
};
guideLines = (
{
angle = 80;
position = "{236, 459}";
}
);
layerId = "6641C2CA-B9F9-47EE-AEEC-6BEE387D8CB9";
paths = (
{
closed = 1;
nodes = (
"60 0 LINE",
"155 0 LINE",
"251 547 LINE",
"256 547 LINE",
"539 0 LINE",
"639 0 LINE",
"771 710 LINE",
"676 710 LINE",
"580 163 LINE",
"575 163 LINE",
"285 710 LINE",
"185 710 LINE"
);
}
);
width = 798;
}
);
leftMetricsKey = "=H";
rightMetricsKey = "=H";
unicode = 004E;
userData = {
RMXScaler = {
source = N;
};
};
},
{
color = 4;
glyphname = O;
lastChange = "2018-03-02 10:50:24 +0000";
layers = (
{
anchors = (
{
name = bottom;
position = "{353, 0}";
},
{
name = top;
position = "{475, 710}";
}
);
background = {
anchors = (
{
name = bottom;
position = "{350, 0}";
},
{
name = top;
position = "{475, 710}";
}
);
paths = (
{
closed = 1;
nodes = (
"621 -15 OFFCURVE",
"743 224 OFFCURVE",
"743 428 CURVE SMOOTH",
"743 601 OFFCURVE",
"645 725 OFFCURVE",
"465 725 CURVE SMOOTH",
"205 725 OFFCURVE",
"83 486 OFFCURVE",
"83 282 CURVE SMOOTH",
"83 109 OFFCURVE",
"181 -15 OFFCURVE",
"361 -15 CURVE SMOOTH"
);
},
{
closed = 1;
nodes = (
"218 39 OFFCURVE",
"144 140 OFFCURVE",
"144 282 CURVE SMOOTH",
"144 456 OFFCURVE",
"235 671 OFFCURVE",
"462 671 CURVE SMOOTH",
"608 671 OFFCURVE",
"682 570 OFFCURVE",
"682 428 CURVE SMOOTH",
"682 254 OFFCURVE",
"591 39 OFFCURVE",
"364 39 CURVE SMOOTH"
);
}
);
};
layerId = "CC363ACD-D5A5-4E19-A940-9AF36D109D9E";
paths = (
{
closed = 1;
nodes = (
"625 -15 OFFCURVE",
"737 224 OFFCURVE",
"743 430 CURVE SMOOTH",
"748 601 OFFCURVE",
"655 724 OFFCURVE",
"464 725 CURVE SMOOTH",
"200 727 OFFCURVE",
"91 486 OFFCURVE",
"84 285 CURVE SMOOTH",
"78 109 OFFCURVE",
"171 -15 OFFCURVE",
"362 -15 CURVE SMOOTH"
);
},
{
closed = 1;
nodes = (
"208 39 OFFCURVE",
"140 140 OFFCURVE",
"145 281 CURVE SMOOTH",
"152 456 OFFCURVE",
"233 673 OFFCURVE",
"461 671 CURVE SMOOTH",
"618 670 OFFCURVE",
"687 570 OFFCURVE",
"682 432 CURVE SMOOTH",
"676 254 OFFCURVE",
"593 39 OFFCURVE",
"369 39 CURVE SMOOTH"
);
}
);
width = 792;
},
{
anchors = (
{
name = bottom;
position = "{360, 0}";
},
{
name = top;
position = "{480, 710}";
}
);
background = {
paths = (
{
closed = 1;
nodes = (
"646 -15 OFFCURVE",
"788 179 OFFCURVE",
"788 421 CURVE SMOOTH",
"788 604 OFFCURVE",
"673 725 OFFCURVE",
"465 725 CURVE SMOOTH",
"195 725 OFFCURVE",
"53 531 OFFCURVE",
"53 289 CURVE SMOOTH",
"53 106 OFFCURVE",
"168 -15 OFFCURVE",
"376 -15 CURVE SMOOTH"
);
},
{
closed = 1;
nodes = (
"311 158 OFFCURVE",
"276 217 OFFCURVE",
"276 297 CURVE SMOOTH",
"276 392 OFFCURVE",
"320 552 OFFCURVE",
"455 552 CURVE SMOOTH",
"530 552 OFFCURVE",
"565 493 OFFCURVE",
"565 413 CURVE SMOOTH",
"565 318 OFFCURVE",
"521 158 OFFCURVE",
"386 158 CURVE SMOOTH"
);
}
);
};
layerId = "C1DA716A-5F29-4CD0-A38F-CCADF5849A80";
paths = (
{
closed = 1;
nodes = (
"654 -15 OFFCURVE",
"787 179 OFFCURVE",
"787 438 CURVE SMOOTH",
"787 604 OFFCURVE",
"681 725 OFFCURVE",
"458 725 CURVE SMOOTH",
"189 725 OFFCURVE",
"56 531 OFFCURVE",
"56 272 CURVE SMOOTH",
"56 106 OFFCURVE",
"162 -15 OFFCURVE",
"385 -15 CURVE SMOOTH"
);
},
{
closed = 1;
nodes = (
"314 158 OFFCURVE",
"278 196 OFFCURVE",
"278 280 CURVE SMOOTH",
"278 419 OFFCURVE",
"328 552 OFFCURVE",
"449 552 CURVE SMOOTH",
"529 552 OFFCURVE",
"565 514 OFFCURVE",
"565 430 CURVE SMOOTH",
"565 291 OFFCURVE",
"515 158 OFFCURVE",
"394 158 CURVE SMOOTH"
);
}
);
width = 811;
},
{
anchors = (
{
name = bottom;
position = "{357, 0}";
},
{
name = top;
position = "{482, 710}";
}
);
associatedMasterId = "C1DA716A-5F29-4CD0-A38F-CCADF5849A80";
background = {
paths = (
{
closed = 1;
nodes = (
"646 -15 OFFCURVE",
"788 179 OFFCURVE",
"788 421 CURVE SMOOTH",
"788 604 OFFCURVE",
"673 725 OFFCURVE",
"465 725 CURVE SMOOTH",
"195 725 OFFCURVE",
"53 531 OFFCURVE",
"53 289 CURVE SMOOTH",
"53 106 OFFCURVE",
"168 -15 OFFCURVE",
"376 -15 CURVE SMOOTH"
);
},
{
closed = 1;
nodes = (
"311 158 OFFCURVE",
"276 217 OFFCURVE",
"276 297 CURVE SMOOTH",
"276 392 OFFCURVE",
"320 552 OFFCURVE",
"455 552 CURVE SMOOTH",
"530 552 OFFCURVE",
"565 493 OFFCURVE",
"565 413 CURVE SMOOTH",
"565 318 OFFCURVE",
"521 158 OFFCURVE",
"386 158 CURVE SMOOTH"
);
}
);
};
layerId = "24ECF26C-6CC0-429B-8953-F6EE04B07353";
name = "Oct 6 17, 13:09";
paths = (
{
closed = 1;
nodes = (
"659 -15 OFFCURVE",
"785 179 OFFCURVE",
"784 439 CURVE SMOOTH",
"783 604 OFFCURVE",
"680 725 OFFCURVE",
"465 725 CURVE SMOOTH",
"182 725 OFFCURVE",
"55 531 OFFCURVE",
"57 271 CURVE SMOOTH",
"58 106 OFFCURVE",
"161 -15 OFFCURVE",
"376 -15 CURVE SMOOTH"
);
},
{
closed = 1;
nodes = (
"309 158 OFFCURVE",
"278 205 OFFCURVE",
"279 282 CURVE SMOOTH",
"281 438 OFFCURVE",
"330 552 OFFCURVE",
"449 552 CURVE SMOOTH",
"532 552 OFFCURVE",
"563 505 OFFCURVE",
"562 428 CURVE SMOOTH",
"560 272 OFFCURVE",
"511 158 OFFCURVE",
"392 158 CURVE SMOOTH"
);
}
);
width = 810;
},
{
anchors = (
{
name = bottom;
position = "{350, 0}";
},
{
name = top;
position = "{475, 710}";
}
);
associatedMasterId = "CC363ACD-D5A5-4E19-A940-9AF36D109D9E";
background = {
paths = (
{
closed = 1;
nodes = (
"621 -15 OFFCURVE",
"743 224 OFFCURVE",
"743 428 CURVE SMOOTH",
"743 601 OFFCURVE",
"645 725 OFFCURVE",
"465 725 CURVE SMOOTH",
"205 725 OFFCURVE",
"83 486 OFFCURVE",
"83 282 CURVE SMOOTH",
"83 109 OFFCURVE",
"181 -15 OFFCURVE",
"361 -15 CURVE SMOOTH"
);
},
{
closed = 1;
nodes = (
"218 39 OFFCURVE",
"144 140 OFFCURVE",
"144 282 CURVE SMOOTH",
"144 456 OFFCURVE",
"235 671 OFFCURVE",
"462 671 CURVE SMOOTH",
"608 671 OFFCURVE",
"682 570 OFFCURVE",
"682 428 CURVE SMOOTH",
"682 254 OFFCURVE",
"591 39 OFFCURVE",
"364 39 CURVE SMOOTH"
);
}
);
};
layerId = "2790E82D-5D22-4FBA-9FD8-74AE5A497A95";
name = "Oct 6 17, 14:20";
paths = (
{
closed = 1;
nodes = (
"621 -15 OFFCURVE",
"743 224 OFFCURVE",
"743 428 CURVE SMOOTH",
"743 601 OFFCURVE",
"645 725 OFFCURVE",
"465 725 CURVE SMOOTH",
"205 725 OFFCURVE",
"83 486 OFFCURVE",
"83 282 CURVE SMOOTH",
"83 109 OFFCURVE",
"181 -15 OFFCURVE",
"361 -15 CURVE SMOOTH"
);
},
{
closed = 1;
nodes = (
"218 39 OFFCURVE",
"144 140 OFFCURVE",
"144 282 CURVE SMOOTH",
"144 456 OFFCURVE",
"235 671 OFFCURVE",
"462 671 CURVE SMOOTH",
"608 671 OFFCURVE",
"682 570 OFFCURVE",
"682 428 CURVE SMOOTH",
"682 254 OFFCURVE",
"591 39 OFFCURVE",
"364 39 CURVE SMOOTH"
);
}
);
width = 792;
},
{
anchors = (
{
name = bottom;
position = "{350, 0}";
},
{
name = top;
position = "{475, 710}";
}
);
associatedMasterId = "CC363ACD-D5A5-4E19-A940-9AF36D109D9E";
background = {
paths = (
{
closed = 1;
nodes = (
"621 -15 OFFCURVE",
"743 224 OFFCURVE",
"743 428 CURVE SMOOTH",
"743 601 OFFCURVE",
"645 725 OFFCURVE",
"465 725 CURVE SMOOTH",
"205 725 OFFCURVE",
"83 486 OFFCURVE",
"83 282 CURVE SMOOTH",
"83 109 OFFCURVE",
"181 -15 OFFCURVE",
"361 -15 CURVE SMOOTH"
);
},
{
closed = 1;
nodes = (
"218 39 OFFCURVE",
"144 140 OFFCURVE",
"144 282 CURVE SMOOTH",
"144 456 OFFCURVE",
"235 671 OFFCURVE",
"462 671 CURVE SMOOTH",
"608 671 OFFCURVE",
"682 570 OFFCURVE",
"682 428 CURVE SMOOTH",
"682 254 OFFCURVE",
"591 39 OFFCURVE",
"364 39 CURVE SMOOTH"
);
}
);
};
layerId = "5E732E0B-540D-490C-B219-113A1CF9EE32";
name = "Oct 6 17, 14:24";
paths = (
{
closed = 1;
nodes = (
"171 -15 OFFCURVE",
"78 109 OFFCURVE",
"83 280 CURVE SMOOTH",
"89 486 OFFCURVE",
"201 725 OFFCURVE",
"465 725 CURVE SMOOTH",
"655 725 OFFCURVE",
"748 601 OFFCURVE",
"743 430 CURVE SMOOTH",
"737 224 OFFCURVE",
"625 -15 OFFCURVE",
"361 -15 CURVE SMOOTH"
);
},
{
closed = 1;
nodes = (
"233 671 OFFCURVE",
"150 456 OFFCURVE",
"144 278 CURVE SMOOTH",
"139 140 OFFCURVE",
"208 39 OFFCURVE",
"364 39 CURVE SMOOTH",
"593 39 OFFCURVE",
"676 254 OFFCURVE",
"682 432 CURVE SMOOTH",
"687 570 OFFCURVE",
"618 671 OFFCURVE",
"462 671 CURVE SMOOTH"
);
}
);
width = 792;
},
{
anchors = (
{
name = bottom;
position = "{370, 0}";
},
{
name = top;
position = "{483, 710}";
}
);
layerId = "6641C2CA-B9F9-47EE-AEEC-6BEE387D8CB9";
paths = (
{
closed = 1;
nodes = (
"630 -15 OFFCURVE",
"765 188 OFFCURVE",
"767 427 CURVE SMOOTH",
"770 607 OFFCURVE",
"666 725 OFFCURVE",
"466 725 CURVE SMOOTH",
"212 726 OFFCURVE",
"79 522 OFFCURVE",
"76 285 CURVE SMOOTH",
"73 103 OFFCURVE",
"176 -15 OFFCURVE",
"376 -15 CURVE SMOOTH"
);
},
{
closed = 1;
nodes = (
"248 77 OFFCURVE",
"184 156 OFFCURVE",
"186 284 CURVE SMOOTH",
"190 469 OFFCURVE",
"274 634 OFFCURVE",
"461 633 CURVE SMOOTH",
"595 633 OFFCURVE",
"659 554 OFFCURVE",
"657 428 CURVE SMOOTH",
"654 241 OFFCURVE",
"569 77 OFFCURVE",
"383 77 CURVE SMOOTH"
);
}
);
width = 809;
}
);
unicode = 004F;
userData = {
RMXScaler = {
source = O;
};
};
},
{
color = 7;
glyphname = P;
lastChange = "2018-03-02 17:23:25 +0000";
layers = (
{
background = {
paths = (
{
closed = 1;
nodes = (
"175 0 LINE",
"175 710 LINE",
"120 710 LINE",
"120 0 LINE"
);
},
{
closed = 1;
nodes = (
"160 347 LINE",
"160 299 LINE",
"390 299 LINE SMOOTH",
"547 299 OFFCURVE",
"629 365 OFFCURVE",
"629 505 CURVE SMOOTH",
"629 645 OFFCURVE",
"547 710 OFFCURVE",
"390 710 CURVE SMOOTH",
"160 710 LINE",
"160 661 LINE",
"378 661 LINE SMOOTH",
"526 661 OFFCURVE",
"575 614 OFFCURVE",
"575 504 CURVE SMOOTH",
"575 394 OFFCURVE",
"526 347 OFFCURVE",
"378 347 CURVE SMOOTH"
);
}
);
};
layerId = "CC363ACD-D5A5-4E19-A940-9AF36D109D9E";
paths = (
{
closed = 1;
nodes = (
"129 0 LINE",
"255 710 LINE",
"200 710 LINE",
"74 0 LINE"
);
},
{
closed = 1;
nodes = (
"176 347 LINE",
"167 299 LINE",
"387 299 LINE SMOOTH",
"565 299 OFFCURVE",
"667 365 OFFCURVE",
"667 529 CURVE SMOOTH",
"667 648 OFFCURVE",
"586 710 OFFCURVE",
"441 710 CURVE SMOOTH",
"240 710 LINE",
"231 661 LINE",
"436 661 LINE SMOOTH",
"561 661 OFFCURVE",
"613 618 OFFCURVE",
"613 529 CURVE SMOOTH",
"613 390 OFFCURVE",
"530 347 OFFCURVE",
"392 347 CURVE SMOOTH"
);
}
);
width = 670;
},
{
background = {
paths = (
{
closed = 1;
nodes = (
"290 0 LINE",
"290 710 LINE",
"70 710 LINE",
"70 0 LINE"
);
},
{
closed = 1;
nodes = (
"271 380 LINE",
"271 227 LINE",
"447 227 LINE SMOOTH",
"638 227 OFFCURVE",
"721 315 OFFCURVE",
"721 464 CURVE SMOOTH",
"721 622 OFFCURVE",
"638 710 OFFCURVE",
"456 710 CURVE SMOOTH",
"271 710 LINE",
"271 550 LINE",
"407 550 LINE SMOOTH",
"476 550 OFFCURVE",
"503 527 OFFCURVE",
"503 467 CURVE SMOOTH",
"503 405 OFFCURVE",
"476 380 OFFCURVE",
"407 380 CURVE SMOOTH"
);
}
);
};
layerId = "C1DA716A-5F29-4CD0-A38F-CCADF5849A80";
paths = (
{
closed = 1;
nodes = (
"243 0 LINE",
"369 710 LINE",
"149 710 LINE",
"23 0 LINE"
);
},
{
closed = 1;
nodes = (
"292 380 LINE",
"264 227 LINE",
"421 227 LINE SMOOTH",
"625 227 OFFCURVE",
"745 298 OFFCURVE",
"745 493 CURVE SMOOTH",
"745 633 OFFCURVE",
"649 710 OFFCURVE",
"483 710 CURVE SMOOTH",
"350 710 LINE",
"322 550 LINE",
"438 550 LINE SMOOTH",
"497 550 OFFCURVE",
"532 533 OFFCURVE",
"532 483 CURVE SMOOTH",
"532 415 OFFCURVE",
"500 380 OFFCURVE",
"413 380 CURVE SMOOTH"
);
}
);
width = 737;
},
{
background = {
paths = (
{
closed = 1;
nodes = (
"211 0 LINE",
"211 710 LINE",
"106 710 LINE",
"106 0 LINE"
);
},
{
closed = 1;
nodes = (
"192 363 LINE",
"192 275 LINE",
"404 275 LINE SMOOTH",
"578 275 OFFCURVE",
"656 352 OFFCURVE",
"656 493 CURVE SMOOTH",
"656 635 OFFCURVE",
"578 710 OFFCURVE",
"406 710 CURVE SMOOTH",
"192 710 LINE",
"192 622 LINE",
"381 622 LINE SMOOTH",
"507 622 OFFCURVE",
"553 590 OFFCURVE",
"553 493 CURVE SMOOTH",
"553 397 OFFCURVE",
"507 363 OFFCURVE",
"380 363 CURVE SMOOTH"
);
}
);
};
layerId = "6641C2CA-B9F9-47EE-AEEC-6BEE387D8CB9";
paths = (
{
closed = 1;
nodes = (
"164 0 LINE",
"290 710 LINE",
"185 710 LINE",
"59 0 LINE"
);
},
{
closed = 1;
nodes = (
"210 363 LINE",
"194 275 LINE",
"395 275 LINE SMOOTH",
"584 275 OFFCURVE",
"688 344 OFFCURVE",
"689 512 CURVE SMOOTH",
"690 632 OFFCURVE",
"612 710 OFFCURVE",
"454 710 CURVE SMOOTH",
"272 710 LINE",
"255 622 LINE",
"439 622 LINE SMOOTH",
"541 622 OFFCURVE",
"587 588 OFFCURVE",
"587 512 CURVE SMOOTH",
"587 401 OFFCURVE",
"529 363 OFFCURVE",
"403 363 CURVE SMOOTH"
);
}
);
width = 690;
}
);
leftMetricsKey = H;
unicode = 0050;
userData = {
RMXScaler = {
source = P;
};
};
},
{
color = 4;
glyphname = Q;
lastChange = "2018-03-02 10:50:24 +0000";
layers = (
{
background = {
paths = (
{
closed = 1;
nodes = (
"692 -106 LINE",
"564 44 LINE",
"558 44 LINE",
"414 213 LINE",
"350 213 LINE",
"514 17 LINE",
"521 17 LINE",
"628 -106 LINE"
);
},
{
closed = 1;
nodes = (
"586 -15 OFFCURVE",
"722 116 OFFCURVE",
"722 354 CURVE SMOOTH",
"722 595 OFFCURVE",
"586 725 OFFCURVE",
"396 725 CURVE SMOOTH",
"205 725 OFFCURVE",
"70 595 OFFCURVE",
"70 354 CURVE SMOOTH",
"70 116 OFFCURVE",
"205 -15 OFFCURVE",
"396 -15 CURVE SMOOTH"
);
},
{
closed = 1;
nodes = (
"229 36 OFFCURVE",
"132 154 OFFCURVE",
"132 354 CURVE SMOOTH",
"132 556 OFFCURVE",
"229 674 OFFCURVE",
"396 674 CURVE SMOOTH",
"562 674 OFFCURVE",
"660 556 OFFCURVE",
"660 354 CURVE SMOOTH",
"660 154 OFFCURVE",
"562 36 OFFCURVE",
"396 36 CURVE SMOOTH"
);
}
);
};
layerId = "CC363ACD-D5A5-4E19-A940-9AF36D109D9E";
paths = (
{
closed = 1;
nodes = (
"625 -15 OFFCURVE",
"737 224 OFFCURVE",
"743 430 CURVE SMOOTH",
"748 601 OFFCURVE",
"655 724 OFFCURVE",
"464 725 CURVE SMOOTH",
"200 727 OFFCURVE",
"91 486 OFFCURVE",
"84 285 CURVE SMOOTH",
"78 109 OFFCURVE",
"171 -15 OFFCURVE",
"362 -15 CURVE SMOOTH"
);
},
{
closed = 1;
nodes = (
"208 39 OFFCURVE",
"140 140 OFFCURVE",
"145 281 CURVE SMOOTH",
"152 456 OFFCURVE",
"233 673 OFFCURVE",
"461 671 CURVE SMOOTH",
"618 670 OFFCURVE",
"687 570 OFFCURVE",
"682 432 CURVE SMOOTH",
"676 254 OFFCURVE",
"593 39 OFFCURVE",
"369 39 CURVE SMOOTH"
);
},
{
closed = 1;
nodes = (
"652 -106 LINE",
"545 44 LINE",
"539 44 LINE",
"420 213 LINE",
"363 213 LINE",
"498 17 LINE",
"505 17 LINE",
"595 -106 LINE"
);
}
);
width = 792;
},
{
background = {
paths = (
{
closed = 1;
nodes = (
"654 -15 OFFCURVE",
"787 179 OFFCURVE",
"787 438 CURVE SMOOTH",
"787 604 OFFCURVE",
"681 725 OFFCURVE",
"458 725 CURVE SMOOTH",
"189 725 OFFCURVE",
"56 531 OFFCURVE",
"56 272 CURVE SMOOTH",
"56 106 OFFCURVE",
"162 -15 OFFCURVE",
"385 -15 CURVE SMOOTH"
);
},
{
closed = 1;
nodes = (
"314 158 OFFCURVE",
"278 196 OFFCURVE",
"278 280 CURVE SMOOTH",
"278 419 OFFCURVE",
"328 552 OFFCURVE",
"449 552 CURVE SMOOTH",
"529 552 OFFCURVE",
"565 514 OFFCURVE",
"565 430 CURVE SMOOTH",
"565 291 OFFCURVE",
"515 158 OFFCURVE",
"394 158 CURVE SMOOTH"
);
},
{
closed = 1;
nodes = (
"700 -88 LINE",
"585 112 LINE",
"558 112 LINE",
"478 262 LINE",
"318 262 LINE",
"435 34 LINE",
"452 34 LINE",
"519 -88 LINE"
);
}
);
};
layerId = "C1DA716A-5F29-4CD0-A38F-CCADF5849A80";
paths = (
{
closed = 1;
nodes = (
"654 -15 OFFCURVE",
"787 179 OFFCURVE",
"787 438 CURVE SMOOTH",
"787 604 OFFCURVE",
"681 725 OFFCURVE",
"458 725 CURVE SMOOTH",
"189 725 OFFCURVE",
"56 531 OFFCURVE",
"56 272 CURVE SMOOTH",
"56 106 OFFCURVE",
"162 -15 OFFCURVE",
"385 -15 CURVE SMOOTH"
);
},
{
closed = 1;
nodes = (
"309 153 OFFCURVE",
"270 191 OFFCURVE",
"270 280 CURVE SMOOTH",
"270 419 OFFCURVE",
"323 557 OFFCURVE",
"449 557 CURVE SMOOTH",
"534 557 OFFCURVE",
"573 519 OFFCURVE",
"573 430 CURVE SMOOTH",
"573 291 OFFCURVE",
"520 153 OFFCURVE",
"394 153 CURVE SMOOTH"
);
},
{
closed = 1;
nodes = (
"700 -88 LINE",
"585 112 LINE",
"558 112 LINE",
"478 262 LINE",
"318 262 LINE",
"435 34 LINE",
"452 34 LINE",
"519 -88 LINE"
);
}
);
width = 811;
},
{
layerId = "6641C2CA-B9F9-47EE-AEEC-6BEE387D8CB9";
paths = (
{
closed = 1;
nodes = (
"630 -15 OFFCURVE",
"765 188 OFFCURVE",
"767 427 CURVE SMOOTH",
"770 607 OFFCURVE",
"666 725 OFFCURVE",
"466 725 CURVE SMOOTH",
"212 726 OFFCURVE",
"79 522 OFFCURVE",
"76 285 CURVE SMOOTH",
"73 103 OFFCURVE",
"176 -15 OFFCURVE",
"376 -15 CURVE SMOOTH"
);
},
{
closed = 1;
nodes = (
"247 77 OFFCURVE",
"181 156 OFFCURVE",
"184 284 CURVE SMOOTH",
"187 469 OFFCURVE",
"273 634 OFFCURVE",
"461 633 CURVE SMOOTH",
"596 633 OFFCURVE",
"662 554 OFFCURVE",
"659 428 CURVE SMOOTH",
"656 241 OFFCURVE",
"570 77 OFFCURVE",
"383 77 CURVE SMOOTH"
);
},
{
closed = 1;
nodes = (
"681 -101 LINE",
"567 69 LINE",
"551 69 LINE",
"451 226 LINE",
"353 226 LINE",
"483 18 LINE",
"499 18 LINE",
"580 -101 LINE"
);
}
);
width = 809;
}
);
leftMetricsKey = O;
rightMetricsKey = O;
unicode = 0051;
userData = {
RMXScaler = {
source = Q;
};
};
},
{
color = 7;
glyphname = R;
lastChange = "2018-03-02 23:20:34 +0000";
layers = (
{
anchors = (
{
name = bottom;
position = "{309, 0}";
},
{
name = top;
position = "{432, 710}";
}
);
background = {
paths = (
{
closed = 1;
nodes = (
"156 362 LINE",
"156 314 LINE",
"390 314 LINE SMOOTH",
"543 314 OFFCURVE",
"621 378 OFFCURVE",
"621 511 CURVE SMOOTH",
"621 646 OFFCURVE",
"544 710 OFFCURVE",
"395 710 CURVE SMOOTH",
"156 710 LINE",
"156 661 LINE",
"387 661 LINE SMOOTH",
"518 661 OFFCURVE",
"568 619 OFFCURVE",
"568 511 CURVE SMOOTH",
"568 404 OFFCURVE",
"517 362 OFFCURVE",
"384 362 CURVE SMOOTH"
);
},
{
closed = 1;
nodes = (
"627 0 LINE",
"365 328 LINE",
"301 328 LINE",
"560 0 LINE"
);
},
{
closed = 1;
nodes = (
"175 0 LINE",
"175 710 LINE",
"120 710 LINE",
"120 0 LINE"
);
}
);
};
layerId = "CC363ACD-D5A5-4E19-A940-9AF36D109D9E";
paths = (
{
closed = 1;
nodes = (
"174 362 LINE",
"166 314 LINE",
"389 314 LINE SMOOTH",
"561 314 OFFCURVE",
"659 377 OFFCURVE",
"659 534 CURVE SMOOTH",
"659 644 OFFCURVE",
"586 710 OFFCURVE",
"457 710 CURVE SMOOTH",
"236 710 LINE",
"227 661 LINE",
"447 661 LINE SMOOTH",
"561 661 OFFCURVE",
"606 619 OFFCURVE",
"606 529 CURVE SMOOTH",
"606 407 OFFCURVE",
"536 362 OFFCURVE",
"399 362 CURVE SMOOTH"
);
},
{
closed = 1;
nodes = (
"570 0 LINE",
"364 328 LINE",
"304 328 LINE",
"510 0 LINE"
);
},
{
closed = 1;
nodes = (
"129 0 LINE",
"255 710 LINE",
"200 710 LINE",
"74 0 LINE"
);
}
);
width = 686;
},
{
anchors = (
{
name = bottom;
position = "{335, 0}";
},
{
name = top;
position = "{458, 710}";
}
);
background = {
paths = (
{
closed = 1;
nodes = (
"267 393 LINE",
"267 249 LINE",
"434 249 LINE SMOOTH",
"629 249 OFFCURVE",
"713 329 OFFCURVE",
"713 477 CURVE SMOOTH",
"713 626 OFFCURVE",
"631 710 OFFCURVE",
"447 710 CURVE SMOOTH",
"267 710 LINE",
"267 551 LINE",
"406 551 LINE SMOOTH",
"475 551 OFFCURVE",
"501 527 OFFCURVE",
"501 472 CURVE SMOOTH",
"501 418 OFFCURVE",
"475 393 OFFCURVE",
"405 393 CURVE SMOOTH"
);
},
{
closed = 1;
nodes = (
"729 0 LINE",
"524 320 LINE",
"299 320 LINE",
"496 0 LINE"
);
},
{
closed = 1;
nodes = (
"286 0 LINE",
"286 710 LINE",
"67 710 LINE",
"67 0 LINE"
);
}
);
};
layerId = "C1DA716A-5F29-4CD0-A38F-CCADF5849A80";
paths = (
{
closed = 1;
nodes = (
"293 393 LINE",
"267 249 LINE",
"420 249 LINE SMOOTH",
"621 249 OFFCURVE",
"744 320 OFFCURVE",
"744 506 CURVE SMOOTH",
"744 638 OFFCURVE",
"654 710 OFFCURVE",
"495 710 CURVE SMOOTH",
"349 710 LINE",
"321 551 LINE",
"449 551 LINE SMOOTH",
"510 551 OFFCURVE",
"534 525 OFFCURVE",
"534 484 CURVE SMOOTH",
"534 417 OFFCURVE",
"495 393 OFFCURVE",
"420 393 CURVE SMOOTH"
);
},
{
closed = 1;
nodes = (
"674 0 LINE",
"521 320 LINE",
"308 320 LINE",
"446 0 LINE"
);
},
{
closed = 1;
nodes = (
"242 0 LINE",
"368 710 LINE",
"149 710 LINE",
"23 0 LINE"
);
}
);
width = 743;
},
{
anchors = (
{
name = bottom;
position = "{320, 0}";
},
{
name = top;
position = "{443, 710}";
}
);
background = {
paths = (
{
closed = 1;
nodes = (
"192 375 LINE",
"192 291 LINE",
"396 291 LINE SMOOTH",
"574 291 OFFCURVE",
"655 366 OFFCURVE",
"655 499 CURVE SMOOTH",
"655 635 OFFCURVE",
"578 710 OFFCURVE",
"410 710 CURVE SMOOTH",
"192 710 LINE",
"192 622 LINE",
"390 622 LINE SMOOTH",
"506 622 OFFCURVE",
"553 591 OFFCURVE",
"553 499 CURVE SMOOTH",
"553 409 OFFCURVE",
"506 375 OFFCURVE",
"388 375 CURVE SMOOTH"
);
},
{
closed = 1;
nodes = (
"657 0 LINE",
"416 330 LINE",
"301 330 LINE",
"537 0 LINE"
);
},
{
closed = 1;
nodes = (
"211 0 LINE",
"211 710 LINE",
"106 710 LINE",
"106 0 LINE"
);
}
);
};
layerId = "6641C2CA-B9F9-47EE-AEEC-6BEE387D8CB9";
paths = (
{
closed = 1;
nodes = (
"212 375 LINE",
"198 291 LINE",
"391 291 LINE SMOOTH",
"577 291 OFFCURVE",
"690 353 OFFCURVE",
"690 528 CURVE SMOOTH",
"689 637 OFFCURVE",
"616 710 OFFCURVE",
"473 710 CURVE SMOOTH",
"272 710 LINE",
"256 622 LINE",
"453 622 LINE SMOOTH",
"546 622 OFFCURVE",
"588 584 OFFCURVE",
"588 518 CURVE SMOOTH",
"588 404 OFFCURVE",
"521 375 OFFCURVE",
"400 375 CURVE SMOOTH"
);
},
{
closed = 1;
nodes = (
"600 0 LINE",
"417 330 LINE",
"306 330 LINE",
"487 0 LINE"
);
},
{
closed = 1;
nodes = (
"164 0 LINE",
"290 710 LINE",
"185 710 LINE",
"59 0 LINE"
);
}
);
width = 714;
}
);
leftMetricsKey = H;
unicode = 0052;
userData = {
RMXScaler = {
source = R;
};
};
},
{
color = 4;
glyphname = S;
lastChange = "2018-03-02 10:50:24 +0000";
layers = (
{
anchors = (
{
name = bottom;
position = "{298, 0}";
},
{
name = top;
position = "{377, 710}";
}
);
background = {
paths = (
{
closed = 1;
nodes = (
"458 -15 OFFCURVE",
"564 59 OFFCURVE",
"564 197 CURVE SMOOTH",
"564 296 OFFCURVE",
"500 350 OFFCURVE",
"395 375 CURVE SMOOTH",
"310 395 LINE SMOOTH",
"228 414 OFFCURVE",
"191 455 OFFCURVE",
"191 521 CURVE SMOOTH",
"191 618 OFFCURVE",
"258 674 OFFCURVE",
"376 674 CURVE SMOOTH",
"495 674 OFFCURVE",
"554 638 OFFCURVE",
"556 530 CURVE",
"614 530 LINE",
"613 665 OFFCURVE",
"535 725 OFFCURVE",
"378 725 CURVE SMOOTH",
"228 725 OFFCURVE",
"132 648 OFFCURVE",
"132 516 CURVE SMOOTH",
"132 423 OFFCURVE",
"186 366 OFFCURVE",
"292 341 CURVE SMOOTH",
"376 321 LINE SMOOTH",
"461 301 OFFCURVE",
"505 265 OFFCURVE",
"505 192 CURVE SMOOTH",
"505 89 OFFCURVE",
"428 36 OFFCURVE",
"300 36 CURVE SMOOTH",
"175 36 OFFCURVE",
"109 77 OFFCURVE",
"108 175 CURVE",
"50 175 LINE",
"50 41 OFFCURVE",
"139 -15 OFFCURVE",
"298 -15 CURVE SMOOTH"
);
}
);
};
layerId = "CC363ACD-D5A5-4E19-A940-9AF36D109D9E";
paths = (
{
closed = 1;
nodes = (
"458 -15 OFFCURVE",
"564 59 OFFCURVE",
"564 197 CURVE SMOOTH",
"564 296 OFFCURVE",
"500 350 OFFCURVE",
"395 375 CURVE SMOOTH",
"310 395 LINE SMOOTH",
"228 414 OFFCURVE",
"191 455 OFFCURVE",
"191 521 CURVE SMOOTH",
"191 618 OFFCURVE",
"258 674 OFFCURVE",
"376 674 CURVE SMOOTH",
"495 674 OFFCURVE",
"554 638 OFFCURVE",
"556 530 CURVE",
"614 534 LINE",
"613 665 OFFCURVE",
"535 725 OFFCURVE",
"378 725 CURVE SMOOTH",
"228 725 OFFCURVE",
"132 648 OFFCURVE",
"132 516 CURVE SMOOTH",
"132 423 OFFCURVE",
"186 366 OFFCURVE",
"292 341 CURVE SMOOTH",
"376 321 LINE SMOOTH",
"461 301 OFFCURVE",
"505 265 OFFCURVE",
"505 192 CURVE SMOOTH",
"505 89 OFFCURVE",
"428 36 OFFCURVE",
"300 36 CURVE SMOOTH",
"175 36 OFFCURVE",
"109 77 OFFCURVE",
"108 175 CURVE",
"50 171 LINE",
"50 41 OFFCURVE",
"139 -15 OFFCURVE",
"298 -15 CURVE SMOOTH"
);
}
);
width = 639;
},
{
anchors = (
{
name = bottom;
position = "{343, 0}";
},
{
name = top;
position = "{423, 710}";
}
);
background = {
paths = (
{
closed = 1;
nodes = (
"541 -15 OFFCURVE",
"673 64 OFFCURVE",
"673 241 CURVE SMOOTH",
"673 348 OFFCURVE",
"599 406 OFFCURVE",
"473 429 CURVE SMOOTH",
"392 444 LINE SMOOTH",
"329 456 OFFCURVE",
"306 470 OFFCURVE",
"306 507 CURVE SMOOTH",
"306 553 OFFCURVE",
"352 569 OFFCURVE",
"412 569 CURVE SMOOTH",
"484 569 OFFCURVE",
"520 548 OFFCURVE",
"518 492 CURVE",
"718 492 LINE",
"720 660 OFFCURVE",
"608 725 OFFCURVE",
"422 725 CURVE SMOOTH",
"233 725 OFFCURVE",
"99 652 OFFCURVE",
"99 475 CURVE SMOOTH",
"99 370 OFFCURVE",
"170 303 OFFCURVE",
"292 280 CURVE SMOOTH",
"388 262 LINE SMOOTH",
"438 253 OFFCURVE",
"466 244 OFFCURVE",
"466 206 CURVE SMOOTH",
"466 167 OFFCURVE",
"433 141 OFFCURVE",
"353 141 CURVE SMOOTH",
"273 141 OFFCURVE",
"240 163 OFFCURVE",
"240 218 CURVE",
"39 218 LINE",
"22 44 OFFCURVE",
"143 -15 OFFCURVE",
"343 -15 CURVE SMOOTH"
);
}
);
};
layerId = "C1DA716A-5F29-4CD0-A38F-CCADF5849A80";
paths = (
{
closed = 1;
nodes = (
"541 -15 OFFCURVE",
"673 64 OFFCURVE",
"673 241 CURVE SMOOTH",
"673 348 OFFCURVE",
"599 406 OFFCURVE",
"473 429 CURVE SMOOTH",
"392 444 LINE SMOOTH",
"329 456 OFFCURVE",
"306 470 OFFCURVE",
"306 507 CURVE SMOOTH",
"306 553 OFFCURVE",
"352 569 OFFCURVE",
"412 569 CURVE SMOOTH",
"489 569 OFFCURVE",
"517 540 OFFCURVE",
"518 487 CURVE",
"718 502 LINE",
"715 650 OFFCURVE",
"628 725 OFFCURVE",
"422 725 CURVE SMOOTH",
"233 725 OFFCURVE",
"99 652 OFFCURVE",
"99 475 CURVE SMOOTH",
"99 370 OFFCURVE",
"170 303 OFFCURVE",
"292 280 CURVE SMOOTH",
"388 262 LINE SMOOTH",
"438 253 OFFCURVE",
"466 244 OFFCURVE",
"466 206 CURVE SMOOTH",
"466 167 OFFCURVE",
"433 141 OFFCURVE",
"353 141 CURVE SMOOTH",
"270 141 OFFCURVE",
"245 168 OFFCURVE",
"240 223 CURVE",
"39 208 LINE",
"37 48 OFFCURVE",
"133 -15 OFFCURVE",
"343 -15 CURVE SMOOTH"
);
}
);
width = 731;
},
{
anchors = (
{
name = bottom;
position = "{309, 0}";
},
{
name = top;
position = "{394, 710}";
}
);
layerId = "6641C2CA-B9F9-47EE-AEEC-6BEE387D8CB9";
paths = (
{
closed = 1;
nodes = (
"484 -15 OFFCURVE",
"599 54 OFFCURVE",
"599 211 CURVE SMOOTH",
"599 306 OFFCURVE",
"541 367 OFFCURVE",
"420 392 CURVE SMOOTH",
"341 408 LINE SMOOTH",
"256 425 OFFCURVE",
"225 459 OFFCURVE",
"225 515 CURVE SMOOTH",
"225 597 OFFCURVE",
"288 639 OFFCURVE",
"389 639 CURVE SMOOTH",
"496 639 OFFCURVE",
"540 599 OFFCURVE",
"542 516 CURVE",
"646 523 LINE",
"647 662 OFFCURVE",
"561 725 OFFCURVE",
"395 725 CURVE SMOOTH",
"231 725 OFFCURVE",
"121 650 OFFCURVE",
"121 505 CURVE SMOOTH",
"121 401 OFFCURVE",
"182 345 OFFCURVE",
"296 321 CURVE SMOOTH",
"373 304 LINE SMOOTH",
"457 286 OFFCURVE",
"495 259 OFFCURVE",
"495 197 CURVE SMOOTH",
"495 111 OFFCURVE",
"429 71 OFFCURVE",
"315 71 CURVE SMOOTH",
"205 71 OFFCURVE",
"153 107 OFFCURVE",
"151 191 CURVE",
"47 184 LINE",
"46 43 OFFCURVE",
"139 -15 OFFCURVE",
"309 -15 CURVE SMOOTH"
);
}
);
width = 670;
}
);
unicode = 0053;
userData = {
RMXScaler = {
source = S;
};
};
},
{
color = 7;
glyphname = T;
lastChange = "2018-03-02 13:29:47 +0000";
layers = (
{
anchors = (
{
name = bottom;
position = "{221, 0}";
},
{
name = top;
position = "{342, 710}";
}
);
background = {
paths = (
{
closed = 1;
nodes = (
"15 710 LINE",
"15 660 LINE",
"245 660 LINE",
"245 0 LINE",
"300 0 LINE",
"300 660 LINE",
"530 660 LINE",
"530 710 LINE"
);
}
);
};
layerId = "CC363ACD-D5A5-4E19-A940-9AF36D109D9E";
paths = (
{
closed = 1;
nodes = (
"94 710 LINE",
"85 660 LINE",
"310 660 LINE",
"193 0 LINE",
"248 0 LINE",
"365 660 LINE",
"590 660 LINE",
"599 710 LINE"
);
}
);
width = 535;
},
{
anchors = (
{
name = bottom;
position = "{272, 0}";
},
{
name = top;
position = "{395, 710}";
}
);
background = {
paths = (
{
closed = 1;
nodes = (
"36 710 LINE",
"36 537 LINE",
"241 537 LINE",
"241 0 LINE",
"461 0 LINE",
"461 537 LINE",
"666 537 LINE",
"666 710 LINE"
);
}
);
};
layerId = "C1DA716A-5F29-4CD0-A38F-CCADF5849A80";
paths = (
{
closed = 1;
nodes = (
"84 710 LINE",
"53 537 LINE",
"253 537 LINE",
"158 0 LINE",
"378 0 LINE",
"473 537 LINE",
"673 537 LINE",
"704 710 LINE"
);
}
);
width = 631;
},
{
anchors = (
{
name = bottom;
position = "{243, 0}";
},
{
name = top;
position = "{365, 710}";
}
);
background = {
paths = (
{
closed = 1;
nodes = (
"17 710 LINE",
"17 620 LINE",
"241 620 LINE",
"241 0 LINE",
"346 0 LINE",
"346 620 LINE",
"569 620 LINE",
"569 710 LINE"
);
}
);
};
layerId = "6641C2CA-B9F9-47EE-AEEC-6BEE387D8CB9";
paths = (
{
closed = 1;
nodes = (
"95 710 LINE",
"79 620 LINE",
"297 620 LINE",
"188 0 LINE",
"293 0 LINE",
"402 620 LINE",
"620 620 LINE",
"637 710 LINE"
);
}
);
width = 574;
}
);
unicode = 0054;
userData = {
RMXScaler = {
source = T;
};
};
},
{
color = 7;
glyphname = U;
lastChange = "2018-03-02 13:53:53 +0000";
layers = (
{
anchors = (
{
name = bottom;
position = "{340, 0}";
},
{
name = ogonek;
position = "{417, 0}";
},
{
name = top;
position = "{451, 710}";
}
);
background = {
paths = (
{
closed = 1;
nodes = (
"556 -15 OFFCURVE",
"660 71 OFFCURVE",
"660 262 CURVE SMOOTH",
"660 710 LINE",
"605 710 LINE",
"605 270 LINE SMOOTH",
"605 91 OFFCURVE",
"526 36 OFFCURVE",
"390 36 CURVE SMOOTH",
"254 36 OFFCURVE",
"175 91 OFFCURVE",
"175 270 CURVE SMOOTH",
"175 710 LINE",
"120 710 LINE",
"120 262 LINE SMOOTH",
"120 71 OFFCURVE",
"224 -15 OFFCURVE",
"390 -15 CURVE SMOOTH"
);
}
);
};
layerId = "CC363ACD-D5A5-4E19-A940-9AF36D109D9E";
paths = (
{
closed = 1;
nodes = (
"189 710 LINE",
"117 301 LINE SMOOTH",
"77 76 OFFCURVE",
"181 -15 OFFCURVE",
"347 -15 CURVE SMOOTH",
"500 -15 OFFCURVE",
"605 67 OFFCURVE",
"644 286 CURVE SMOOTH",
"719 710 LINE",
"664 710 LINE",
"591 297 LINE SMOOTH",
"554 90 OFFCURVE",
"470 36 OFFCURVE",
"352 36 CURVE SMOOTH",
"219 36 OFFCURVE",
"134 88 OFFCURVE",
"171 297 CURVE SMOOTH",
"244 710 LINE"
);
}
);
width = 750;
},
{
anchors = (
{
name = bottom;
position = "{346, 0}";
},
{
name = ogonek;
position = "{431, 0}";
},
{
name = top;
position = "{458, 710}";
}
);
background = {
paths = (
{
closed = 1;
nodes = (
"619 -15 OFFCURVE",
"717 84 OFFCURVE",
"717 320 CURVE SMOOTH",
"717 710 LINE",
"497 710 LINE",
"497 315 LINE SMOOTH",
"497 204 OFFCURVE",
"478 155 OFFCURVE",
"389 155 CURVE SMOOTH",
"300 155 OFFCURVE",
"280 204 OFFCURVE",
"280 315 CURVE SMOOTH",
"280 710 LINE",
"60 710 LINE",
"60 320 LINE SMOOTH",
"60 84 OFFCURVE",
"159 -15 OFFCURVE",
"389 -15 CURVE SMOOTH"
);
}
);
};
layerId = "C1DA716A-5F29-4CD0-A38F-CCADF5849A80";
paths = (
{
closed = 1;
nodes = (
"138 710 LINE",
"71 330 LINE SMOOTH",
"31 104 OFFCURVE",
"140 -15 OFFCURVE",
"355 -15 CURVE SMOOTH",
"590 -15 OFFCURVE",
"674 84 OFFCURVE",
"716 320 CURVE SMOOTH",
"785 710 LINE",
"565 710 LINE",
"495 315 LINE SMOOTH",
"476 207 OFFCURVE",
"457 155 OFFCURVE",
"372 155 CURVE SMOOTH",
"289 155 OFFCURVE",
"269 210 OFFCURVE",
"288 315 CURVE SMOOTH",
"358 710 LINE"
);
}
);
width = 767;
},
{
anchors = (
{
name = bottom;
position = "{341, 0}";
},
{
name = ogonek;
position = "{429, 0}";
},
{
name = top;
position = "{457, 710}";
}
);
background = {
paths = (
{
closed = 1;
nodes = (
"568 -15 OFFCURVE",
"671 76 OFFCURVE",
"671 287 CURVE SMOOTH",
"671 710 LINE",
"565 710 LINE",
"565 297 LINE SMOOTH",
"565 131 OFFCURVE",
"503 76 OFFCURVE",
"381 76 CURVE SMOOTH",
"259 76 OFFCURVE",
"197 131 OFFCURVE",
"197 297 CURVE SMOOTH",
"197 710 LINE",
"92 710 LINE",
"92 287 LINE SMOOTH",
"92 76 OFFCURVE",
"194 -15 OFFCURVE",
"381 -15 CURVE SMOOTH"
);
}
);
};
layerId = "6641C2CA-B9F9-47EE-AEEC-6BEE387D8CB9";
paths = (
{
closed = 1;
nodes = (
"175 710 LINE",
"104 311 LINE SMOOTH",
"65 89 OFFCURVE",
"170 -15 OFFCURVE",
"352 -15 CURVE SMOOTH",
"533 -15 OFFCURVE",
"629 65 OFFCURVE",
"671 299 CURVE SMOOTH",
"744 710 LINE",
"639 710 LINE",
"567 310 LINE SMOOTH",
"535 130 OFFCURVE",
"473 76 OFFCURVE",
"357 76 CURVE SMOOTH",
"240 76 OFFCURVE",
"177 130 OFFCURVE",
"208 304 CURVE SMOOTH",
"280 710 LINE"
);
}
);
width = 761;
}
);
unicode = 0055;
userData = {
RMXScaler = {
source = U;
};
};
},
{
color = 7;
glyphname = V;
lastChange = "2018-03-02 13:45:46 +0000";
layers = (
{
background = {
paths = (
{
closed = 1;
nodes = (
"308 69 LINE",
"303 69 LINE",
"63 710 LINE",
"4 710 LINE",
"273 0 LINE",
"335 0 LINE",
"604 710 LINE",
"546 710 LINE"
);
}
);
};
layerId = "CC363ACD-D5A5-4E19-A940-9AF36D109D9E";
paths = (
{
closed = 1;
nodes = (
"270 69 LINE",
"265 69 LINE",
"145 710 LINE",
"89 710 LINE",
"227 0 LINE",
"289 0 LINE",
"679 710 LINE",
"619 710 LINE"
);
}
);
width = 610;
},
{
background = {
paths = (
{
closed = 1;
nodes = (
"382 183 LINE",
"375 183 LINE",
"236 710 LINE",
"6 710 LINE",
"214 0 LINE",
"524 0 LINE",
"732 710 LINE",
"517 710 LINE"
);
}
);
};
layerId = "C1DA716A-5F29-4CD0-A38F-CCADF5849A80";
paths = (
{
closed = 1;
nodes = (
"351 183 LINE",
"344 183 LINE",
"308 710 LINE",
"83 710 LINE",
"160 0 LINE",
"470 0 LINE",
"799 710 LINE",
"579 710 LINE"
);
}
);
width = 726;
},
{
background = {
paths = (
{
closed = 1;
nodes = (
"333 98 LINE",
"326 98 LINE",
"114 710 LINE",
"3 710 LINE",
"256 0 LINE",
"397 0 LINE",
"650 710 LINE",
"541 710 LINE"
);
}
);
};
layerId = "6641C2CA-B9F9-47EE-AEEC-6BEE387D8CB9";
paths = (
{
closed = 1;
nodes = (
"295 98 LINE",
"288 98 LINE",
"192 710 LINE",
"84 710 LINE",
"207 0 LINE",
"348 0 LINE",
"721 710 LINE",
"609 710 LINE"
);
}
);
width = 647;
}
);
unicode = 0056;
userData = {
RMXScaler = {
source = V;
};
};
},
{
color = 7;
glyphname = W;
lastChange = "2018-03-02 23:40:28 +0000";
layers = (
{
anchors = (
{
name = top;
position = "{553, 710}";
}
);
background = {
paths = (
{
closed = 1;
nodes = (
"692 66 LINE",
"688 66 LINE",
"503 710 LINE",
"436 710 LINE",
"254 66 LINE",
"250 66 LINE",
"64 710 LINE",
"5 710 LINE",
"214 0 LINE",
"285 0 LINE",
"466 635 LINE",
"470 635 LINE",
"652 0 LINE",
"723 0 LINE",
"932 710 LINE",
"875 710 LINE"
);
}
);
};
layerId = "CC363ACD-D5A5-4E19-A940-9AF36D109D9E";
paths = (
{
closed = 1;
nodes = (
"652 66 LINE",
"648 66 LINE",
"585 710 LINE",
"518 710 LINE",
"227 66 LINE",
"223 66 LINE",
"151 710 LINE",
"94 710 LINE",
"179 0 LINE",
"250 0 LINE",
"537 635 LINE",
"541 635 LINE",
"603 0 LINE",
"674 0 LINE",
"1011 710 LINE",
"952 710 LINE"
);
}
);
width = 947;
},
{
anchors = (
{
name = top;
position = "{637, 710}";
}
);
background = {
paths = (
{
closed = 1;
nodes = (
"865 203 LINE",
"855 203 LINE",
"760 710 LINE",
"484 710 LINE",
"387 203 LINE",
"377 203 LINE",
"286 710 LINE",
"50 710 LINE",
"220 0 LINE",
"512 0 LINE",
"601 487 LINE",
"607 487 LINE",
"697 0 LINE",
"989 0 LINE",
"1159 710 LINE",
"958 710 LINE"
);
}
);
};
layerId = "C1DA716A-5F29-4CD0-A38F-CCADF5849A80";
paths = (
{
closed = 1;
nodes = (
"787 203 LINE",
"777 203 LINE",
"784 710 LINE",
"507 710 LINE",
"327 203 LINE",
"317 203 LINE",
"314 710 LINE",
"83 710 LINE",
"135 0 LINE",
"422 0 LINE",
"595 487 LINE",
"601 487 LINE",
"591 0 LINE",
"878 0 LINE",
"1182 710 LINE",
"977 710 LINE"
);
}
);
width = 1109;
},
{
anchors = (
{
name = top;
position = "{576, 710}";
}
);
background = {
paths = (
{
closed = 1;
nodes = (
"730 98 LINE",
"724 98 LINE",
"569 710 LINE",
"438 710 LINE",
"289 98 LINE",
"282 98 LINE",
"124 710 LINE",
"13 710 LINE",
"210 0 LINE",
"353 0 LINE",
"498 597 LINE",
"503 597 LINE",
"649 0 LINE",
"792 0 LINE",
"989 710 LINE",
"884 710 LINE"
);
}
);
};
layerId = "6641C2CA-B9F9-47EE-AEEC-6BEE387D8CB9";
paths = (
{
closed = 1;
nodes = (
"694 98 LINE",
"688 98 LINE",
"642 710 LINE",
"511 710 LINE",
"255 98 LINE",
"249 98 LINE",
"201 710 LINE",
"94 710 LINE",
"161 0 LINE",
"304 0 LINE",
"552 597 LINE",
"557 597 LINE",
"598 0 LINE",
"741 0 LINE",
"1060 710 LINE",
"952 710 LINE"
);
}
);
width = 996;
}
);
unicode = 0057;
userData = {
RMXScaler = {
source = W;
};
};
},
{
color = 7;
glyphname = X;
lastChange = "2018-03-05 16:02:29 +0000";
layers = (
{
background = {
paths = (
{
closed = 1;
nodes = (
"84 0 LINE",
"301 315 LINE",
"315 315 LINE",
"586 710 LINE",
"526 710 LINE",
"313 397 LINE",
"299 397 LINE",
"24 0 LINE"
);
},
{
closed = 1;
nodes = (
"589 0 LINE",
"332 364 LINE",
"319 383 LINE",
"88 710 LINE",
"27 710 LINE",
"279 352 LINE",
"293 333 LINE",
"528 0 LINE"
);
}
);
};
guideLines = (
{
angle = 80;
position = "{54, 366}";
},
{
angle = 80;
position = "{607, 366}";
}
);
layerId = "CC363ACD-D5A5-4E19-A940-9AF36D109D9E";
paths = (
{
closed = 1;
nodes = (
"55 0 LINE",
"320 316 LINE",
"330 316 LINE",
"665 710 LINE",
"599 710 LINE",
"339 400 LINE",
"329 400 LINE",
"-11 0 LINE"
);
},
{
closed = 1;
nodes = (
"543 0 LINE",
"353 367 LINE",
"343 387 LINE",
"176 710 LINE",
"118 710 LINE",
"302 354 LINE",
"313 333 LINE",
"485 0 LINE"
);
}
);
width = 624;
},
{
background = {
paths = (
{
closed = 1;
nodes = (
"216 0 LINE",
"390 331 LINE",
"483 331 LINE",
"701 710 LINE",
"486 710 LINE",
"319 394 LINE",
"225 394 LINE",
"2 0 LINE"
);
},
{
closed = 1;
nodes = (
"704 0 LINE",
"439 481 LINE",
"358 481 LINE",
"235 710 LINE",
"5 710 LINE",
"265 232 LINE",
"346 232 LINE",
"474 0 LINE"
);
}
);
};
guideLines = (
{
angle = 80;
position = "{23, 366}";
},
{
angle = 80;
position = "{713, 356}";
}
);
layerId = "C1DA716A-5F29-4CD0-A38F-CCADF5849A80";
paths = (
{
closed = 1;
nodes = (
"178 0 LINE",
"412 331 LINE",
"499 331 LINE",
"772 710 LINE",
"552 710 LINE",
"334 394 LINE",
"247 394 LINE",
"-42 0 LINE"
);
},
{
closed = 1;
nodes = (
"650 0 LINE",
"473 481 LINE",
"387 481 LINE",
"312 710 LINE",
"87 710 LINE",
"264 232 LINE",
"350 232 LINE",
"425 0 LINE"
);
}
);
width = 702;
},
{
background = {
paths = (
{
closed = 1;
nodes = (
"131 0 LINE",
"322 283 LINE",
"356 283 LINE",
"639 710 LINE",
"530 710 LINE",
"344 429 LINE",
"310 429 LINE",
"22 0 LINE"
);
},
{
closed = 1;
nodes = (
"642 0 LINE",
"382 369 LINE",
"354 409 LINE",
"141 710 LINE",
"25 710 LINE",
"278 351 LINE",
"310 306 LINE",
"526 0 LINE"
);
}
);
};
guideLines = (
{
angle = 80;
position = "{43, 366}";
},
{
angle = 80;
position = "{653, 366}";
}
);
layerId = "6641C2CA-B9F9-47EE-AEEC-6BEE387D8CB9";
paths = (
{
closed = 1;
nodes = (
"95 0 LINE",
"324 280 LINE",
"350 280 LINE",
"710 710 LINE",
"593 710 LINE",
"365 442 LINE",
"339 442 LINE",
"-22 0 LINE"
);
},
{
closed = 1;
nodes = (
"588 0 LINE",
"390 381 LINE",
"370 419 LINE",
"219 710 LINE",
"107 710 LINE",
"292 355 LINE",
"316 309 LINE",
"477 0 LINE"
);
}
);
width = 660;
}
);
unicode = 0058;
userData = {
RMXScaler = {
source = X;
};
};
},
{
color = 7;
glyphname = Y;
lastChange = "2018-03-02 15:00:35 +0000";
layers = (
{
anchors = (
{
name = bottom;
position = "{265, 0}";
},
{
name = top;
position = "{381, 710}";
}
);
background = {
paths = (
{
closed = 1;
nodes = (
"549 710 LINE",
"306 319 LINE",
"303 319 LINE",
"55 710 LINE",
"-6 710 LINE",
"274 264 LINE",
"274 0 LINE",
"328 0 LINE",
"328 264 LINE",
"608 710 LINE"
);
}
);
};
layerId = "CC363ACD-D5A5-4E19-A940-9AF36D109D9E";
paths = (
{
closed = 1;
nodes = (
"619 710 LINE",
"312 319 LINE",
"308 319 LINE",
"135 710 LINE",
"79 710 LINE",
"275 265 LINE",
"228 0 LINE",
"282 0 LINE",
"329 265 LINE",
"683 710 LINE"
);
}
);
width = 604;
},
{
anchors = (
{
name = bottom;
position = "{327, 0}";
},
{
name = top;
position = "{444, 710}";
}
);
background = {
paths = (
{
closed = 1;
nodes = (
"531 710 LINE",
"385 451 LINE",
"378 451 LINE",
"227 710 LINE",
"-5 710 LINE",
"258 266 LINE",
"258 0 LINE",
"477 0 LINE",
"477 266 LINE",
"740 710 LINE"
);
}
);
};
layerId = "C1DA716A-5F29-4CD0-A38F-CCADF5849A80";
paths = (
{
closed = 1;
nodes = (
"599 710 LINE",
"406 451 LINE",
"398 451 LINE",
"300 710 LINE",
"78 710 LINE",
"256 263 LINE",
"209 0 LINE",
"428 0 LINE",
"475 263 LINE",
"813 710 LINE"
);
}
);
width = 735;
},
{
anchors = (
{
name = bottom;
position = "{284, 0}";
},
{
name = top;
position = "{400, 710}";
}
);
background = {
paths = (
{
closed = 1;
nodes = (
"536 710 LINE",
"327 359 LINE",
"323 359 LINE",
"106 710 LINE",
"-9 710 LINE",
"266 260 LINE",
"266 0 LINE",
"370 0 LINE",
"370 260 LINE",
"645 710 LINE"
);
}
);
};
layerId = "6641C2CA-B9F9-47EE-AEEC-6BEE387D8CB9";
paths = (
{
closed = 1;
nodes = (
"609 710 LINE",
"339 359 LINE",
"335 359 LINE",
"189 710 LINE",
"79 710 LINE",
"269 261 LINE",
"223 0 LINE",
"328 0 LINE",
"375 261 LINE",
"723 710 LINE"
);
}
);
width = 644;
}
);
unicode = 0059;
userData = {
RMXScaler = {
source = Y;
};
};
},
{
color = 7;
glyphname = Z;
lastChange = "2018-03-02 13:35:51 +0000";
layers = (
{
anchors = (
{
name = top;
position = "{381, 710}";
}
);
background = {
paths = (
{
closed = 1;
nodes = (
"109 54 LINE",
"521 665 LINE",
"521 710 LINE",
"51 710 LINE",
"51 660 LINE",
"452 660 LINE",
"452 656 LINE",
"40 45 LINE",
"40 0 LINE",
"521 0 LINE",
"521 50 LINE",
"109 50 LINE"
);
}
);
};
layerId = "CC363ACD-D5A5-4E19-A940-9AF36D109D9E";
paths = (
{
closed = 1;
nodes = (
"102 54 LINE",
"609 665 LINE",
"616 710 LINE",
"156 710 LINE",
"148 660 LINE",
"534 660 LINE",
"534 656 LINE",
"27 45 LINE",
"20 0 LINE",
"491 0 LINE",
"500 50 LINE",
"102 50 LINE"
);
}
);
width = 603;
},
{
anchors = (
{
name = top;
position = "{433, 710}";
}
);
background = {
paths = (
{
closed = 1;
nodes = (
"328 180 LINE",
"656 543 LINE",
"656 710 LINE",
"65 710 LINE",
"65 537 LINE",
"382 537 LINE",
"382 530 LINE",
"54 168 LINE",
"54 0 LINE",
"656 0 LINE",
"656 173 LINE",
"328 173 LINE"
);
}
);
};
layerId = "C1DA716A-5F29-4CD0-A38F-CCADF5849A80";
paths = (
{
closed = 1;
nodes = (
"319 180 LINE",
"699 542 LINE",
"727 710 LINE",
"146 710 LINE",
"115 537 LINE",
"418 537 LINE",
"417 530 LINE",
"37 168 LINE",
"10 0 LINE",
"602 0 LINE",
"632 173 LINE",
"318 173 LINE"
);
}
);
width = 706;
},
{
anchors = (
{
name = top;
position = "{399, 710}";
}
);
background = {
paths = (
{
closed = 1;
nodes = (
"189 95 LINE",
"582 625 LINE",
"582 710 LINE",
"75 710 LINE",
"75 620 LINE",
"457 620 LINE",
"457 615 LINE",
"64 85 LINE",
"64 0 LINE",
"582 0 LINE",
"582 90 LINE",
"189 90 LINE"
);
}
);
};
layerId = "6641C2CA-B9F9-47EE-AEEC-6BEE387D8CB9";
paths = (
{
closed = 1;
nodes = (
"167 95 LINE",
"634 625 LINE",
"649 710 LINE",
"152 710 LINE",
"136 620 LINE",
"501 620 LINE",
"500 615 LINE",
"33 85 LINE",
"18 0 LINE",
"525 0 LINE",
"542 90 LINE",
"166 90 LINE"
);
}
);
width = 638;
}
);
unicode = 005A;
userData = {
RMXScaler = {
source = Z;
};
};
},
{
color = 4;
glyphname = a;
lastChange = "2018-03-02 10:50:24 +0000";
layers = (
{
anchors = (
{
name = ogonek;
position = "{457, 0}";
},
{
name = top;
position = "{358, 525}";
}
);
associatedMasterId = "CC363ACD-D5A5-4E19-A940-9AF36D109D9E";
background = {
anchors = (
{
name = ogonek;
position = "{509, 0}";
},
{
name = top;
position = "{312, 525}";
}
);
paths = (
{
closed = 1;
nodes = (
"419 314 LINE",
"240 301 LINE SMOOTH",
"98 291 OFFCURVE",
"32 235 OFFCURVE",
"32 132 CURVE SMOOTH",
"32 51 OFFCURVE",
"83 -13 OFFCURVE",
"210 -13 CURVE SMOOTH",
"285 -13 OFFCURVE",
"346 23 OFFCURVE",
"369 79 CURVE",
"356 72 LINE",
"383 72 LINE",
"372 81 LINE",
"374 0 LINE",
"485 0 LINE",
"535 316 LINE SMOOTH",
"539 342 OFFCURVE",
"541 360 OFFCURVE",
"541 382 CURVE SMOOTH",
"541 496 OFFCURVE",
"463 540 OFFCURVE",
"333 540 CURVE SMOOTH",
"188 540 OFFCURVE",
"117 476 OFFCURVE",
"85 360 CURVE",
"227 360 LINE",
"243 411 OFFCURVE",
"267 432 OFFCURVE",
"332 432 CURVE SMOOTH",
"383 432 OFFCURVE",
"408 413 OFFCURVE",
"408 372 CURVE SMOOTH",
"408 361 OFFCURVE",
"406 347 OFFCURVE",
"404 334 CURVE SMOOTH",
"382 194 LINE SMOOTH",
"372 129 OFFCURVE",
"324 89 OFFCURVE",
"254 89 CURVE SMOOTH",
"201 89 OFFCURVE",
"174 109 OFFCURVE",
"174 148 CURVE SMOOTH",
"174 187 OFFCURVE",
"201 211 OFFCURVE",
"248 215 CURVE SMOOTH",
"405 228 LINE"
);
}
);
};
layerId = "50DF258C-215D-4CC1-BFC7-39FCC540560D";
name = "Aug 30 17, 11:22";
paths = (
{
closed = 1;
nodes = (
"416 320 LINE",
"240 300 LINE SMOOTH",
"87 282 OFFCURVE",
"31 225 OFFCURVE",
"31 113 CURVE SMOOTH",
"31 38 OFFCURVE",
"78 -13 OFFCURVE",
"184 -13 CURVE SMOOTH",
"267 -13 OFFCURVE",
"331 17 OFFCURVE",
"358 79 CURVE",
"344 72 LINE",
"372 72 LINE",
"361 81 LINE",
"362 0 LINE",
"477 0 LINE",
"539 354 LINE SMOOTH",
"561 481 OFFCURVE",
"496 540 OFFCURVE",
"359 540 CURVE SMOOTH",
"207 540 OFFCURVE",
"132 479 OFFCURVE",
"97 360 CURVE",
"238 360 LINE",
"254 411 OFFCURVE",
"277 432 OFFCURVE",
"337 432 CURVE SMOOTH",
"397 432 OFFCURVE",
"414 403 OFFCURVE",
"403 342 CURVE SMOOTH",
"379 208 LINE SMOOTH",
"367 142 OFFCURVE",
"329 89 OFFCURVE",
"247 89 CURVE SMOOTH",
"193 89 OFFCURVE",
"174 109 OFFCURVE",
"174 140 CURVE SMOOTH",
"174 180 OFFCURVE",
"197 207 OFFCURVE",
"249 214 CURVE SMOOTH",
"401 234 LINE"
);
}
);
width = 601;
},
{
anchors = (
{
name = bottom;
position = "{260, 0}";
},
{
name = ogonek;
position = "{419, 0}";
},
{
name = top;
position = "{333, 515}";
}
);
background = {
paths = (
{
closed = 1;
nodes = (
"314 -15 OFFCURVE",
"374 35 OFFCURVE",
"407 94 CURVE",
"393 87 LINE",
"412 87 LINE",
"407 101 LINE",
"393 0 LINE",
"437 0 LINE",
"493 321 LINE SMOOTH",
"496 340 OFFCURVE",
"498 358 OFFCURVE",
"498 374 CURVE SMOOTH",
"498 470 OFFCURVE",
"445 530 OFFCURVE",
"321 530 CURVE SMOOTH",
"192 530 OFFCURVE",
"138 471 OFFCURVE",
"110 370 CURVE",
"165 370 LINE",
"187 446 OFFCURVE",
"224 484 OFFCURVE",
"319 484 CURVE SMOOTH",
"416 484 OFFCURVE",
"448 443 OFFCURVE",
"447 374 CURVE SMOOTH",
"447 358 OFFCURVE",
"445 341 OFFCURVE",
"442 323 CURVE SMOOTH",
"419 194 LINE SMOOTH",
"402 96 OFFCURVE",
"322 30 OFFCURVE",
"224 30 CURVE SMOOTH",
"152 30 OFFCURVE",
"110 60 OFFCURVE",
"110 122 CURVE SMOOTH",
"110 198 OFFCURVE",
"160 228 OFFCURVE",
"250 237 CURVE SMOOTH",
"446 255 LINE",
"452 298 LINE",
"251 281 LINE SMOOTH",
"127 270 OFFCURVE",
"55 227 OFFCURVE",
"55 120 CURVE SMOOTH",
"55 32 OFFCURVE",
"124 -15 OFFCURVE",
"217 -15 CURVE SMOOTH"
);
}
);
};
layerId = "CC363ACD-D5A5-4E19-A940-9AF36D109D9E";
paths = (
{
closed = 1;
nodes = (
"314 -15 OFFCURVE",
"374 35 OFFCURVE",
"407 94 CURVE",
"393 87 LINE",
"412 87 LINE",
"407 101 LINE",
"393 0 LINE",
"437 0 LINE",
"493 321 LINE SMOOTH",
"496 340 OFFCURVE",
"498 358 OFFCURVE",
"498 374 CURVE SMOOTH",
"498 470 OFFCURVE",
"445 530 OFFCURVE",
"321 530 CURVE SMOOTH",
"192 530 OFFCURVE",
"139 471 OFFCURVE",
"111 375 CURVE",
"165 370 LINE",
"187 446 OFFCURVE",
"224 484 OFFCURVE",
"319 484 CURVE SMOOTH",
"416 484 OFFCURVE",
"448 443 OFFCURVE",
"447 374 CURVE SMOOTH",
"447 358 OFFCURVE",
"445 341 OFFCURVE",
"442 323 CURVE SMOOTH",
"419 194 LINE SMOOTH",
"402 96 OFFCURVE",
"322 30 OFFCURVE",
"224 30 CURVE SMOOTH",
"152 30 OFFCURVE",
"110 60 OFFCURVE",
"110 122 CURVE SMOOTH",
"110 198 OFFCURVE",
"160 228 OFFCURVE",
"250 237 CURVE SMOOTH",
"446 255 LINE",
"452 298 LINE",
"251 281 LINE SMOOTH",
"127 270 OFFCURVE",
"55 227 OFFCURVE",
"55 120 CURVE SMOOTH",
"55 32 OFFCURVE",
"124 -15 OFFCURVE",
"217 -15 CURVE SMOOTH"
);
}
);
width = 579;
},
{
anchors = (
{
name = bottom;
position = "{300, 0}";
},
{
name = ogonek;
position = "{493, 0}";
},
{
name = top;
position = "{371, 535}";
}
);
background = {
paths = (
{
closed = 1;
nodes = (
"410 329 LINE",
"204 306 LINE SMOOTH",
"78 292 OFFCURVE",
"29 232 OFFCURVE",
"29 145 CURVE SMOOTH",
"29 42 OFFCURVE",
"98 -13 OFFCURVE",
"223 -13 CURVE SMOOTH",
"305 -13 OFFCURVE",
"357 15 OFFCURVE",
"383 72 CURVE",
"349 68 LINE",
"407 68 LINE",
"385 84 LINE",
"405 0 LINE",
"576 0 LINE",
"576 339 LINE SMOOTH",
"576 485 OFFCURVE",
"488 550 OFFCURVE",
"322 550 CURVE SMOOTH",
"135 550 OFFCURVE",
"73 483 OFFCURVE",
"52 370 CURVE",
"243 350 LINE",
"251 392 OFFCURVE",
"268 407 OFFCURVE",
"315 407 CURVE SMOOTH",
"362 407 OFFCURVE",
"380 387 OFFCURVE",
"380 340 CURVE SMOOTH",
"380 190 LINE SMOOTH",
"380 145 OFFCURVE",
"350 114 OFFCURVE",
"293 114 CURVE SMOOTH",
"251 114 OFFCURVE",
"231 129 OFFCURVE",
"231 161 CURVE SMOOTH",
"231 190 OFFCURVE",
"247 206 OFFCURVE",
"290 211 CURVE SMOOTH",
"408 225 LINE"
);
}
);
};
guideLines = (
{
angle = 80.1186;
position = "{395, 327}";
}
);
layerId = "C1DA716A-5F29-4CD0-A38F-CCADF5849A80";
paths = (
{
closed = 1;
nodes = (
"280 -13 OFFCURVE",
"325 18 OFFCURVE",
"358 75 CURVE",
"331 68 LINE",
"378 68 LINE",
"360 84 LINE",
"366 0 LINE",
"533 0 LINE",
"587 310 LINE SMOOTH",
"591 332 OFFCURVE",
"592 355 OFFCURVE",
"592 371 CURVE SMOOTH",
"592 487 OFFCURVE",
"499 550 OFFCURVE",
"352 550 CURVE SMOOTH",
"175 550 OFFCURVE",
"102 499 OFFCURVE",
"79 375 CURVE",
"268 350 LINE",
"276 391 OFFCURVE",
"295 407 OFFCURVE",
"336 407 CURVE SMOOTH",
"380 407 OFFCURVE",
"399 391 OFFCURVE",
"399 361 CURVE SMOOTH",
"399 351 OFFCURVE",
"397 338 OFFCURVE",
"395 327 CURVE SMOOTH",
"370 185 LINE SMOOTH",
"361 132 OFFCURVE",
"334 111 OFFCURVE",
"286 111 CURVE SMOOTH",
"246 111 OFFCURVE",
"225 128 OFFCURVE",
"225 159 CURVE SMOOTH",
"225 194 OFFCURVE",
"254 212 OFFCURVE",
"299 215 CURVE SMOOTH",
"410 223 LINE",
"424 323 LINE",
"230 309 LINE SMOOTH",
"94 299 OFFCURVE",
"28 238 OFFCURVE",
"28 135 CURVE SMOOTH",
"28 41 OFFCURVE",
"100 -13 OFFCURVE",
"196 -13 CURVE SMOOTH"
);
}
);
width = 636;
},
{
anchors = (
{
name = ogonek;
position = "{502, 0}";
},
{
name = top;
position = "{391, 535}";
}
);
associatedMasterId = "C1DA716A-5F29-4CD0-A38F-CCADF5849A80";
layerId = "78F4CA00-5BF0-4446-8E2B-D14509F47C7F";
name = "Oct 4 17, 18:09";
paths = (
{
closed = 1;
nodes = (
"267 -13 OFFCURVE",
"327 18 OFFCURVE",
"364 75 CURVE",
"337 68 LINE",
"384 68 LINE",
"366 84 LINE",
"373 0 LINE",
"543 0 LINE",
"597 310 LINE SMOOTH",
"601 332 OFFCURVE",
"602 355 OFFCURVE",
"602 371 CURVE SMOOTH",
"602 487 OFFCURVE",
"519 550 OFFCURVE",
"369 550 CURVE SMOOTH",
"191 550 OFFCURVE",
"119 474 OFFCURVE",
"93 350 CURVE",
"282 350 LINE",
"293 390 OFFCURVE",
"309 407 OFFCURVE",
"354 407 CURVE SMOOTH",
"391 407 OFFCURVE",
"409 390 OFFCURVE",
"409 358 CURVE SMOOTH",
"409 351 OFFCURVE",
"407 338 OFFCURVE",
"405 327 CURVE SMOOTH",
"381 197 LINE SMOOTH",
"369 132 OFFCURVE",
"333 114 OFFCURVE",
"282 114 CURVE SMOOTH",
"253 114 OFFCURVE",
"232 129 OFFCURVE",
"232 155 CURVE SMOOTH",
"232 192 OFFCURVE",
"261 208 OFFCURVE",
"307 213 CURVE SMOOTH",
"414 225 LINE",
"435 329 LINE",
"228 303 LINE SMOOTH",
"109 288 OFFCURVE",
"33 238 OFFCURVE",
"33 125 CURVE SMOOTH",
"33 39 OFFCURVE",
"93 -13 OFFCURVE",
"194 -13 CURVE SMOOTH"
);
}
);
width = 647;
},
{
anchors = (
{
name = bottom;
position = "{270, 0}";
},
{
name = ogonek;
position = "{432, 0}";
},
{
name = top;
position = "{341, 520}";
}
);
layerId = "6641C2CA-B9F9-47EE-AEEC-6BEE387D8CB9";
paths = (
{
closed = 1;
nodes = (
"302 -14 OFFCURVE",
"359 29 OFFCURVE",
"386 86 CURVE",
"373 79 LINE",
"396 79 LINE",
"388 90 LINE",
"382 0 LINE",
"462 0 LINE",
"514 316 LINE SMOOTH",
"518 338 OFFCURVE",
"519 359 OFFCURVE",
"519 379 CURVE SMOOTH",
"519 483 OFFCURVE",
"447 535 OFFCURVE",
"327 535 CURVE SMOOTH",
"186 535 OFFCURVE",
"132 482 OFFCURVE",
"103 375 CURVE",
"200 365 LINE",
"218 427 OFFCURVE",
"246 456 OFFCURVE",
"321 456 CURVE SMOOTH",
"396 456 OFFCURVE",
"426 426 OFFCURVE",
"425 371 CURVE SMOOTH",
"425 358 OFFCURVE",
"424 344 OFFCURVE",
"421 329 CURVE SMOOTH",
"399 194 LINE SMOOTH",
"386 113 OFFCURVE",
"324 61 OFFCURVE",
"241 61 CURVE SMOOTH",
"181 61 OFFCURVE",
"147 86 OFFCURVE",
"147 136 CURVE SMOOTH",
"147 192 OFFCURVE",
"185 219 OFFCURVE",
"253 225 CURVE SMOOTH",
"424 241 LINE",
"434 306 LINE",
"246 292 LINE SMOOTH",
"114 281 OFFCURVE",
"46 234 OFFCURVE",
"46 126 CURVE SMOOTH",
"46 42 OFFCURVE",
"106 -14 OFFCURVE",
"218 -14 CURVE SMOOTH"
);
}
);
width = 593;
}
);
rightMetricsKey = n;
unicode = 0061;
userData = {
RMXScaler = {
source = a;
};
};
},
{
color = 4;
glyphname = b;
lastChange = "2018-03-02 10:50:24 +0000";
layers = (
{
associatedMasterId = "CC363ACD-D5A5-4E19-A940-9AF36D109D9E";
background = {
paths = (
{
closed = 1;
nodes = (
"83 750 LINE",
"83 0 LINE",
"206 0 LINE",
"221 85 LINE",
"228 85 LINE",
"259 19 OFFCURVE",
"315 -14 OFFCURVE",
"389 -14 CURVE SMOOTH",
"532 -14 OFFCURVE",
"618 90 OFFCURVE",
"618 263 CURVE SMOOTH",
"618 436 OFFCURVE",
"532 540 OFFCURVE",
"389 540 CURVE SMOOTH",
"315 540 OFFCURVE",
"259 508 OFFCURVE",
"228 446 CURVE",
"223 446 LINE",
"223 750 LINE"
);
},
{
closed = 1;
nodes = (
"266 106 OFFCURVE",
"223 161 OFFCURVE",
"223 263 CURVE SMOOTH",
"223 365 OFFCURVE",
"266 420 OFFCURVE",
"347 420 CURVE SMOOTH",
"432 420 OFFCURVE",
"473 370 OFFCURVE",
"473 263 CURVE SMOOTH",
"473 156 OFFCURVE",
"432 106 OFFCURVE",
"347 106 CURVE SMOOTH"
);
}
);
};
layerId = "84435905-EDCB-4949-A8A3-0E53308A2F50";
paths = (
{
closed = 1;
nodes = (
"64 750 LINE",
"64 0 LINE",
"245 0 LINE",
"262 81 LINE",
"275 81 LINE",
"296 33 OFFCURVE",
"350 -14 OFFCURVE",
"436 -14 CURVE SMOOTH",
"573 -14 OFFCURVE",
"653 93 OFFCURVE",
"653 267 CURVE SMOOTH",
"653 442 OFFCURVE",
"573 550 OFFCURVE",
"436 550 CURVE SMOOTH",
"350 550 OFFCURVE",
"296 503 OFFCURVE",
"275 455 CURVE",
"269 455 LINE",
"269 750 LINE"
);
},
{
closed = 1;
nodes = (
"299 151 OFFCURVE",
"269 190 OFFCURVE",
"269 267 CURVE SMOOTH",
"269 345 OFFCURVE",
"299 384 OFFCURVE",
"356 384 CURVE SMOOTH",
"417 384 OFFCURVE",
"443 346 OFFCURVE",
"443 267 CURVE SMOOTH",
"443 189 OFFCURVE",
"417 151 OFFCURVE",
"356 151 CURVE SMOOTH"
);
}
);
userData = {
RMXScaler = {
height = 100.10000;
};
};
width = 689;
},
{
associatedMasterId = "CC363ACD-D5A5-4E19-A940-9AF36D109D9E";
background = {
paths = (
{
closed = 1;
nodes = (
"107 750 LINE",
"107 0 LINE",
"148 0 LINE",
"162 101 LINE",
"166 101 LINE",
"192 48 OFFCURVE",
"243 -15 OFFCURVE",
"345 -15 CURVE SMOOTH",
"492 -15 OFFCURVE",
"574 86 OFFCURVE",
"574 257 CURVE SMOOTH",
"574 426 OFFCURVE",
"487 530 OFFCURVE",
"345 530 CURVE SMOOTH",
"262 530 OFFCURVE",
"204 496 OFFCURVE",
"167 425 CURVE",
"162 425 LINE",
"162 750 LINE"
);
},
{
closed = 1;
nodes = (
"223 32 OFFCURVE",
"157 149 OFFCURVE",
"157 257 CURVE SMOOTH",
"157 381 OFFCURVE",
"223 483 OFFCURVE",
"343 483 CURVE SMOOTH",
"456 483 OFFCURVE",
"518 402 OFFCURVE",
"518 257 CURVE SMOOTH",
"518 112 OFFCURVE",
"462 32 OFFCURVE",
"343 32 CURVE SMOOTH"
);
}
);
};
layerId = "0A1AFE58-107D-4787-BDA0-D82FB635C3A6";
paths = (
{
closed = 1;
nodes = (
"107 750 LINE",
"107 0 LINE",
"148 0 LINE",
"162 101 LINE",
"166 101 LINE",
"192 48 OFFCURVE",
"243 -15 OFFCURVE",
"345 -15 CURVE SMOOTH",
"492 -15 OFFCURVE",
"574 86 OFFCURVE",
"574 257 CURVE SMOOTH",
"574 426 OFFCURVE",
"487 530 OFFCURVE",
"345 530 CURVE SMOOTH",
"262 530 OFFCURVE",
"204 496 OFFCURVE",
"167 425 CURVE",
"162 425 LINE",
"162 750 LINE"
);
},
{
closed = 1;
nodes = (
"223 32 OFFCURVE",
"157 149 OFFCURVE",
"157 257 CURVE SMOOTH",
"157 381 OFFCURVE",
"223 483 OFFCURVE",
"343 483 CURVE SMOOTH",
"456 483 OFFCURVE",
"518 402 OFFCURVE",
"518 257 CURVE SMOOTH",
"518 112 OFFCURVE",
"462 32 OFFCURVE",
"343 32 CURVE SMOOTH"
);
}
);
width = 641;
},
{
background = {
paths = (
{
closed = 1;
nodes = (
"194 750 LINE",
"62 0 LINE",
"104 0 LINE",
"135 103 LINE",
"139 103 LINE",
"157 50 OFFCURVE",
"204 -15 OFFCURVE",
"301 -15 CURVE SMOOTH",
"454 -15 OFFCURVE",
"561 137 OFFCURVE",
"561 320 CURVE SMOOTH",
"561 445 OFFCURVE",
"496 530 OFFCURVE",
"381 530 CURVE SMOOTH",
"304 530 OFFCURVE",
"244 498 OFFCURVE",
"197 427 CURVE",
"192 427 LINE",
"249 750 LINE"
);
},
{
closed = 1;
nodes = (
"206 32 OFFCURVE",
"154 123 OFFCURVE",
"154 212 CURVE SMOOTH",
"154 346 OFFCURVE",
"243 483 OFFCURVE",
"377 483 CURVE SMOOTH",
"462 483 OFFCURVE",
"506 416 OFFCURVE",
"506 320 CURVE SMOOTH",
"506 170 OFFCURVE",
"426 32 OFFCURVE",
"300 32 CURVE SMOOTH"
);
},
{
closed = 1;
nodes = (
"-493 750 LINE",
"-493 0 LINE",
"-452 0 LINE",
"-438 101 LINE",
"-434 101 LINE",
"-408 48 OFFCURVE",
"-357 -15 OFFCURVE",
"-255 -15 CURVE SMOOTH",
"-108 -15 OFFCURVE",
"-26 86 OFFCURVE",
"-26 257 CURVE SMOOTH",
"-26 426 OFFCURVE",
"-113 530 OFFCURVE",
"-255 530 CURVE SMOOTH",
"-338 530 OFFCURVE",
"-396 496 OFFCURVE",
"-433 425 CURVE",
"-438 425 LINE",
"-438 750 LINE"
);
},
{
closed = 1;
nodes = (
"-377 32 OFFCURVE",
"-443 149 OFFCURVE",
"-443 257 CURVE SMOOTH",
"-443 381 OFFCURVE",
"-377 483 OFFCURVE",
"-257 483 CURVE SMOOTH",
"-144 483 OFFCURVE",
"-82 402 OFFCURVE",
"-82 257 CURVE SMOOTH",
"-82 112 OFFCURVE",
"-138 32 OFFCURVE",
"-257 32 CURVE SMOOTH"
);
}
);
};
layerId = "CC363ACD-D5A5-4E19-A940-9AF36D109D9E";
paths = (
{
closed = 1;
nodes = (
"194 750 LINE",
"62 0 LINE",
"104 0 LINE",
"135 103 LINE",
"139 103 LINE",
"157 50 OFFCURVE",
"198 -15 OFFCURVE",
"305 -15 CURVE SMOOTH",
"466 -15 OFFCURVE",
"561 137 OFFCURVE",
"561 320 CURVE SMOOTH",
"561 446 OFFCURVE",
"497 530 OFFCURVE",
"377 530 CURVE SMOOTH",
"283 530 OFFCURVE",
"228 483 OFFCURVE",
"197 427 CURVE",
"192 427 LINE",
"249 750 LINE"
);
},
{
closed = 1;
nodes = (
"196 32 OFFCURVE",
"154 113 OFFCURVE",
"154 212 CURVE SMOOTH",
"154 336 OFFCURVE",
"223 483 OFFCURVE",
"367 483 CURVE SMOOTH",
"462 483 OFFCURVE",
"506 426 OFFCURVE",
"506 320 CURVE SMOOTH",
"506 167 OFFCURVE",
"436 32 OFFCURVE",
"300 32 CURVE SMOOTH"
);
}
);
width = 623;
},
{
background = {
paths = (
{
closed = 1;
nodes = (
"149 750 LINE",
"17 0 LINE",
"199 0 LINE",
"230 81 LINE",
"242 81 LINE",
"268 28 OFFCURVE",
"308 -14 OFFCURVE",
"393 -14 CURVE SMOOTH",
"560 -14 OFFCURVE",
"646 160 OFFCURVE",
"646 341 CURVE SMOOTH",
"646 461 OFFCURVE",
"586 550 OFFCURVE",
"471 550 CURVE SMOOTH",
"391 550 OFFCURVE",
"342 514 OFFCURVE",
"308 455 CURVE",
"301 455 LINE",
"354 750 LINE"
);
},
{
closed = 1;
nodes = (
"285 151 OFFCURVE",
"262 183 OFFCURVE",
"262 223 CURVE SMOOTH",
"262 293 OFFCURVE",
"280 384 OFFCURVE",
"373 384 CURVE SMOOTH",
"417 384 OFFCURVE",
"440 352 OFFCURVE",
"440 312 CURVE SMOOTH",
"440 242 OFFCURVE",
"420 151 OFFCURVE",
"329 151 CURVE SMOOTH"
);
},
{
closed = 1;
nodes = (
"-636 750 LINE",
"-636 0 LINE",
"-455 0 LINE",
"-438 81 LINE",
"-425 81 LINE",
"-404 33 OFFCURVE",
"-350 -14 OFFCURVE",
"-264 -14 CURVE SMOOTH",
"-127 -14 OFFCURVE",
"-47 93 OFFCURVE",
"-47 267 CURVE SMOOTH",
"-47 442 OFFCURVE",
"-127 550 OFFCURVE",
"-264 550 CURVE SMOOTH",
"-350 550 OFFCURVE",
"-404 503 OFFCURVE",
"-425 455 CURVE",
"-431 455 LINE",
"-431 750 LINE"
);
},
{
closed = 1;
nodes = (
"-401 151 OFFCURVE",
"-431 190 OFFCURVE",
"-431 267 CURVE SMOOTH",
"-431 345 OFFCURVE",
"-401 384 OFFCURVE",
"-344 384 CURVE SMOOTH",
"-283 384 OFFCURVE",
"-257 346 OFFCURVE",
"-257 267 CURVE SMOOTH",
"-257 189 OFFCURVE",
"-283 151 OFFCURVE",
"-344 151 CURVE SMOOTH"
);
}
);
};
layerId = "C1DA716A-5F29-4CD0-A38F-CCADF5849A80";
paths = (
{
closed = 1;
nodes = (
"149 750 LINE",
"17 0 LINE",
"199 0 LINE",
"230 81 LINE",
"242 81 LINE",
"268 28 OFFCURVE",
"313 -14 OFFCURVE",
"398 -14 CURVE SMOOTH",
"565 -14 OFFCURVE",
"646 150 OFFCURVE",
"646 341 CURVE SMOOTH",
"646 461 OFFCURVE",
"586 550 OFFCURVE",
"471 550 CURVE SMOOTH",
"391 550 OFFCURVE",
"342 514 OFFCURVE",
"308 455 CURVE",
"301 455 LINE",
"354 750 LINE"
);
},
{
closed = 1;
nodes = (
"288 151 OFFCURVE",
"262 183 OFFCURVE",
"262 233 CURVE SMOOTH",
"262 293 OFFCURVE",
"275 384 OFFCURVE",
"368 384 CURVE SMOOTH",
"415 384 OFFCURVE",
"440 352 OFFCURVE",
"440 302 CURVE SMOOTH",
"440 242 OFFCURVE",
"425 151 OFFCURVE",
"334 151 CURVE SMOOTH"
);
}
);
width = 678;
},
{
layerId = "6641C2CA-B9F9-47EE-AEEC-6BEE387D8CB9";
paths = (
{
closed = 1;
nodes = (
"179 750 LINE",
"47 0 LINE",
"131 0 LINE",
"164 93 LINE",
"168 93 LINE",
"186 33 OFFCURVE",
"232 -15 OFFCURVE",
"325 -15 CURVE SMOOTH",
"486 -15 OFFCURVE",
"586 134 OFFCURVE",
"586 317 CURVE SMOOTH",
"586 454 OFFCURVE",
"518 535 OFFCURVE",
"403 535 CURVE SMOOTH",
"321 535 OFFCURVE",
"265 495 OFFCURVE",
"230 436 CURVE",
"224 436 LINE",
"279 750 LINE"
);
},
{
closed = 1;
nodes = (
"224 71 OFFCURVE",
"187 127 OFFCURVE",
"187 215 CURVE SMOOTH",
"187 331 OFFCURVE",
"243 449 OFFCURVE",
"365 449 CURVE SMOOTH",
"447 449 OFFCURVE",
"485 404 OFFCURVE",
"485 313 CURVE SMOOTH",
"485 183 OFFCURVE",
"428 71 OFFCURVE",
"310 71 CURVE SMOOTH"
);
}
);
width = 640;
}
);
leftMetricsKey = h;
rightMetricsKey = o;
unicode = 0062;
userData = {
RMXScaler = {
source = b;
};
};
},
{
color = 4;
glyphname = c;
lastChange = "2018-03-02 10:50:24 +0000";
layers = (
{
anchors = (
{
name = bottom;
position = "{269, 0}";
},
{
name = top;
position = "{330, 515}";
}
);
background = {
paths = (
{
closed = 1;
nodes = (
"380 -15 OFFCURVE",
"463 45 OFFCURVE",
"488 162 CURVE",
"433 162 LINE",
"417 81 OFFCURVE",
"360 32 OFFCURVE",
"269 32 CURVE SMOOTH",
"177 32 OFFCURVE",
"119 90 OFFCURVE",
"119 205 CURVE SMOOTH",
"119 379 OFFCURVE",
"196 483 OFFCURVE",
"325 483 CURVE SMOOTH",
"412 483 OFFCURVE",
"456 436 OFFCURVE",
"458 352 CURVE",
"512 352 LINE",
"510 460 OFFCURVE",
"441 530 OFFCURVE",
"328 530 CURVE SMOOTH",
"168 530 OFFCURVE",
"64 400 OFFCURVE",
"64 206 CURVE SMOOTH",
"64 62 OFFCURVE",
"147 -15 OFFCURVE",
"266 -15 CURVE SMOOTH"
);
}
);
};
layerId = "CC363ACD-D5A5-4E19-A940-9AF36D109D9E";
paths = (
{
closed = 1;
nodes = (
"380 -15 OFFCURVE",
"462 42 OFFCURVE",
"487 157 CURVE",
"433 162 LINE",
"417 81 OFFCURVE",
"360 32 OFFCURVE",
"269 32 CURVE SMOOTH",
"177 32 OFFCURVE",
"119 90 OFFCURVE",
"119 205 CURVE SMOOTH",
"119 379 OFFCURVE",
"196 483 OFFCURVE",
"325 483 CURVE SMOOTH",
"412 483 OFFCURVE",
"456 436 OFFCURVE",
"458 352 CURVE",
"512 355 LINE",
"510 458 OFFCURVE",
"441 530 OFFCURVE",
"328 530 CURVE SMOOTH",
"168 530 OFFCURVE",
"64 400 OFFCURVE",
"64 206 CURVE SMOOTH",
"64 62 OFFCURVE",
"147 -15 OFFCURVE",
"266 -15 CURVE SMOOTH"
);
}
);
width = 570;
},
{
anchors = (
{
name = bottom;
position = "{294, 0}";
},
{
name = top;
position = "{349, 535}";
}
);
background = {
paths = (
{
closed = 1;
nodes = (
"457 -15 OFFCURVE",
"548 58 OFFCURVE",
"570 212 CURVE",
"381 212 LINE",
"373 170 OFFCURVE",
"346 146 OFFCURVE",
"302 146 CURVE SMOOTH",
"259 146 OFFCURVE",
"239 174 OFFCURVE",
"239 225 CURVE SMOOTH",
"239 291 OFFCURVE",
"256 389 OFFCURVE",
"334 389 CURVE SMOOTH",
"371 389 OFFCURVE",
"393 366 OFFCURVE",
"395 322 CURVE",
"586 322 LINE",
"591 467 OFFCURVE",
"514 550 OFFCURVE",
"344 550 CURVE SMOOTH",
"135 550 OFFCURVE",
"33 410 OFFCURVE",
"33 213 CURVE SMOOTH",
"33 63 OFFCURVE",
"131 -15 OFFCURVE",
"293 -15 CURVE SMOOTH"
);
}
);
};
layerId = "C1DA716A-5F29-4CD0-A38F-CCADF5849A80";
paths = (
{
closed = 1;
nodes = (
"467 -15 OFFCURVE",
"534 58 OFFCURVE",
"566 192 CURVE",
"381 212 LINE",
"373 170 OFFCURVE",
"346 146 OFFCURVE",
"302 146 CURVE SMOOTH",
"259 146 OFFCURVE",
"239 174 OFFCURVE",
"239 225 CURVE SMOOTH",
"239 291 OFFCURVE",
"256 389 OFFCURVE",
"334 389 CURVE SMOOTH",
"384 389 OFFCURVE",
"393 361 OFFCURVE",
"395 317 CURVE",
"586 332 LINE",
"591 467 OFFCURVE",
"514 550 OFFCURVE",
"344 550 CURVE SMOOTH",
"135 550 OFFCURVE",
"33 410 OFFCURVE",
"33 213 CURVE SMOOTH",
"33 63 OFFCURVE",
"131 -15 OFFCURVE",
"293 -15 CURVE SMOOTH"
);
}
);
width = 613;
},
{
anchors = (
{
name = bottom;
position = "{271, 0}";
},
{
name = top;
position = "{338, 520}";
}
);
layerId = "6641C2CA-B9F9-47EE-AEEC-6BEE387D8CB9";
paths = (
{
closed = 1;
nodes = (
"413 -15 OFFCURVE",
"485 48 OFFCURVE",
"513 164 CURVE",
"415 177 LINE",
"399 104 OFFCURVE",
"353 68 OFFCURVE",
"281 68 CURVE SMOOTH",
"200 68 OFFCURVE",
"159 117 OFFCURVE",
"159 207 CURVE SMOOTH",
"159 373 OFFCURVE",
"229 452 OFFCURVE",
"330 452 CURVE SMOOTH",
"406 452 OFFCURVE",
"439 413 OFFCURVE",
"438 340 CURVE",
"539 347 LINE",
"540 458 OFFCURVE",
"472 535 OFFCURVE",
"331 535 CURVE SMOOTH",
"164 535 OFFCURVE",
"56 403 OFFCURVE",
"56 211 CURVE SMOOTH",
"56 65 OFFCURVE",
"138 -15 OFFCURVE",
"272 -15 CURVE SMOOTH"
);
}
);
width = 588;
}
);
leftMetricsKey = o;
unicode = 0063;
userData = {
RMXScaler = {
source = c;
};
};
},
{
color = 4;
glyphname = d;
lastChange = "2018-03-02 10:50:24 +0000";
layers = (
{
anchors = (
{
name = topright;
position = "{637, 515}";
}
);
background = {
paths = (
{
closed = 1;
nodes = (
"429 -235 LINE",
"561 515 LINE",
"519 515 LINE",
"488 412 LINE",
"484 412 LINE",
"466 465 OFFCURVE",
"425 530 OFFCURVE",
"318 530 CURVE SMOOTH",
"157 530 OFFCURVE",
"62 378 OFFCURVE",
"62 195 CURVE SMOOTH",
"62 69 OFFCURVE",
"126 -15 OFFCURVE",
"246 -15 CURVE SMOOTH",
"340 -15 OFFCURVE",
"395 32 OFFCURVE",
"426 88 CURVE",
"431 88 LINE",
"374 -235 LINE"
);
},
{
closed = 1;
nodes = (
"427 483 OFFCURVE",
"469 402 OFFCURVE",
"469 303 CURVE SMOOTH",
"469 179 OFFCURVE",
"400 32 OFFCURVE",
"256 32 CURVE SMOOTH",
"161 32 OFFCURVE",
"117 89 OFFCURVE",
"117 195 CURVE SMOOTH",
"117 348 OFFCURVE",
"187 483 OFFCURVE",
"323 483 CURVE SMOOTH"
);
},
{
closed = 1;
nodes = (
"-81 425 LINE",
"-86 425 LINE",
"-123 496 OFFCURVE",
"-181 530 OFFCURVE",
"-264 530 CURVE SMOOTH",
"-406 530 OFFCURVE",
"-493 426 OFFCURVE",
"-493 257 CURVE SMOOTH",
"-493 86 OFFCURVE",
"-411 -15 OFFCURVE",
"-264 -15 CURVE SMOOTH",
"-162 -15 OFFCURVE",
"-111 48 OFFCURVE",
"-85 101 CURVE",
"-81 101 LINE",
"-67 0 LINE",
"-26 0 LINE",
"-26 750 LINE",
"-81 750 LINE"
);
},
{
closed = 1;
nodes = (
"-381 32 OFFCURVE",
"-437 112 OFFCURVE",
"-437 257 CURVE SMOOTH",
"-437 402 OFFCURVE",
"-375 483 OFFCURVE",
"-262 483 CURVE SMOOTH",
"-142 483 OFFCURVE",
"-76 381 OFFCURVE",
"-76 257 CURVE SMOOTH",
"-76 149 OFFCURVE",
"-142 32 OFFCURVE",
"-262 32 CURVE SMOOTH"
);
}
);
};
layerId = "CC363ACD-D5A5-4E19-A940-9AF36D109D9E";
paths = (
{
closed = 1;
nodes = (
"490 424 LINE",
"485 424 LINE",
"464 473 OFFCURVE",
"417 530 OFFCURVE",
"318 530 CURVE SMOOTH",
"157 530 OFFCURVE",
"62 378 OFFCURVE",
"62 195 CURVE SMOOTH",
"62 67 OFFCURVE",
"131 -15 OFFCURVE",
"251 -15 CURVE SMOOTH",
"345 -15 OFFCURVE",
"401 35 OFFCURVE",
"432 101 CURVE",
"436 101 LINE",
"429 0 LINE",
"470 0 LINE",
"602 750 LINE",
"547 750 LINE"
);
},
{
closed = 1;
nodes = (
"161 32 OFFCURVE",
"117 102 OFFCURVE",
"117 200 CURVE SMOOTH",
"117 353 OFFCURVE",
"182 483 OFFCURVE",
"318 483 CURVE SMOOTH",
"413 483 OFFCURVE",
"471 429 OFFCURVE",
"471 320 CURVE SMOOTH",
"471 184 OFFCURVE",
"391 32 OFFCURVE",
"256 32 CURVE SMOOTH"
);
}
);
width = 622;
},
{
anchors = (
{
name = topright;
position = "{746, 535}";
}
);
background = {
paths = (
{
closed = 1;
nodes = (
"444 455 LINE",
"438 455 LINE",
"416 503 OFFCURVE",
"377 550 OFFCURVE",
"287 550 CURVE SMOOTH",
"119 550 OFFCURVE",
"33 376 OFFCURVE",
"33 195 CURVE SMOOTH",
"33 75 OFFCURVE",
"93 -14 OFFCURVE",
"209 -14 CURVE SMOOTH",
"288 -14 OFFCURVE",
"347 33 OFFCURVE",
"375 81 CURVE",
"387 81 LINE",
"389 0 LINE",
"569 0 LINE",
"701 751 LINE",
"496 751 LINE"
);
},
{
closed = 1;
nodes = (
"262 151 OFFCURVE",
"239 183 OFFCURVE",
"239 223 CURVE SMOOTH",
"239 293 OFFCURVE",
"257 384 OFFCURVE",
"350 384 CURVE SMOOTH",
"394 384 OFFCURVE",
"417 352 OFFCURVE",
"417 312 CURVE SMOOTH",
"417 242 OFFCURVE",
"397 151 OFFCURVE",
"306 151 CURVE SMOOTH"
);
},
{
closed = 1;
nodes = (
"-278 455 LINE",
"-284 455 LINE",
"-305 503 OFFCURVE",
"-359 550 OFFCURVE",
"-445 550 CURVE SMOOTH",
"-582 550 OFFCURVE",
"-662 442 OFFCURVE",
"-662 267 CURVE SMOOTH",
"-662 93 OFFCURVE",
"-582 -14 OFFCURVE",
"-445 -14 CURVE SMOOTH",
"-359 -14 OFFCURVE",
"-305 33 OFFCURVE",
"-284 81 CURVE",
"-271 81 LINE",
"-254 0 LINE",
"-73 0 LINE",
"-73 751 LINE",
"-278 751 LINE"
);
},
{
closed = 1;
nodes = (
"-426 151 OFFCURVE",
"-452 189 OFFCURVE",
"-452 267 CURVE SMOOTH",
"-452 346 OFFCURVE",
"-426 384 OFFCURVE",
"-365 384 CURVE SMOOTH",
"-308 384 OFFCURVE",
"-278 345 OFFCURVE",
"-278 267 CURVE SMOOTH",
"-278 190 OFFCURVE",
"-308 151 OFFCURVE",
"-365 151 CURVE SMOOTH"
);
}
);
};
layerId = "C1DA716A-5F29-4CD0-A38F-CCADF5849A80";
paths = (
{
closed = 1;
nodes = (
"444 455 LINE",
"438 455 LINE",
"416 503 OFFCURVE",
"377 550 OFFCURVE",
"287 550 CURVE SMOOTH",
"109 550 OFFCURVE",
"33 386 OFFCURVE",
"33 205 CURVE SMOOTH",
"33 85 OFFCURVE",
"93 -14 OFFCURVE",
"209 -14 CURVE SMOOTH",
"288 -14 OFFCURVE",
"347 33 OFFCURVE",
"375 81 CURVE",
"387 81 LINE",
"389 0 LINE",
"569 0 LINE",
"701 751 LINE",
"496 751 LINE"
);
},
{
closed = 1;
nodes = (
"265 151 OFFCURVE",
"239 183 OFFCURVE",
"239 233 CURVE SMOOTH",
"239 293 OFFCURVE",
"252 384 OFFCURVE",
"345 384 CURVE SMOOTH",
"392 384 OFFCURVE",
"417 352 OFFCURVE",
"417 302 CURVE SMOOTH",
"417 242 OFFCURVE",
"402 151 OFFCURVE",
"311 151 CURVE SMOOTH"
);
}
);
width = 680;
},
{
anchors = (
{
name = topright;
position = "{669, 520}";
}
);
layerId = "6641C2CA-B9F9-47EE-AEEC-6BEE387D8CB9";
paths = (
{
closed = 1;
nodes = (
"478 433 LINE",
"473 433 LINE",
"453 491 OFFCURVE",
"404 535 OFFCURVE",
"315 535 CURVE SMOOTH",
"154 535 OFFCURVE",
"55 386 OFFCURVE",
"55 203 CURVE SMOOTH",
"55 65 OFFCURVE",
"125 -14 OFFCURVE",
"244 -14 CURVE SMOOTH",
"324 -14 OFFCURVE",
"381 28 OFFCURVE",
"417 93 CURVE",
"422 93 LINE",
"419 0 LINE",
"502 0 LINE",
"634 750 LINE",
"534 750 LINE"
);
},
{
closed = 1;
nodes = (
"194 71 OFFCURVE",
"156 122 OFFCURVE",
"156 210 CURVE SMOOTH",
"156 339 OFFCURVE",
"210 450 OFFCURVE",
"328 450 CURVE SMOOTH",
"410 450 OFFCURVE",
"455 406 OFFCURVE",
"455 314 CURVE SMOOTH",
"455 192 OFFCURVE",
"394 71 OFFCURVE",
"276 71 CURVE SMOOTH"
);
}
);
width = 641;
}
);
leftMetricsKey = o;
unicode = 0064;
userData = {
RMXScaler = {
source = d;
};
};
},
{
color = 4;
glyphname = e;
lastChange = "2018-03-02 10:50:24 +0000";
layers = (
{
anchors = (
{
name = ogonek;
position = "{356, 0}";
},
{
name = top;
position = "{357, 525}";
}
);
associatedMasterId = "CC363ACD-D5A5-4E19-A940-9AF36D109D9E";
background = {
anchors = (
{
name = ogonek;
position = "{409, 0}";
},
{
name = top;
position = "{314, 525}";
}
);
paths = (
{
closed = 1;
nodes = (
"436 -15 OFFCURVE",
"508 49 OFFCURVE",
"541 147 CURVE",
"400 147 LINE",
"383 111 OFFCURVE",
"353 95 OFFCURVE",
"297 95 CURVE SMOOTH",
"221 95 OFFCURVE",
"189 130 OFFCURVE",
"189 205 CURVE SMOOTH",
"189 222 OFFCURVE",
"191 241 OFFCURVE",
"197 286 CURVE SMOOTH",
"211 383 OFFCURVE",
"255 429 OFFCURVE",
"335 429 CURVE SMOOTH",
"399 429 OFFCURVE",
"430 400 OFFCURVE",
"430 339 CURVE SMOOTH",
"430 328 OFFCURVE",
"427 303 OFFCURVE",
"423 287 CURVE",
"444 311 LINE",
"168 311 LINE",
"153 221 LINE",
"551 221 LINE",
"557 254 LINE SMOOTH",
"562 284 OFFCURVE",
"566 309 OFFCURVE",
"566 334 CURVE SMOOTH",
"566 468 OFFCURVE",
"485 540 OFFCURVE",
"336 540 CURVE SMOOTH",
"137 540 OFFCURVE",
"49 395 OFFCURVE",
"49 210 CURVE SMOOTH",
"49 65 OFFCURVE",
"129 -15 OFFCURVE",
"288 -15 CURVE SMOOTH"
);
}
);
};
guideLines = (
{
angle = 91.7357;
position = "{536, 225}";
}
);
layerId = "EAB54FD9-3D60-4BB1-8D7E-6213FCC49E20";
name = "Aug 30 17, 12:25";
paths = (
{
closed = 1;
nodes = (
"418 -15 OFFCURVE",
"492 49 OFFCURVE",
"528 147 CURVE",
"388 147 LINE",
"370 111 OFFCURVE",
"343 95 OFFCURVE",
"284 95 CURVE SMOOTH",
"219 95 OFFCURVE",
"189 129 OFFCURVE",
"189 207 CURVE SMOOTH",
"189 376 OFFCURVE",
"251 429 OFFCURVE",
"338 429 CURVE SMOOTH",
"415 429 OFFCURVE",
"439 391 OFFCURVE",
"422 306 CURVE SMOOTH",
"418 287 LINE",
"440 311 LINE",
"172 311 LINE",
"156 221 LINE",
"545 221 LINE",
"556 284 LINE SMOOTH",
"584 442 OFFCURVE",
"525 540 OFFCURVE",
"359 540 CURVE SMOOTH",
"178 540 OFFCURVE",
"47 416 OFFCURVE",
"47 200 CURVE SMOOTH",
"47 70 OFFCURVE",
"116 -15 OFFCURVE",
"265 -15 CURVE SMOOTH"
);
}
);
width = 602;
},
{
anchors = (
{
name = bottom;
position = "{271, 0}";
},
{
name = ogonek;
position = "{338, 0}";
},
{
name = top;
position = "{323, 515}";
}
);
background = {
paths = (
{
closed = 1;
nodes = (
"371 -15 OFFCURVE",
"445 31 OFFCURVE",
"474 124 CURVE",
"419 124 LINE",
"399 64 OFFCURVE",
"349 32 OFFCURVE",
"267 32 CURVE SMOOTH",
"173 32 OFFCURVE",
"116 100 OFFCURVE",
"116 200 CURVE SMOOTH",
"116 348 OFFCURVE",
"177 483 OFFCURVE",
"319 483 CURVE SMOOTH",
"415 483 OFFCURVE",
"464 427 OFFCURVE",
"464 327 CURVE SMOOTH",
"464 305 OFFCURVE",
"460 281 OFFCURVE",
"454 248 CURVE",
"470 280 LINE",
"106 280 LINE",
"98 235 LINE",
"502 235 LINE",
"509 270 OFFCURVE",
"514 299 OFFCURVE",
"514 327 CURVE SMOOTH",
"514 450 OFFCURVE",
"445 530 OFFCURVE",
"321 530 CURVE SMOOTH",
"152 530 OFFCURVE",
"62 374 OFFCURVE",
"62 200 CURVE SMOOTH",
"62 67 OFFCURVE",
"147 -15 OFFCURVE",
"265 -15 CURVE SMOOTH"
);
}
);
};
layerId = "CC363ACD-D5A5-4E19-A940-9AF36D109D9E";
paths = (
{
closed = 1;
nodes = (
"371 -15 OFFCURVE",
"444 28 OFFCURVE",
"472 119 CURVE",
"419 124 LINE",
"399 64 OFFCURVE",
"349 32 OFFCURVE",
"267 32 CURVE SMOOTH",
"173 32 OFFCURVE",
"116 100 OFFCURVE",
"116 200 CURVE SMOOTH",
"116 348 OFFCURVE",
"177 483 OFFCURVE",
"319 483 CURVE SMOOTH",
"415 483 OFFCURVE",
"464 427 OFFCURVE",
"464 327 CURVE SMOOTH",
"464 305 OFFCURVE",
"460 281 OFFCURVE",
"454 248 CURVE",
"470 280 LINE",
"106 280 LINE",
"98 235 LINE",
"502 235 LINE",
"509 270 OFFCURVE",
"514 299 OFFCURVE",
"514 327 CURVE SMOOTH",
"514 450 OFFCURVE",
"445 530 OFFCURVE",
"321 530 CURVE SMOOTH",
"152 530 OFFCURVE",
"62 374 OFFCURVE",
"62 200 CURVE SMOOTH",
"62 67 OFFCURVE",
"147 -15 OFFCURVE",
"265 -15 CURVE SMOOTH"
);
}
);
width = 569;
},
{
anchors = (
{
name = bottom;
position = "{298, 0}";
},
{
name = ogonek;
position = "{369, 0}";
},
{
name = top;
position = "{344, 535}";
}
);
background = {
paths = (
{
closed = 1;
nodes = (
"463 -15 OFFCURVE",
"543 57 OFFCURVE",
"568 180 CURVE",
"379 180 LINE",
"371 147 OFFCURVE",
"346 131 OFFCURVE",
"305 131 CURVE SMOOTH",
"249 131 OFFCURVE",
"223 160 OFFCURVE",
"223 222 CURVE SMOOTH",
"223 352 OFFCURVE",
"260 411 OFFCURVE",
"338 411 CURVE SMOOTH",
"385 411 OFFCURVE",
"406 384 OFFCURVE",
"406 338 CURVE SMOOTH",
"406 322 OFFCURVE",
"404 302 OFFCURVE",
"399 286 CURVE",
"445 323 LINE",
"218 323 LINE",
"201 225 LINE",
"575 225 LINE",
"582 257 OFFCURVE",
"585 303 OFFCURVE",
"585 331 CURVE SMOOTH",
"585 470 OFFCURVE",
"503 550 OFFCURVE",
"342 550 CURVE SMOOTH",
"124 550 OFFCURVE",
"33 398 OFFCURVE",
"33 214 CURVE SMOOTH",
"33 66 OFFCURVE",
"135 -15 OFFCURVE",
"293 -15 CURVE SMOOTH"
);
}
);
};
layerId = "C1DA716A-5F29-4CD0-A38F-CCADF5849A80";
paths = (
{
closed = 1;
nodes = (
"463 -15 OFFCURVE",
"538 56 OFFCURVE",
"563 165 CURVE",
"379 185 LINE",
"371 152 OFFCURVE",
"351 131 OFFCURVE",
"305 131 CURVE SMOOTH",
"249 131 OFFCURVE",
"223 160 OFFCURVE",
"223 222 CURVE SMOOTH",
"223 352 OFFCURVE",
"255 411 OFFCURVE",
"333 411 CURVE SMOOTH",
"383 411 OFFCURVE",
"406 384 OFFCURVE",
"406 338 CURVE SMOOTH",
"406 322 OFFCURVE",
"404 302 OFFCURVE",
"399 286 CURVE",
"445 323 LINE",
"218 323 LINE",
"201 225 LINE",
"575 225 LINE",
"582 257 OFFCURVE",
"585 303 OFFCURVE",
"585 331 CURVE SMOOTH",
"585 470 OFFCURVE",
"503 550 OFFCURVE",
"342 550 CURVE SMOOTH",
"124 550 OFFCURVE",
"33 398 OFFCURVE",
"33 214 CURVE SMOOTH",
"33 66 OFFCURVE",
"135 -15 OFFCURVE",
"293 -15 CURVE SMOOTH"
);
}
);
width = 616;
},
{
anchors = (
{
name = ogonek;
position = "{404, 0}";
},
{
name = top;
position = "{309, 525}";
}
);
associatedMasterId = "CC363ACD-D5A5-4E19-A940-9AF36D109D9E";
background = {
paths = (
{
closed = 1;
nodes = (
"483 -15 OFFCURVE",
"587 123 OFFCURVE",
"587 315 CURVE SMOOTH",
"587 461 OFFCURVE",
"496 540 OFFCURVE",
"343 540 CURVE SMOOTH",
"156 540 OFFCURVE",
"52 402 OFFCURVE",
"52 210 CURVE SMOOTH",
"52 64 OFFCURVE",
"143 -15 OFFCURVE",
"296 -15 CURVE SMOOTH"
);
},
{
closed = 1;
nodes = (
"228 100 OFFCURVE",
"194 137 OFFCURVE",
"194 213 CURVE SMOOTH",
"194 350 OFFCURVE",
"245 425 OFFCURVE",
"339 425 CURVE SMOOTH",
"411 425 OFFCURVE",
"445 388 OFFCURVE",
"445 312 CURVE SMOOTH",
"445 175 OFFCURVE",
"394 100 OFFCURVE",
"300 100 CURVE SMOOTH"
);
}
);
};
guideLines = (
{
angle = 91.7357;
position = "{531, 225}";
}
);
layerId = "E5273CF7-7070-45AC-A945-88C8A9873BCE";
name = "Oct 3 17, 17:55";
paths = (
{
closed = 1;
nodes = (
"429 -15 OFFCURVE",
"500 49 OFFCURVE",
"533 147 CURVE",
"392 147 LINE",
"375 111 OFFCURVE",
"346 95 OFFCURVE",
"292 95 CURVE SMOOTH",
"220 95 OFFCURVE",
"189 130 OFFCURVE",
"189 205 CURVE SMOOTH",
"189 325 OFFCURVE",
"223 429 OFFCURVE",
"335 429 CURVE SMOOTH",
"397 429 OFFCURVE",
"427 400 OFFCURVE",
"427 339 CURVE SMOOTH",
"427 328 OFFCURVE",
"424 303 OFFCURVE",
"420 287 CURVE",
"441 311 LINE",
"167 311 LINE",
"152 221 LINE",
"548 221 LINE",
"560 289 OFFCURVE",
"563 308 OFFCURVE",
"563 334 CURVE SMOOTH",
"563 468 OFFCURVE",
"483 540 OFFCURVE",
"337 540 CURVE SMOOTH",
"153 540 OFFCURVE",
"52 394 OFFCURVE",
"52 210 CURVE SMOOTH",
"52 65 OFFCURVE",
"130 -15 OFFCURVE",
"283 -15 CURVE SMOOTH"
);
}
);
width = 605;
},
{
anchors = (
{
name = ogonek;
position = "{371, 0}";
}
);
associatedMasterId = "C1DA716A-5F29-4CD0-A38F-CCADF5849A80";
background = {
anchors = (
{
name = top;
position = "{368, 535}";
}
);
paths = (
{
closed = 1;
nodes = (
"517 -15 OFFCURVE",
"606 136 OFFCURVE",
"609 315 CURVE SMOOTH",
"612 473 OFFCURVE",
"512 550 OFFCURVE",
"345 550 CURVE SMOOTH",
"126 550 OFFCURVE",
"37 399 OFFCURVE",
"34 220 CURVE SMOOTH",
"31 62 OFFCURVE",
"131 -15 OFFCURVE",
"298 -15 CURVE SMOOTH"
);
},
{
closed = 1;
nodes = (
"261 143 OFFCURVE",
"238 164 OFFCURVE",
"238 221 CURVE SMOOTH",
"238 326 OFFCURVE",
"273 392 OFFCURVE",
"336 392 CURVE SMOOTH",
"382 392 OFFCURVE",
"405 371 OFFCURVE",
"405 314 CURVE SMOOTH",
"405 209 OFFCURVE",
"370 143 OFFCURVE",
"307 143 CURVE SMOOTH"
);
}
);
};
layerId = "F8D2E8E2-B06B-4F49-BA7A-D31E7DE54CD7";
name = "Oct 4 17, 12:32";
paths = (
{
closed = 1;
nodes = (
"463 -15 OFFCURVE",
"543 56 OFFCURVE",
"574 180 CURVE",
"384 180 LINE",
"374 151 OFFCURVE",
"355 132 OFFCURVE",
"306 132 CURVE SMOOTH",
"250 132 OFFCURVE",
"226 169 OFFCURVE",
"226 223 CURVE SMOOTH",
"226 322 OFFCURVE",
"249 410 OFFCURVE",
"335 410 CURVE SMOOTH",
"391 410 OFFCURVE",
"413 383 OFFCURVE",
"413 338 CURVE SMOOTH",
"413 321 OFFCURVE",
"411 307 OFFCURVE",
"407 286 CURVE",
"451 323 LINE",
"221 323 LINE",
"204 225 LINE",
"583 225 LINE",
"592 257 OFFCURVE",
"596 303 OFFCURVE",
"596 328 CURVE SMOOTH",
"596 459 OFFCURVE",
"508 550 OFFCURVE",
"354 550 CURVE SMOOTH",
"127 550 OFFCURVE",
"34 400 OFFCURVE",
"34 215 CURVE SMOOTH",
"34 73 OFFCURVE",
"138 -15 OFFCURVE",
"293 -15 CURVE SMOOTH"
);
}
);
width = 627;
},
{
anchors = (
{
name = bottom;
position = "{287, 0}";
},
{
name = ogonek;
position = "{357, 0}";
},
{
name = top;
position = "{331, 520}";
}
);
layerId = "6641C2CA-B9F9-47EE-AEEC-6BEE387D8CB9";
paths = (
{
closed = 1;
nodes = (
"401 -15 OFFCURVE",
"475 38 OFFCURVE",
"501 129 CURVE",
"403 139 LINE",
"387 92 OFFCURVE",
"349 65 OFFCURVE",
"282 65 CURVE SMOOTH",
"197 65 OFFCURVE",
"152 116 OFFCURVE",
"152 204 CURVE SMOOTH",
"152 324 OFFCURVE",
"190 456 OFFCURVE",
"326 456 CURVE SMOOTH",
"403 456 OFFCURVE",
"442 414 OFFCURVE",
"442 335 CURVE SMOOTH",
"442 317 OFFCURVE",
"439 293 OFFCURVE",
"434 269 CURVE",
"453 296 LINE",
"137 296 LINE",
"125 228 LINE",
"523 228 LINE",
"531 264 OFFCURVE",
"536 296 OFFCURVE",
"536 329 CURVE SMOOTH",
"536 458 OFFCURVE",
"461 535 OFFCURVE",
"329 535 CURVE SMOOTH",
"156 535 OFFCURVE",
"55 394 OFFCURVE",
"55 205 CURVE SMOOTH",
"55 66 OFFCURVE",
"140 -15 OFFCURVE",
"278 -15 CURVE SMOOTH"
);
}
);
width = 584;
}
);
leftMetricsKey = o;
unicode = 0065;
userData = {
RMXScaler = {
source = e;
};
};
},
{
color = 4;
glyphname = f;
lastChange = "2018-03-02 10:50:24 +0000";
layers = (
{
background = {
paths = (
{
closed = 1;
nodes = (
"367 464 LINE",
"376 515 LINE",
"87 515 LINE",
"78 464 LINE"
);
},
{
closed = 1;
nodes = (
"429 753 OFFCURVE",
"395 760 OFFCURVE",
"359 760 CURVE SMOOTH",
"281 760 OFFCURVE",
"222 727 OFFCURVE",
"202 612 CURVE SMOOTH",
"93 0 LINE",
"148 0 LINE",
"255 605 LINE SMOOTH",
"270 692 OFFCURVE",
"308 711 OFFCURVE",
"364 711 CURVE SMOOTH",
"394 711 OFFCURVE",
"423 705 OFFCURVE",
"435 701 CURVE",
"444 747 LINE"
);
}
);
};
layerId = "CC363ACD-D5A5-4E19-A940-9AF36D109D9E";
paths = (
{
closed = 1;
nodes = (
"367 464 LINE",
"376 515 LINE",
"87 515 LINE",
"78 464 LINE"
);
},
{
closed = 1;
nodes = (
"429 753 OFFCURVE",
"395 760 OFFCURVE",
"359 760 CURVE SMOOTH",
"281 760 OFFCURVE",
"222 727 OFFCURVE",
"202 612 CURVE SMOOTH",
"93 0 LINE",
"148 0 LINE",
"255 605 LINE SMOOTH",
"270 692 OFFCURVE",
"308 711 OFFCURVE",
"364 711 CURVE SMOOTH",
"394 711 OFFCURVE",
"420 705 OFFCURVE",
"432 702 CURVE",
"444 747 LINE"
);
}
);
width = 348;
},
{
background = {
paths = (
{
closed = 1;
nodes = (
"441 381 LINE",
"441 535 LINE",
"30 535 LINE",
"30 381 LINE"
);
},
{
closed = 1;
nodes = (
"435 757 OFFCURVE",
"383 765 OFFCURVE",
"325 765 CURVE SMOOTH",
"176 765 OFFCURVE",
"113 706 OFFCURVE",
"113 572 CURVE SMOOTH",
"113 0 LINE",
"318 0 LINE",
"318 541 LINE SMOOTH",
"318 589 OFFCURVE",
"327 616 OFFCURVE",
"381 616 CURVE SMOOTH",
"406 616 OFFCURVE",
"429 613 OFFCURVE",
"440 611 CURVE",
"460 750 LINE"
);
}
);
};
layerId = "C1DA716A-5F29-4CD0-A38F-CCADF5849A80";
paths = (
{
closed = 1;
nodes = (
"451 381 LINE",
"478 535 LINE",
"77 535 LINE",
"50 381 LINE"
);
},
{
closed = 1;
nodes = (
"482 756 OFFCURVE",
"427 765 OFFCURVE",
"373 765 CURVE SMOOTH",
"243 765 OFFCURVE",
"187 713 OFFCURVE",
"163 579 CURVE SMOOTH",
"61 0 LINE",
"266 0 LINE",
"363 549 LINE SMOOTH",
"372 599 OFFCURVE",
"388 616 OFFCURVE",
"432 616 CURVE SMOOTH",
"454 616 OFFCURVE",
"474 612 OFFCURVE",
"488 608 CURVE",
"520 744 LINE"
);
}
);
width = 444;
},
{
layerId = "6641C2CA-B9F9-47EE-AEEC-6BEE387D8CB9";
paths = (
{
closed = 1;
nodes = (
"390 435 LINE",
"405 520 LINE",
"85 520 LINE",
"71 435 LINE"
);
},
{
closed = 1;
nodes = (
"439 755 OFFCURVE",
"403 763 OFFCURVE",
"356 763 CURVE SMOOTH",
"269 763 OFFCURVE",
"212 721 OFFCURVE",
"192 610 CURVE SMOOTH",
"85 0 LINE",
"184 0 LINE",
"288 588 LINE SMOOTH",
"300 654 OFFCURVE",
"326 678 OFFCURVE",
"378 678 CURVE SMOOTH",
"404 678 OFFCURVE",
"430 672 OFFCURVE",
"441 669 CURVE",
"459 748 LINE"
);
}
);
width = 377;
}
);
unicode = 0066;
userData = {
RMXScaler = {
source = f;
};
};
},
{
color = 4;
glyphname = g;
lastChange = "2018-03-02 10:50:24 +0000";
layers = (
{
anchors = (
{
name = top;
position = "{380, 525}";
}
);
associatedMasterId = "CC363ACD-D5A5-4E19-A940-9AF36D109D9E";
background = {
paths = (
{
closed = 1;
nodes = (
"224 131 OFFCURVE",
"190 167 OFFCURVE",
"190 242 CURVE SMOOTH",
"190 341 OFFCURVE",
"235 420 OFFCURVE",
"337 420 CURVE SMOOTH",
"407 420 OFFCURVE",
"440 389 OFFCURVE",
"440 317 CURVE SMOOTH",
"440 214 OFFCURVE",
"396 131 OFFCURVE",
"293 131 CURVE SMOOTH"
);
},
{
closed = 0;
nodes = (
"463 437 LINE",
"445 506 OFFCURVE",
"390 540 OFFCURVE",
"313 540 CURVE SMOOTH",
"152 540 OFFCURVE",
"48 407 OFFCURVE",
"48 234 CURVE SMOOTH",
"48 91 OFFCURVE",
"120 15 OFFCURVE",
"237 15 CURVE SMOOTH",
"305 15 OFFCURVE",
"364 50 OFFCURVE",
"404 110 CURVE"
);
}
);
};
layerId = "5EC14379-3221-4247-9F84-B6206966E7EE";
name = "Aug 30 17, 12:39";
paths = (
{
closed = 1;
nodes = (
"471 434 LINE",
"465 434 LINE",
"457 497 OFFCURVE",
"407 540 OFFCURVE",
"323 540 CURVE SMOOTH",
"144 540 OFFCURVE",
"49 386 OFFCURVE",
"49 219 CURVE SMOOTH",
"49 103 OFFCURVE",
"105 15 OFFCURVE",
"230 15 CURVE SMOOTH",
"324 15 OFFCURVE",
"378 69 OFFCURVE",
"403 103 CURVE",
"409 103 LINE",
"399 45 LINE SMOOTH",
"382 -55 OFFCURVE",
"348 -99 OFFCURVE",
"268 -99 CURVE SMOOTH",
"197 -99 OFFCURVE",
"169 -81 OFFCURVE",
"168 -35 CURVE",
"26 -35 LINE",
"21 -147 OFFCURVE",
"93 -210 OFFCURVE",
"253 -210 CURVE SMOOTH",
"436 -210 OFFCURVE",
"509 -124 OFFCURVE",
"543 69 CURVE SMOOTH",
"623 525 LINE",
"500 525 LINE"
);
},
{
closed = 1;
nodes = (
"225 127 OFFCURVE",
"195 167 OFFCURVE",
"195 235 CURVE SMOOTH",
"195 335 OFFCURVE",
"238 418 OFFCURVE",
"342 418 CURVE SMOOTH",
"410 418 OFFCURVE",
"443 374 OFFCURVE",
"443 308 CURVE SMOOTH",
"443 203 OFFCURVE",
"391 127 OFFCURVE",
"291 127 CURVE SMOOTH"
);
}
);
width = 643;
},
{
anchors = (
{
name = top;
position = "{356, 515}";
}
);
background = {
paths = (
{
closed = 1;
nodes = (
"487 412 LINE",
"483 412 LINE",
"465 465 OFFCURVE",
"424 530 OFFCURVE",
"317 530 CURVE SMOOTH",
"156 530 OFFCURVE",
"62 378 OFFCURVE",
"62 200 CURVE SMOOTH",
"62 79 OFFCURVE",
"128 -5 OFFCURVE",
"248 -5 CURVE SMOOTH",
"342 -5 OFFCURVE",
"398 42 OFFCURVE",
"428 98 CURVE",
"433 98 LINE",
"414 -2 LINE SMOOTH",
"393 -114 OFFCURVE",
"343 -162 OFFCURVE",
"242 -162 CURVE SMOOTH",
"144 -162 OFFCURVE",
"98 -123 OFFCURVE",
"90 -60 CURVE",
"36 -60 LINE",
"45 -155 OFFCURVE",
"112 -210 OFFCURVE",
"242 -210 CURVE SMOOTH",
"376 -210 OFFCURVE",
"445 -140 OFFCURVE",
"468 -8 CURVE SMOOTH",
"560 515 LINE",
"518 515 LINE"
);
},
{
closed = 1;
nodes = (
"163 42 OFFCURVE",
"117 99 OFFCURVE",
"117 200 CURVE SMOOTH",
"117 348 OFFCURVE",
"186 483 OFFCURVE",
"322 483 CURVE SMOOTH",
"426 483 OFFCURVE",
"467 402 OFFCURVE",
"468 303 CURVE SMOOTH",
"469 184 OFFCURVE",
"402 42 OFFCURVE",
"259 42 CURVE SMOOTH"
);
}
);
};
layerId = "CC363ACD-D5A5-4E19-A940-9AF36D109D9E";
paths = (
{
closed = 1;
nodes = (
"487 412 LINE",
"483 412 LINE",
"465 465 OFFCURVE",
"424 530 OFFCURVE",
"317 530 CURVE SMOOTH",
"156 530 OFFCURVE",
"62 378 OFFCURVE",
"62 200 CURVE SMOOTH",
"62 79 OFFCURVE",
"128 -5 OFFCURVE",
"248 -5 CURVE SMOOTH",
"342 -5 OFFCURVE",
"398 42 OFFCURVE",
"428 98 CURVE",
"433 98 LINE",
"414 -2 LINE SMOOTH",
"393 -114 OFFCURVE",
"343 -162 OFFCURVE",
"242 -162 CURVE SMOOTH",
"144 -162 OFFCURVE",
"98 -123 OFFCURVE",
"90 -60 CURVE",
"37 -65 LINE",
"44 -154 OFFCURVE",
"112 -210 OFFCURVE",
"242 -210 CURVE SMOOTH",
"376 -210 OFFCURVE",
"445 -140 OFFCURVE",
"468 -8 CURVE SMOOTH",
"560 515 LINE",
"518 515 LINE"
);
},
{
closed = 1;
nodes = (
"163 42 OFFCURVE",
"117 99 OFFCURVE",
"117 200 CURVE SMOOTH",
"117 348 OFFCURVE",
"186 483 OFFCURVE",
"322 483 CURVE SMOOTH",
"426 483 OFFCURVE",
"467 402 OFFCURVE",
"468 303 CURVE SMOOTH",
"469 184 OFFCURVE",
"402 42 OFFCURVE",
"259 42 CURVE SMOOTH"
);
}
);
width = 604;
},
{
anchors = (
{
name = top;
position = "{401, 535}";
}
);
background = {
paths = (
{
closed = 1;
nodes = (
"452 448 LINE",
"441 448 LINE",
"424 498 OFFCURVE",
"378 550 OFFCURVE",
"293 550 CURVE SMOOTH",
"119 550 OFFCURVE",
"38 399 OFFCURVE",
"38 247 CURVE SMOOTH",
"38 117 OFFCURVE",
"101 32 OFFCURVE",
"218 32 CURVE SMOOTH",
"289 32 OFFCURVE",
"345 57 OFFCURVE",
"382 113 CURVE",
"388 113 LINE",
"372 32 LINE SMOOTH",
"361 -25 OFFCURVE",
"347 -60 OFFCURVE",
"286 -60 CURVE SMOOTH",
"250 -60 OFFCURVE",
"223 -46 OFFCURVE",
"221 -9 CURVE",
"17 -9 LINE",
"14 -147 OFFCURVE",
"102 -210 OFFCURVE",
"272 -210 CURVE SMOOTH",
"471 -210 OFFCURVE",
"547 -135 OFFCURVE",
"577 32 CURVE SMOOTH",
"666 535 LINE",
"484 535 LINE"
);
},
{
closed = 1;
nodes = (
"269 176 OFFCURVE",
"244 208 OFFCURVE",
"244 248 CURVE SMOOTH",
"244 298 OFFCURVE",
"259 389 OFFCURVE",
"350 389 CURVE SMOOTH",
"396 389 OFFCURVE",
"422 357 OFFCURVE",
"422 317 CURVE SMOOTH",
"422 267 OFFCURVE",
"409 176 OFFCURVE",
"316 176 CURVE SMOOTH"
);
}
);
};
layerId = "C1DA716A-5F29-4CD0-A38F-CCADF5849A80";
paths = (
{
closed = 1;
nodes = (
"452 448 LINE",
"441 448 LINE",
"424 498 OFFCURVE",
"378 550 OFFCURVE",
"293 550 CURVE SMOOTH",
"119 550 OFFCURVE",
"38 399 OFFCURVE",
"38 247 CURVE SMOOTH",
"38 117 OFFCURVE",
"101 32 OFFCURVE",
"218 32 CURVE SMOOTH",
"289 32 OFFCURVE",
"345 57 OFFCURVE",
"382 113 CURVE",
"388 113 LINE",
"372 32 LINE SMOOTH",
"361 -25 OFFCURVE",
"347 -60 OFFCURVE",
"286 -60 CURVE SMOOTH",
"245 -60 OFFCURVE",
"228 -46 OFFCURVE",
"221 -9 CURVE",
"17 -29 LINE",
"25 -147 OFFCURVE",
"102 -210 OFFCURVE",
"272 -210 CURVE SMOOTH",
"471 -210 OFFCURVE",
"547 -135 OFFCURVE",
"577 32 CURVE SMOOTH",
"666 535 LINE",
"484 535 LINE"
);
},
{
closed = 1;
nodes = (
"269 176 OFFCURVE",
"244 208 OFFCURVE",
"244 248 CURVE SMOOTH",
"244 298 OFFCURVE",
"259 389 OFFCURVE",
"350 389 CURVE SMOOTH",
"396 389 OFFCURVE",
"422 357 OFFCURVE",
"422 317 CURVE SMOOTH",
"422 267 OFFCURVE",
"409 176 OFFCURVE",
"316 176 CURVE SMOOTH"
);
}
);
width = 675;
},
{
anchors = (
{
name = top;
position = "{370, 520}";
}
);
layerId = "6641C2CA-B9F9-47EE-AEEC-6BEE387D8CB9";
paths = (
{
closed = 1;
nodes = (
"480 422 LINE",
"474 422 LINE",
"456 486 OFFCURVE",
"408 535 OFFCURVE",
"316 535 CURVE SMOOTH",
"155 535 OFFCURVE",
"56 393 OFFCURVE",
"56 218 CURVE SMOOTH",
"56 85 OFFCURVE",
"125 6 OFFCURVE",
"244 6 CURVE SMOOTH",
"324 6 OFFCURVE",
"382 46 OFFCURVE",
"417 102 CURVE",
"422 102 LINE",
"408 23 LINE SMOOTH",
"388 -83 OFFCURVE",
"347 -129 OFFCURVE",
"257 -129 CURVE SMOOTH",
"174 -129 OFFCURVE",
"140 -99 OFFCURVE",
"133 -45 CURVE",
"33 -54 LINE",
"36 -150 OFFCURVE",
"104 -210 OFFCURVE",
"249 -210 CURVE SMOOTH",
"409 -210 OFFCURVE",
"480 -132 OFFCURVE",
"509 33 CURVE SMOOTH",
"595 520 LINE",
"510 520 LINE"
);
},
{
closed = 1;
nodes = (
"197 89 OFFCURVE",
"157 135 OFFCURVE",
"157 222 CURVE SMOOTH",
"157 344 OFFCURVE",
"214 450 OFFCURVE",
"332 450 CURVE SMOOTH",
"418 450 OFFCURVE",
"454 395 OFFCURVE",
"455 310 CURVE SMOOTH",
"455 200 OFFCURVE",
"400 89 OFFCURVE",
"279 89 CURVE SMOOTH"
);
}
);
width = 635;
}
);
leftMetricsKey = o;
rightMetricsKey = j;
unicode = 0067;
userData = {
RMXScaler = {
source = g;
};
};
},
{
color = 4;
glyphname = h;
lastChange = "2018-03-02 10:50:24 +0000";
layers = (
{
anchors = (
{
name = top;
position = "{218, 731}";
}
);
background = {
paths = (
{
closed = 1;
nodes = (
"117 0 LINE",
"166 276 LINE SMOOTH",
"188 399 OFFCURVE",
"269 478 OFFCURVE",
"369 478 CURVE SMOOTH",
"436 478 OFFCURVE",
"471 447 OFFCURVE",
"471 383 CURVE SMOOTH",
"471 365 OFFCURVE",
"469 343 OFFCURVE",
"465 318 CURVE SMOOTH",
"409 0 LINE",
"464 0 LINE",
"519 310 LINE SMOOTH",
"526 347 OFFCURVE",
"526 368 OFFCURVE",
"526 393 CURVE SMOOTH",
"526 487 OFFCURVE",
"460 530 OFFCURVE",
"379 530 CURVE SMOOTH",
"280 530 OFFCURVE",
"210 471 OFFCURVE",
"179 397 CURVE",
"214 420 LINE",
"177 420 LINE",
"186 400 LINE",
"196 515 LINE",
"153 515 LINE",
"62 0 LINE"
);
}
);
};
layerId = "CC363ACD-D5A5-4E19-A940-9AF36D109D9E";
paths = (
{
closed = 1;
nodes = (
"117 0 LINE",
"166 276 LINE SMOOTH",
"188 399 OFFCURVE",
"269 480 OFFCURVE",
"369 480 CURVE SMOOTH",
"436 480 OFFCURVE",
"471 447 OFFCURVE",
"471 383 CURVE SMOOTH",
"471 366 OFFCURVE",
"469 341 OFFCURVE",
"465 318 CURVE SMOOTH",
"409 0 LINE",
"464 0 LINE",
"519 310 LINE SMOOTH",
"526 347 OFFCURVE",
"526 368 OFFCURVE",
"526 393 CURVE SMOOTH",
"526 487 OFFCURVE",
"460 530 OFFCURVE",
"379 530 CURVE SMOOTH",
"280 530 OFFCURVE",
"216 471 OFFCURVE",
"182 397 CURVE",
"214 420 LINE",
"177 420 LINE",
"188 400 LINE",
"249 750 LINE",
"194 750 LINE",
"62 0 LINE"
);
}
);
width = 607;
},
{
anchors = (
{
name = top;
position = "{247, 741}";
}
);
layerId = "C1DA716A-5F29-4CD0-A38F-CCADF5849A80";
paths = (
{
closed = 1;
nodes = (
"222 0 LINE",
"270 272 LINE SMOOTH",
"282 338 OFFCURVE",
"317 368 OFFCURVE",
"369 368 CURVE SMOOTH",
"400 368 OFFCURVE",
"415 351 OFFCURVE",
"415 323 CURVE SMOOTH",
"415 313 OFFCURVE",
"413 295 OFFCURVE",
"411 284 CURVE SMOOTH",
"362 0 LINE",
"567 0 LINE",
"622 319 LINE SMOOTH",
"626 343 OFFCURVE",
"630 378 OFFCURVE",
"630 403 CURVE SMOOTH",
"630 481 OFFCURVE",
"590 550 OFFCURVE",
"485 550 CURVE SMOOTH",
"384 550 OFFCURVE",
"344 499 OFFCURVE",
"294 411 CURVE",
"315 434 LINE",
"282 434 LINE",
"297 413 LINE",
"354 750 LINE",
"149 750 LINE",
"17 0 LINE"
);
}
);
width = 670;
},
{
anchors = (
{
name = top;
position = "{224, 731}";
}
);
layerId = "6641C2CA-B9F9-47EE-AEEC-6BEE387D8CB9";
paths = (
{
closed = 1;
nodes = (
"147 0 LINE",
"198 289 LINE SMOOTH",
"216 385 OFFCURVE",
"280 446 OFFCURVE",
"364 446 CURVE SMOOTH",
"423 446 OFFCURVE",
"452 417 OFFCURVE",
"452 363 CURVE SMOOTH",
"452 349 OFFCURVE",
"450 329 OFFCURVE",
"446 306 CURVE SMOOTH",
"393 0 LINE",
"493 0 LINE",
"547 305 LINE SMOOTH",
"553 341 OFFCURVE",
"556 370 OFFCURVE",
"556 397 CURVE SMOOTH",
"556 489 OFFCURVE",
"498 535 OFFCURVE",
"410 535 CURVE SMOOTH",
"318 535 OFFCURVE",
"251 483 OFFCURVE",
"219 413 CURVE",
"243 431 LINE",
"209 431 LINE",
"221 416 LINE",
"279 750 LINE",
"179 750 LINE",
"47 0 LINE"
);
}
);
width = 624;
}
);
rightMetricsKey = "=n";
unicode = 0068;
userData = {
RMXScaler = {
source = h;
};
};
},
{
color = 4;
glyphname = i;
lastChange = "2018-03-02 10:50:24 +0000";
layers = (
{
background = {
paths = (
{
closed = 1;
nodes = (
"112 0 LINE",
"203 515 LINE",
"148 515 LINE",
"57 0 LINE"
);
},
{
closed = 1;
nodes = (
"219 610 OFFCURVE",
"241 626 OFFCURVE",
"241 659 CURVE SMOOTH",
"241 683 OFFCURVE",
"226 696 OFFCURVE",
"204 696 CURVE SMOOTH",
"179 696 OFFCURVE",
"158 680 OFFCURVE",
"158 647 CURVE SMOOTH",
"158 624 OFFCURVE",
"172 610 OFFCURVE",
"195 610 CURVE SMOOTH"
);
}
);
};
components = (
{
name = idotless;
},
{
name = dotaccentcomb;
transform = "{1, 0, 0, 1, 130, 0}";
}
);
layerId = "CC363ACD-D5A5-4E19-A940-9AF36D109D9E";
width = 260;
},
{
background = {
anchors = (
{
name = ogonek;
position = "{180, 0}";
}
);
paths = (
{
closed = 1;
nodes = (
"220 0 LINE",
"314 535 LINE",
"109 535 LINE",
"15 0 LINE"
);
},
{
closed = 1;
nodes = (
"301 599 OFFCURVE",
"348 645 OFFCURVE",
"348 713 CURVE SMOOTH",
"348 762 OFFCURVE",
"315 793 OFFCURVE",
"254 793 CURVE SMOOTH",
"175 793 OFFCURVE",
"128 748 OFFCURVE",
"128 679 CURVE SMOOTH",
"128 630 OFFCURVE",
"162 599 OFFCURVE",
"224 599 CURVE SMOOTH"
);
}
);
};
components = (
{
name = idotless;
},
{
name = dotaccentcomb;
transform = "{1, 0, 0, 1, 163, 0}";
}
);
layerId = "C1DA716A-5F29-4CD0-A38F-CCADF5849A80";
width = 325;
},
{
components = (
{
name = idotless;
},
{
name = dotaccentcomb;
transform = "{1, 0, 0, 1, 141, 0}";
}
);
layerId = "6641C2CA-B9F9-47EE-AEEC-6BEE387D8CB9";
width = 282;
}
);
unicode = 0069;
userData = {
RMXScaler = {
source = i;
};
};
},
{
color = 4;
glyphname = j;
lastChange = "2018-03-02 16:29:04 +0000";
layers = (
{
background = {
paths = (
{
closed = 1;
nodes = (
"43 -210 OFFCURVE",
"85 -181 OFFCURVE",
"102 -86 CURVE SMOOTH",
"208 515 LINE",
"153 515 LINE",
"48 -82 LINE SMOOTH",
"36 -148 OFFCURVE",
"9 -161 OFFCURVE",
"-26 -161 CURVE SMOOTH",
"-39 -161 OFFCURVE",
"-60 -158 OFFCURVE",
"-75 -154 CURVE",
"-84 -200 LINE",
"-66 -205 OFFCURVE",
"-39 -210 OFFCURVE",
"-17 -210 CURVE SMOOTH"
);
},
{
closed = 1;
nodes = (
"224 610 OFFCURVE",
"246 626 OFFCURVE",
"246 659 CURVE SMOOTH",
"246 683 OFFCURVE",
"231 696 OFFCURVE",
"209 696 CURVE SMOOTH",
"184 696 OFFCURVE",
"163 680 OFFCURVE",
"163 647 CURVE SMOOTH",
"163 624 OFFCURVE",
"177 610 OFFCURVE",
"200 610 CURVE SMOOTH"
);
}
);
};
components = (
{
name = jdotless;
},
{
name = dotaccentcomb;
transform = "{1, 0, 0, 1, 135, 0}";
}
);
layerId = "CC363ACD-D5A5-4E19-A940-9AF36D109D9E";
width = 265;
},
{
background = {
paths = (
{
closed = 1;
nodes = (
"157 -210 OFFCURVE",
"216 -136 OFFCURVE",
"242 9 CURVE SMOOTH",
"336 535 LINE",
"131 535 LINE",
"40 14 LINE SMOOTH",
"32 -32 OFFCURVE",
"13 -56 OFFCURVE",
"-30 -56 CURVE SMOOTH",
"-47 -56 OFFCURVE",
"-71 -53 OFFCURVE",
"-95 -45 CURVE",
"-124 -187 LINE",
"-93 -199 OFFCURVE",
"-31 -210 OFFCURVE",
"12 -210 CURVE SMOOTH"
);
},
{
closed = 1;
nodes = (
"322 599 OFFCURVE",
"369 645 OFFCURVE",
"369 713 CURVE SMOOTH",
"369 762 OFFCURVE",
"336 793 OFFCURVE",
"275 793 CURVE SMOOTH",
"196 793 OFFCURVE",
"149 748 OFFCURVE",
"149 679 CURVE SMOOTH",
"149 630 OFFCURVE",
"183 599 OFFCURVE",
"245 599 CURVE SMOOTH"
);
}
);
};
components = (
{
name = jdotless;
},
{
name = dotaccentcomb;
transform = "{1, 0, 0, 1, 186, 0}";
}
);
layerId = "C1DA716A-5F29-4CD0-A38F-CCADF5849A80";
width = 349;
},
{
components = (
{
name = jdotless;
},
{
name = dotaccentcomb;
transform = "{1, 0, 0, 1, 143, 0}";
}
);
layerId = "6641C2CA-B9F9-47EE-AEEC-6BEE387D8CB9";
width = 290;
}
);
rightMetricsKey = "=i";
unicode = 006A;
userData = {
RMXScaler = {
source = j;
};
};
},
{
color = 4;
glyphname = k;
lastChange = "2018-03-02 10:50:24 +0000";
layers = (
{
anchors = (
{
name = bottom;
position = "{261, 0}";
}
);
associatedMasterId = "CC363ACD-D5A5-4E19-A940-9AF36D109D9E";
background = {
anchors = (
{
name = bottom;
position = "{311, 0}";
}
);
paths = (
{
closed = 1;
nodes = (
"292 221 LINE",
"573 525 LINE",
"408 525 LINE",
"229 323 LINE",
"196 323 LINE",
"196 221 LINE"
);
},
{
closed = 1;
nodes = (
"223 0 LINE",
"223 750 LINE",
"83 750 LINE",
"83 0 LINE"
);
},
{
closed = 1;
nodes = (
"583 0 LINE",
"313 319 LINE",
"200 253 LINE",
"416 0 LINE"
);
}
);
};
layerId = "873A0B25-08FC-42D7-98BE-1098C7D91BCD";
name = "Aug 30 17, 11:49";
paths = (
{
closed = 1;
nodes = (
"287 221 LINE",
"609 525 LINE",
"445 525 LINE",
"240 323 LINE",
"207 323 LINE",
"189 221 LINE"
);
},
{
closed = 1;
nodes = (
"177 0 LINE",
"309 750 LINE",
"169 750 LINE",
"37 0 LINE"
);
},
{
closed = 1;
nodes = (
"526 0 LINE",
"324 319 LINE",
"199 253 LINE",
"360 0 LINE"
);
}
);
width = 588;
},
{
anchors = (
{
name = bottom;
position = "{230, 0}";
}
);
layerId = "CC363ACD-D5A5-4E19-A940-9AF36D109D9E";
paths = (
{
closed = 1;
nodes = (
"184 244 LINE",
"521 515 LINE",
"446 515 LINE",
"172 295 LINE",
"151 295 LINE",
"142 244 LINE"
);
},
{
closed = 1;
nodes = (
"117 0 LINE",
"249 750 LINE",
"194 750 LINE",
"62 0 LINE"
);
},
{
closed = 1;
nodes = (
"429 0 LINE",
"195 284 LINE",
"150 259 LINE",
"366 0 LINE"
);
}
);
width = 491;
},
{
anchors = (
{
name = bottom;
position = "{285, 0}";
}
);
layerId = "C1DA716A-5F29-4CD0-A38F-CCADF5849A80";
paths = (
{
closed = 1;
nodes = (
"392 204 LINE",
"664 535 LINE",
"444 535 LINE",
"288 343 LINE",
"250 343 LINE",
"226 204 LINE"
);
},
{
closed = 1;
nodes = (
"222 0 LINE",
"354 750 LINE",
"149 750 LINE",
"17 0 LINE"
);
},
{
closed = 1;
nodes = (
"576 0 LINE",
"412 331 LINE",
"240 253 LINE",
"359 0 LINE"
);
}
);
width = 629;
},
{
anchors = (
{
name = bottom;
position = "{245, 0}";
}
);
layerId = "6641C2CA-B9F9-47EE-AEEC-6BEE387D8CB9";
paths = (
{
closed = 1;
nodes = (
"249 237 LINE",
"569 520 LINE",
"439 520 LINE",
"207 313 LINE",
"181 313 LINE",
"168 237 LINE"
);
},
{
closed = 1;
nodes = (
"147 0 LINE",
"279 750 LINE",
"179 750 LINE",
"47 0 LINE"
);
},
{
closed = 1;
nodes = (
"480 0 LINE",
"261 303 LINE",
"176 261 LINE",
"365 0 LINE"
);
}
);
width = 541;
}
);
leftMetricsKey = h;
unicode = 006B;
userData = {
RMXScaler = {
source = k;
};
};
},
{
color = 4;
glyphname = l;
lastChange = "2018-03-02 10:50:24 +0000";
layers = (
{
anchors = (
{
name = bottom;
position = "{89, 0}";
},
{
name = periodcentered;
position = "{258, 370}";
},
{
name = top;
position = "{218, 731}";
},
{
name = topright;
position = "{284, 515}";
}
);
layerId = "CC363ACD-D5A5-4E19-A940-9AF36D109D9E";
paths = (
{
closed = 1;
nodes = (
"117 0 LINE",
"249 750 LINE",
"194 750 LINE",
"62 0 LINE"
);
}
);
width = 269;
},
{
anchors = (
{
name = bottom;
position = "{120, 0}";
},
{
name = periodcentered;
position = "{330, 370}";
},
{
name = top;
position = "{248, 741}";
},
{
name = topright;
position = "{399, 535}";
}
);
layerId = "C1DA716A-5F29-4CD0-A38F-CCADF5849A80";
paths = (
{
closed = 1;
nodes = (
"222 0 LINE",
"354 750 LINE",
"149 750 LINE",
"17 0 LINE"
);
}
);
width = 333;
},
{
anchors = (
{
name = bottom;
position = "{96, 0}";
},
{
name = periodcentered;
position = "{283, 370}";
},
{
name = top;
position = "{224, 730}";
},
{
name = topright;
position = "{314, 520}";
}
);
layerId = "6641C2CA-B9F9-47EE-AEEC-6BEE387D8CB9";
paths = (
{
closed = 1;
nodes = (
"147 0 LINE",
"279 750 LINE",
"179 750 LINE",
"47 0 LINE"
);
}
);
width = 285;
}
);
leftMetricsKey = h;
rightMetricsKey = d;
unicode = 006C;
userData = {
RMXScaler = {
source = l;
};
};
},
{
color = 4;
glyphname = m;
lastChange = "2018-03-02 10:50:24 +0000";
layers = (
{
background = {
paths = (
{
closed = 1;
nodes = (
"444 0 LINE",
"493 276 LINE SMOOTH",
"515 399 OFFCURVE",
"596 478 OFFCURVE",
"696 478 CURVE SMOOTH",
"763 478 OFFCURVE",
"798 447 OFFCURVE",
"798 383 CURVE SMOOTH",
"798 365 OFFCURVE",
"796 343 OFFCURVE",
"792 318 CURVE SMOOTH",
"736 0 LINE",
"791 0 LINE",
"846 310 LINE SMOOTH",
"853 347 OFFCURVE",
"853 368 OFFCURVE",
"853 393 CURVE SMOOTH",
"853 487 OFFCURVE",
"787 530 OFFCURVE",
"706 530 CURVE SMOOTH",
"607 530 OFFCURVE",
"537 471 OFFCURVE",
"506 397 CURVE",
"541 420 LINE",
"504 420 LINE",
"513 400 LINE",
"523 515 LINE",
"480 515 LINE",
"389 0 LINE"
);
}
);
};
layerId = "CC363ACD-D5A5-4E19-A940-9AF36D109D9E";
paths = (
{
closed = 1;
nodes = (
"112 0 LINE",
"161 276 LINE SMOOTH",
"183 399 OFFCURVE",
"264 480 OFFCURVE",
"359 480 CURVE SMOOTH",
"421 480 OFFCURVE",
"456 447 OFFCURVE",
"456 383 CURVE SMOOTH",
"456 364 OFFCURVE",
"454 343 OFFCURVE",
"450 318 CURVE SMOOTH",
"394 0 LINE",
"449 0 LINE",
"498 276 LINE SMOOTH",
"520 399 OFFCURVE",
"601 480 OFFCURVE",
"696 480 CURVE SMOOTH",
"758 480 OFFCURVE",
"793 447 OFFCURVE",
"793 383 CURVE SMOOTH",
"793 365 OFFCURVE",
"791 341 OFFCURVE",
"787 318 CURVE SMOOTH",
"731 0 LINE",
"786 0 LINE",
"841 310 LINE SMOOTH",
"848 347 OFFCURVE",
"848 370 OFFCURVE",
"848 393 CURVE SMOOTH",
"848 487 OFFCURVE",
"782 530 OFFCURVE",
"706 530 CURVE SMOOTH",
"616 530 OFFCURVE",
"546 480 OFFCURVE",
"503 397 CURVE",
"532 410 LINE",
"495 410 LINE",
"508 392 LINE",
"508 485 OFFCURVE",
"445 530 OFFCURVE",
"369 530 CURVE SMOOTH",
"275 530 OFFCURVE",
"205 471 OFFCURVE",
"174 397 CURVE",
"210 420 LINE",
"173 420 LINE",
"181 400 LINE",
"191 515 LINE",
"148 515 LINE",
"57 0 LINE"
);
}
);
width = 929;
},
{
background = {
paths = (
{
closed = 1;
nodes = (
"218 0 LINE",
"266 272 LINE SMOOTH",
"278 338 OFFCURVE",
"313 368 OFFCURVE",
"360 368 CURVE SMOOTH",
"386 368 OFFCURVE",
"401 351 OFFCURVE",
"401 323 CURVE SMOOTH",
"401 314 OFFCURVE",
"399 296 OFFCURVE",
"397 285 CURVE SMOOTH",
"347 0 LINE",
"544 0 LINE",
"592 272 LINE SMOOTH",
"604 338 OFFCURVE",
"639 368 OFFCURVE",
"686 368 CURVE SMOOTH",
"712 368 OFFCURVE",
"727 351 OFFCURVE",
"727 323 CURVE SMOOTH",
"727 315 OFFCURVE",
"725 298 OFFCURVE",
"723 285 CURVE SMOOTH",
"673 0 LINE",
"878 0 LINE",
"934 319 LINE SMOOTH",
"938 343 OFFCURVE",
"942 378 OFFCURVE",
"942 403 CURVE SMOOTH",
"942 481 OFFCURVE",
"902 550 OFFCURVE",
"809 550 CURVE SMOOTH",
"699 550 OFFCURVE",
"640 500 OFFCURVE",
"599 397 CURVE",
"654 420 LINE",
"568 420 LINE",
"605 381 LINE",
"611 479 OFFCURVE",
"575 550 OFFCURVE",
"474 550 CURVE SMOOTH",
"374 550 OFFCURVE",
"326 496 OFFCURVE",
"281 404 CURVE",
"306 427 LINE",
"277 427 LINE",
"288 405 LINE",
"288 535 LINE",
"108 535 LINE",
"13 0 LINE"
);
}
);
};
layerId = "C1DA716A-5F29-4CD0-A38F-CCADF5849A80";
paths = (
{
closed = 1;
nodes = (
"218 0 LINE",
"266 272 LINE SMOOTH",
"278 338 OFFCURVE",
"310 368 OFFCURVE",
"356 368 CURVE SMOOTH",
"387 368 OFFCURVE",
"401 353 OFFCURVE",
"401 319 CURVE SMOOTH",
"401 308 OFFCURVE",
"399 293 OFFCURVE",
"397 282 CURVE SMOOTH",
"347 0 LINE",
"544 0 LINE",
"592 272 LINE SMOOTH",
"604 338 OFFCURVE",
"636 368 OFFCURVE",
"682 368 CURVE SMOOTH",
"713 368 OFFCURVE",
"727 353 OFFCURVE",
"727 319 CURVE SMOOTH",
"727 308 OFFCURVE",
"725 293 OFFCURVE",
"723 282 CURVE SMOOTH",
"673 0 LINE",
"878 0 LINE",
"933 310 LINE SMOOTH",
"938 338 OFFCURVE",
"942 366 OFFCURVE",
"942 401 CURVE SMOOTH",
"942 497 OFFCURVE",
"891 550 OFFCURVE",
"798 550 CURVE SMOOTH",
"710 550 OFFCURVE",
"651 509 OFFCURVE",
"607 413 CURVE",
"622 420 LINE",
"593 420 LINE",
"605 414 LINE",
"599 502 OFFCURVE",
"556 550 OFFCURVE",
"474 550 CURVE SMOOTH",
"385 550 OFFCURVE",
"327 511 OFFCURVE",
"284 420 CURVE",
"299 427 LINE",
"270 427 LINE",
"281 420 LINE",
"281 535 LINE",
"108 535 LINE",
"13 0 LINE"
);
}
);
width = 982;
},
{
layerId = "6641C2CA-B9F9-47EE-AEEC-6BEE387D8CB9";
paths = (
{
closed = 1;
nodes = (
"145 0 LINE",
"196 289 LINE SMOOTH",
"213 385 OFFCURVE",
"275 446 OFFCURVE",
"357 446 CURVE SMOOTH",
"413 446 OFFCURVE",
"442 417 OFFCURVE",
"442 363 CURVE SMOOTH",
"442 348 OFFCURVE",
"440 330 OFFCURVE",
"436 306 CURVE SMOOTH",
"382 0 LINE",
"482 0 LINE",
"533 289 LINE SMOOTH",
"550 385 OFFCURVE",
"612 446 OFFCURVE",
"694 446 CURVE SMOOTH",
"750 446 OFFCURVE",
"779 417 OFFCURVE",
"779 363 CURVE SMOOTH",
"779 349 OFFCURVE",
"777 329 OFFCURVE",
"773 306 CURVE SMOOTH",
"719 0 LINE",
"819 0 LINE",
"873 305 LINE SMOOTH",
"879 341 OFFCURVE",
"882 371 OFFCURVE",
"882 397 CURVE SMOOTH",
"882 489 OFFCURVE",
"825 535 OFFCURVE",
"739 535 CURVE SMOOTH",
"649 535 OFFCURVE",
"579 484 OFFCURVE",
"540 406 CURVE",
"563 419 LINE",
"530 419 LINE",
"543 407 LINE",
"539 492 OFFCURVE",
"484 535 OFFCURVE",
"403 535 CURVE SMOOTH",
"312 535 OFFCURVE",
"244 482 OFFCURVE",
"213 411 CURVE",
"239 429 LINE",
"205 429 LINE",
"215 414 LINE",
"222 520 LINE",
"137 520 LINE",
"45 0 LINE"
);
}
);
width = 950;
}
);
leftMetricsKey = n;
rightMetricsKey = n;
unicode = 006D;
userData = {
RMXScaler = {
source = m;
};
};
},
{
color = 4;
glyphname = n;
lastChange = "2018-03-02 10:50:24 +0000";
layers = (
{
anchors = (
{
name = apostrophe;
position = "{52, 515}";
},
{
name = bottom;
position = "{251, 0}";
},
{
name = top;
position = "{346, 515}";
}
);
background = {
paths = (
{
closed = 1;
nodes = (
"112 0 LINE",
"161 276 LINE SMOOTH",
"183 399 OFFCURVE",
"264 478 OFFCURVE",
"364 478 CURVE SMOOTH",
"431 478 OFFCURVE",
"466 447 OFFCURVE",
"466 383 CURVE SMOOTH",
"466 365 OFFCURVE",
"464 343 OFFCURVE",
"460 318 CURVE SMOOTH",
"404 0 LINE",
"459 0 LINE",
"514 310 LINE SMOOTH",
"521 347 OFFCURVE",
"521 368 OFFCURVE",
"521 393 CURVE SMOOTH",
"521 487 OFFCURVE",
"455 530 OFFCURVE",
"374 530 CURVE SMOOTH",
"275 530 OFFCURVE",
"205 471 OFFCURVE",
"174 397 CURVE",
"209 420 LINE",
"172 420 LINE",
"181 400 LINE",
"191 515 LINE",
"148 515 LINE",
"57 0 LINE"
);
}
);
};
layerId = "CC363ACD-D5A5-4E19-A940-9AF36D109D9E";
paths = (
{
closed = 1;
nodes = (
"112 0 LINE",
"161 276 LINE SMOOTH",
"183 400 OFFCURVE",
"264 480 OFFCURVE",
"366 480 CURVE SMOOTH",
"431 480 OFFCURVE",
"466 448 OFFCURVE",
"466 383 CURVE SMOOTH",
"466 365 OFFCURVE",
"464 343 OFFCURVE",
"460 318 CURVE SMOOTH",
"404 0 LINE",
"459 0 LINE",
"515 317 LINE SMOOTH",
"519 341 OFFCURVE",
"521 362 OFFCURVE",
"521 387 CURVE SMOOTH",
"521 476 OFFCURVE",
"469 530 OFFCURVE",
"371 530 CURVE SMOOTH",
"284 530 OFFCURVE",
"208 478 OFFCURVE",
"174 397 CURVE",
"209 420 LINE",
"172 420 LINE",
"181 400 LINE",
"191 515 LINE",
"148 515 LINE",
"57 0 LINE"
);
}
);
width = 602;
},
{
anchors = (
{
name = apostrophe;
position = "{51, 535}";
},
{
name = bottom;
position = "{287, 0}";
},
{
name = top;
position = "{384, 535}";
}
);
background = {
paths = (
{
closed = 1;
nodes = (
"218 0 LINE",
"266 272 LINE SMOOTH",
"277 334 OFFCURVE",
"312 368 OFFCURVE",
"363 368 CURVE SMOOTH",
"394 368 OFFCURVE",
"411 353 OFFCURVE",
"411 323 CURVE SMOOTH",
"411 313 OFFCURVE",
"409 295 OFFCURVE",
"407 285 CURVE SMOOTH",
"357 0 LINE",
"562 0 LINE",
"618 319 LINE SMOOTH",
"622 343 OFFCURVE",
"626 378 OFFCURVE",
"626 403 CURVE SMOOTH",
"626 481 OFFCURVE",
"586 550 OFFCURVE",
"481 550 CURVE SMOOTH",
"371 550 OFFCURVE",
"326 496 OFFCURVE",
"281 404 CURVE",
"306 427 LINE",
"277 427 LINE",
"288 405 LINE",
"288 535 LINE",
"108 535 LINE",
"13 0 LINE"
);
}
);
};
guideLines = (
{
angle = 79.9309;
position = "{218, 0}";
}
);
layerId = "C1DA716A-5F29-4CD0-A38F-CCADF5849A80";
paths = (
{
closed = 1;
nodes = (
"218 0 LINE",
"266 272 LINE SMOOTH",
"278 338 OFFCURVE",
"312 368 OFFCURVE",
"361 368 CURVE SMOOTH",
"396 368 OFFCURVE",
"411 353 OFFCURVE",
"411 319 CURVE SMOOTH",
"411 308 OFFCURVE",
"409 293 OFFCURVE",
"407 282 CURVE SMOOTH",
"357 0 LINE",
"562 0 LINE",
"617 310 LINE SMOOTH",
"622 338 OFFCURVE",
"626 366 OFFCURVE",
"626 401 CURVE SMOOTH",
"626 497 OFFCURVE",
"574 550 OFFCURVE",
"477 550 CURVE SMOOTH",
"388 550 OFFCURVE",
"327 511 OFFCURVE",
"284 420 CURVE",
"299 427 LINE",
"270 427 LINE",
"281 420 LINE",
"281 535 LINE",
"108 535 LINE",
"13 0 LINE"
);
}
);
width = 666;
},
{
anchors = (
{
name = apostrophe;
position = "{51, 520}";
},
{
name = bottom;
position = "{270, 0}";
},
{
name = top;
position = "{366, 520}";
}
);
layerId = "6641C2CA-B9F9-47EE-AEEC-6BEE387D8CB9";
paths = (
{
closed = 1;
nodes = (
"145 0 LINE",
"195 287 LINE SMOOTH",
"213 386 OFFCURVE",
"277 446 OFFCURVE",
"362 446 CURVE SMOOTH",
"420 446 OFFCURVE",
"450 418 OFFCURVE",
"450 363 CURVE SMOOTH",
"450 349 OFFCURVE",
"448 330 OFFCURVE",
"444 306 CURVE SMOOTH",
"390 0 LINE",
"490 0 LINE",
"544 305 LINE SMOOTH",
"550 340 OFFCURVE",
"553 367 OFFCURVE",
"553 393 CURVE SMOOTH",
"553 483 OFFCURVE",
"499 535 OFFCURVE",
"403 535 CURVE SMOOTH",
"319 535 OFFCURVE",
"247 489 OFFCURVE",
"213 414 CURVE",
"238 429 LINE",
"204 429 LINE",
"214 414 LINE",
"221 520 LINE",
"137 520 LINE",
"45 0 LINE"
);
}
);
width = 622;
}
);
unicode = 006E;
userData = {
RMXScaler = {
source = n;
};
};
},
{
color = 4;
glyphname = o;
lastChange = "2018-03-02 10:50:24 +0000";
layers = (
{
anchors = (
{
name = bottom;
position = "{291, 0}";
},
{
name = top;
position = "{334, 515}";
}
);
background = {
paths = (
{
closed = 1;
nodes = (
"463 -15 OFFCURVE",
"531 157 OFFCURVE",
"531 317 CURVE SMOOTH",
"531 450 OFFCURVE",
"452 530 OFFCURVE",
"328 530 CURVE SMOOTH",
"131 530 OFFCURVE",
"62 356 OFFCURVE",
"62 197 CURVE SMOOTH",
"62 64 OFFCURVE",
"142 -15 OFFCURVE",
"265 -15 CURVE SMOOTH"
);
},
{
closed = 1;
nodes = (
"170 32 OFFCURVE",
"117 92 OFFCURVE",
"117 197 CURVE SMOOTH",
"117 328 OFFCURVE",
"159 483 OFFCURVE",
"326 483 CURVE SMOOTH",
"423 483 OFFCURVE",
"476 422 OFFCURVE",
"476 317 CURVE SMOOTH",
"476 185 OFFCURVE",
"434 32 OFFCURVE",
"267 32 CURVE SMOOTH"
);
}
);
};
layerId = "CC363ACD-D5A5-4E19-A940-9AF36D109D9E";
paths = (
{
closed = 1;
nodes = (
"433 -15 OFFCURVE",
"532 116 OFFCURVE",
"532 314 CURVE SMOOTH",
"532 449 OFFCURVE",
"457 530 OFFCURVE",
"326 530 CURVE SMOOTH",
"162 530 OFFCURVE",
"63 399 OFFCURVE",
"63 201 CURVE SMOOTH",
"63 66 OFFCURVE",
"138 -15 OFFCURVE",
"269 -15 CURVE SMOOTH"
);
},
{
closed = 1;
nodes = (
"168 32 OFFCURVE",
"118 94 OFFCURVE",
"118 201 CURVE SMOOTH",
"118 378 OFFCURVE",
"191 483 OFFCURVE",
"322 483 CURVE SMOOTH",
"427 483 OFFCURVE",
"477 421 OFFCURVE",
"477 314 CURVE SMOOTH",
"477 135 OFFCURVE",
"404 32 OFFCURVE",
"273 32 CURVE SMOOTH"
);
}
);
width = 595;
},
{
anchors = (
{
name = bottom;
position = "{289, 0}";
},
{
name = top;
position = "{357, 535}";
}
);
background = {
paths = (
{
closed = 1;
nodes = (
"507 -15 OFFCURVE",
"608 125 OFFCURVE",
"608 320 CURVE SMOOTH",
"608 462 OFFCURVE",
"507 550 OFFCURVE",
"354 550 CURVE SMOOTH",
"135 550 OFFCURVE",
"34 410 OFFCURVE",
"34 215 CURVE SMOOTH",
"34 73 OFFCURVE",
"136 -15 OFFCURVE",
"288 -15 CURVE SMOOTH"
);
},
{
closed = 1;
nodes = (
"263 143 OFFCURVE",
"239 172 OFFCURVE",
"239 225 CURVE SMOOTH",
"239 305 OFFCURVE",
"249 391 OFFCURVE",
"337 391 CURVE SMOOTH",
"379 391 OFFCURVE",
"403 362 OFFCURVE",
"403 309 CURVE SMOOTH",
"403 229 OFFCURVE",
"391 143 OFFCURVE",
"305 143 CURVE SMOOTH"
);
}
);
};
guideLines = (
{
angle = 80;
position = "{320, 268}";
}
);
layerId = "C1DA716A-5F29-4CD0-A38F-CCADF5849A80";
paths = (
{
closed = 1;
nodes = (
"516 -15 OFFCURVE",
"608 137 OFFCURVE",
"608 322 CURVE SMOOTH",
"608 473 OFFCURVE",
"511 550 OFFCURVE",
"344 550 CURVE SMOOTH",
"125 550 OFFCURVE",
"33 398 OFFCURVE",
"33 213 CURVE SMOOTH",
"33 62 OFFCURVE",
"130 -15 OFFCURVE",
"297 -15 CURVE SMOOTH"
);
},
{
closed = 1;
nodes = (
"260 143 OFFCURVE",
"237 164 OFFCURVE",
"237 221 CURVE SMOOTH",
"237 326 OFFCURVE",
"272 392 OFFCURVE",
"335 392 CURVE SMOOTH",
"381 392 OFFCURVE",
"404 371 OFFCURVE",
"404 314 CURVE SMOOTH",
"404 209 OFFCURVE",
"369 143 OFFCURVE",
"306 143 CURVE SMOOTH"
);
}
);
width = 641;
},
{
anchors = (
{
name = top;
position = "{341, 515}";
}
);
associatedMasterId = "CC363ACD-D5A5-4E19-A940-9AF36D109D9E";
background = {
paths = (
{
closed = 1;
nodes = (
"463 -15 OFFCURVE",
"531 157 OFFCURVE",
"531 317 CURVE SMOOTH",
"531 450 OFFCURVE",
"452 530 OFFCURVE",
"328 530 CURVE SMOOTH",
"131 530 OFFCURVE",
"62 356 OFFCURVE",
"62 197 CURVE SMOOTH",
"62 64 OFFCURVE",
"142 -15 OFFCURVE",
"265 -15 CURVE SMOOTH"
);
},
{
closed = 1;
nodes = (
"170 32 OFFCURVE",
"117 92 OFFCURVE",
"117 197 CURVE SMOOTH",
"117 328 OFFCURVE",
"159 483 OFFCURVE",
"326 483 CURVE SMOOTH",
"423 483 OFFCURVE",
"476 422 OFFCURVE",
"476 317 CURVE SMOOTH",
"476 185 OFFCURVE",
"434 32 OFFCURVE",
"267 32 CURVE SMOOTH"
);
}
);
};
layerId = "9D8F7E6B-5AAE-410B-B2B6-D8CC432F32E6";
name = "Sep 27 17, 14:13";
paths = (
{
closed = 1;
nodes = (
"463 -15 OFFCURVE",
"531 157 OFFCURVE",
"531 317 CURVE SMOOTH",
"531 450 OFFCURVE",
"452 530 OFFCURVE",
"328 530 CURVE SMOOTH",
"131 530 OFFCURVE",
"62 356 OFFCURVE",
"62 197 CURVE SMOOTH",
"62 64 OFFCURVE",
"142 -15 OFFCURVE",
"265 -15 CURVE SMOOTH"
);
},
{
closed = 1;
nodes = (
"170 32 OFFCURVE",
"117 92 OFFCURVE",
"117 197 CURVE SMOOTH",
"117 328 OFFCURVE",
"159 483 OFFCURVE",
"326 483 CURVE SMOOTH",
"423 483 OFFCURVE",
"476 422 OFFCURVE",
"476 317 CURVE SMOOTH",
"476 185 OFFCURVE",
"434 32 OFFCURVE",
"267 32 CURVE SMOOTH"
);
}
);
width = 594;
},
{
anchors = (
{
name = top;
position = "{346, 525}";
}
);
associatedMasterId = "CC363ACD-D5A5-4E19-A940-9AF36D109D9E";
background = {
paths = (
{
closed = 1;
nodes = (
"474 -15 OFFCURVE",
"583 108 OFFCURVE",
"583 323 CURVE SMOOTH",
"583 459 OFFCURVE",
"496 540 OFFCURVE",
"348 540 CURVE SMOOTH",
"157 540 OFFCURVE",
"48 417 OFFCURVE",
"48 202 CURVE SMOOTH",
"48 66 OFFCURVE",
"135 -15 OFFCURVE",
"283 -15 CURVE SMOOTH"
);
},
{
closed = 1;
nodes = (
"223 100 OFFCURVE",
"190 133 OFFCURVE",
"190 205 CURVE SMOOTH",
"190 325 OFFCURVE",
"229 425 OFFCURVE",
"337 425 CURVE SMOOTH",
"408 425 OFFCURVE",
"441 392 OFFCURVE",
"441 320 CURVE SMOOTH",
"441 200 OFFCURVE",
"402 100 OFFCURVE",
"294 100 CURVE SMOOTH"
);
}
);
};
layerId = "9E1BBE25-F631-4A0C-B01E-887E684B7725";
name = "Oct 3 17, 16:52";
paths = (
{
closed = 1;
nodes = (
"474 -15 OFFCURVE",
"583 108 OFFCURVE",
"583 323 CURVE SMOOTH",
"583 459 OFFCURVE",
"496 540 OFFCURVE",
"348 540 CURVE SMOOTH",
"157 540 OFFCURVE",
"48 417 OFFCURVE",
"48 202 CURVE SMOOTH",
"48 66 OFFCURVE",
"135 -15 OFFCURVE",
"283 -15 CURVE SMOOTH"
);
},
{
closed = 1;
nodes = (
"223 100 OFFCURVE",
"190 133 OFFCURVE",
"190 205 CURVE SMOOTH",
"190 325 OFFCURVE",
"229 425 OFFCURVE",
"337 425 CURVE SMOOTH",
"408 425 OFFCURVE",
"441 392 OFFCURVE",
"441 320 CURVE SMOOTH",
"441 200 OFFCURVE",
"402 100 OFFCURVE",
"294 100 CURVE SMOOTH"
);
}
);
width = 631;
},
{
anchors = (
{
name = top;
position = "{368, 535}";
}
);
associatedMasterId = "C1DA716A-5F29-4CD0-A38F-CCADF5849A80";
background = {
paths = (
{
closed = 1;
nodes = (
"507 -15 OFFCURVE",
"608 125 OFFCURVE",
"608 320 CURVE SMOOTH",
"608 462 OFFCURVE",
"507 550 OFFCURVE",
"354 550 CURVE SMOOTH",
"135 550 OFFCURVE",
"34 410 OFFCURVE",
"34 215 CURVE SMOOTH",
"34 73 OFFCURVE",
"136 -15 OFFCURVE",
"288 -15 CURVE SMOOTH"
);
},
{
closed = 1;
nodes = (
"263 143 OFFCURVE",
"239 172 OFFCURVE",
"239 225 CURVE SMOOTH",
"239 305 OFFCURVE",
"249 391 OFFCURVE",
"337 391 CURVE SMOOTH",
"379 391 OFFCURVE",
"403 362 OFFCURVE",
"403 309 CURVE SMOOTH",
"403 229 OFFCURVE",
"391 143 OFFCURVE",
"305 143 CURVE SMOOTH"
);
}
);
};
layerId = "238EBE47-9D70-4C6C-998E-759ED4EA4CB0";
name = "Oct 3 17, 21:07";
paths = (
{
closed = 1;
nodes = (
"507 -15 OFFCURVE",
"608 125 OFFCURVE",
"608 320 CURVE SMOOTH",
"608 462 OFFCURVE",
"507 550 OFFCURVE",
"354 550 CURVE SMOOTH",
"135 550 OFFCURVE",
"34 410 OFFCURVE",
"34 215 CURVE SMOOTH",
"34 73 OFFCURVE",
"136 -15 OFFCURVE",
"288 -15 CURVE SMOOTH"
);
},
{
closed = 1;
nodes = (
"263 143 OFFCURVE",
"239 172 OFFCURVE",
"239 225 CURVE SMOOTH",
"239 305 OFFCURVE",
"249 391 OFFCURVE",
"337 391 CURVE SMOOTH",
"379 391 OFFCURVE",
"403 362 OFFCURVE",
"403 309 CURVE SMOOTH",
"403 229 OFFCURVE",
"391 143 OFFCURVE",
"305 143 CURVE SMOOTH"
);
}
);
width = 642;
},
{
anchors = (
{
name = top;
position = "{368, 535}";
}
);
associatedMasterId = "C1DA716A-5F29-4CD0-A38F-CCADF5849A80";
background = {
paths = (
{
closed = 1;
nodes = (
"507 -25 OFFCURVE",
"608 125 OFFCURVE",
"608 320 CURVE SMOOTH",
"608 462 OFFCURVE",
"507 546 OFFCURVE",
"354 550 CURVE SMOOTH",
"135 556 OFFCURVE",
"46 410 OFFCURVE",
"38 236 CURVE SMOOTH",
"30 73 OFFCURVE",
"136 -8 OFFCURVE",
"288 -15 CURVE SMOOTH"
);
},
{
closed = 1;
nodes = (
"255 146 OFFCURVE",
"232 172 OFFCURVE",
"237 245 CURVE SMOOTH",
"244 340 OFFCURVE",
"269 395 OFFCURVE",
"337 392 CURVE SMOOTH",
"379 390 OFFCURVE",
"403 362 OFFCURVE",
"403 309 CURVE SMOOTH",
"403 229 OFFCURVE",
"386 137 OFFCURVE",
"300 143 CURVE SMOOTH"
);
}
);
};
guideLines = (
{
angle = 80;
position = "{321, 268}";
}
);
layerId = "6D7BA73E-2F40-4FDE-A60F-57F1F342B806";
name = "Oct 3 17, 21:24";
paths = (
{
closed = 1;
nodes = (
"490 -15 OFFCURVE",
"602 115 OFFCURVE",
"605 316 CURVE SMOOTH",
"607 463 OFFCURVE",
"507 550 OFFCURVE",
"344 550 CURVE SMOOTH",
"152 550 OFFCURVE",
"39 420 OFFCURVE",
"37 219 CURVE SMOOTH",
"36 72 OFFCURVE",
"135 -15 OFFCURVE",
"298 -15 CURVE SMOOTH"
);
},
{
closed = 1;
nodes = (
"260 145 OFFCURVE",
"235 164 OFFCURVE",
"237 227 CURVE SMOOTH",
"240 339 OFFCURVE",
"275 393 OFFCURVE",
"336 392 CURVE SMOOTH",
"382 391 OFFCURVE",
"407 371 OFFCURVE",
"405 308 CURVE SMOOTH",
"401 196 OFFCURVE",
"367 141 OFFCURVE",
"306 143 CURVE SMOOTH"
);
}
);
width = 642;
},
{
anchors = (
{
name = top;
position = "{368, 535}";
}
);
associatedMasterId = "C1DA716A-5F29-4CD0-A38F-CCADF5849A80";
background = {
anchors = (
{
name = top;
position = "{368, 535}";
}
);
paths = (
{
closed = 1;
nodes = (
"490 -15 OFFCURVE",
"602 115 OFFCURVE",
"605 316 CURVE SMOOTH",
"607 463 OFFCURVE",
"507 550 OFFCURVE",
"344 550 CURVE SMOOTH",
"152 550 OFFCURVE",
"39 420 OFFCURVE",
"37 219 CURVE SMOOTH",
"36 72 OFFCURVE",
"135 -15 OFFCURVE",
"298 -15 CURVE SMOOTH"
);
},
{
closed = 1;
nodes = (
"260 145 OFFCURVE",
"235 164 OFFCURVE",
"237 227 CURVE SMOOTH",
"240 339 OFFCURVE",
"275 393 OFFCURVE",
"336 392 CURVE SMOOTH",
"382 391 OFFCURVE",
"407 371 OFFCURVE",
"405 308 CURVE SMOOTH",
"401 196 OFFCURVE",
"367 141 OFFCURVE",
"306 143 CURVE SMOOTH"
);
}
);
};
guideLines = (
{
angle = 80;
position = "{321, 268}";
}
);
layerId = "704A058A-F542-4D34-B1D0-03F1D0473D69";
name = "Oct 3 17, 21:28";
paths = (
{
closed = 1;
nodes = (
"490 -15 OFFCURVE",
"603 115 OFFCURVE",
"606 316 CURVE SMOOTH",
"608 463 OFFCURVE",
"507 550 OFFCURVE",
"346 550 CURVE SMOOTH",
"152 550 OFFCURVE",
"40 420 OFFCURVE",
"37 219 CURVE SMOOTH",
"35 72 OFFCURVE",
"135 -15 OFFCURVE",
"297 -15 CURVE SMOOTH"
);
},
{
closed = 1;
nodes = (
"260 143 OFFCURVE",
"237 164 OFFCURVE",
"237 221 CURVE SMOOTH",
"237 326 OFFCURVE",
"272 392 OFFCURVE",
"336 392 CURVE SMOOTH",
"383 392 OFFCURVE",
"406 371 OFFCURVE",
"406 314 CURVE SMOOTH",
"406 209 OFFCURVE",
"371 143 OFFCURVE",
"307 143 CURVE SMOOTH"
);
}
);
width = 642;
},
{
anchors = (
{
name = bottom;
position = "{292, 0}";
},
{
name = top;
position = "{341, 520}";
}
);
layerId = "6641C2CA-B9F9-47EE-AEEC-6BEE387D8CB9";
paths = (
{
closed = 1;
nodes = (
"457 -15 OFFCURVE",
"559 120 OFFCURVE",
"559 315 CURVE SMOOTH",
"559 455 OFFCURVE",
"476 535 OFFCURVE",
"333 535 CURVE SMOOTH",
"157 535 OFFCURVE",
"55 401 OFFCURVE",
"55 206 CURVE SMOOTH",
"55 65 OFFCURVE",
"139 -15 OFFCURVE",
"281 -15 CURVE SMOOTH"
);
},
{
closed = 1;
nodes = (
"198 68 OFFCURVE",
"156 117 OFFCURVE",
"156 207 CURVE SMOOTH",
"156 363 OFFCURVE",
"217 452 OFFCURVE",
"329 452 CURVE SMOOTH",
"416 452 OFFCURVE",
"458 404 OFFCURVE",
"458 313 CURVE SMOOTH",
"458 155 OFFCURVE",
"397 68 OFFCURVE",
"285 68 CURVE SMOOTH"
);
}
);
width = 614;
}
);
unicode = 006F;
userData = {
RMXScaler = {
source = o;
};
};
},
{
glyphname = p;
lastChange = "2018-03-02 16:29:04 +0000";
layers = (
{
background = {
paths = (
{
closed = 1;
nodes = (
"77 -195 LINE",
"127 91 LINE",
"132 91 LINE",
"153 42 OFFCURVE",
"200 -15 OFFCURVE",
"299 -15 CURVE SMOOTH",
"460 -15 OFFCURVE",
"555 137 OFFCURVE",
"555 320 CURVE SMOOTH",
"555 448 OFFCURVE",
"486 530 OFFCURVE",
"366 530 CURVE SMOOTH",
"272 530 OFFCURVE",
"216 480 OFFCURVE",
"185 414 CURVE",
"181 414 LINE",
"188 515 LINE",
"147 515 LINE",
"22 -195 LINE"
);
},
{
closed = 1;
nodes = (
"204 32 OFFCURVE",
"146 86 OFFCURVE",
"146 195 CURVE SMOOTH",
"146 331 OFFCURVE",
"226 483 OFFCURVE",
"361 483 CURVE SMOOTH",
"456 483 OFFCURVE",
"500 413 OFFCURVE",
"500 315 CURVE SMOOTH",
"500 162 OFFCURVE",
"435 32 OFFCURVE",
"299 32 CURVE SMOOTH"
);
}
);
};
components = (
{
name = d;
transform = "{-1, 0, 0, -1, 622, 523}";
}
);
layerId = "CC363ACD-D5A5-4E19-A940-9AF36D109D9E";
width = 622;
},
{
background = {
paths = (
{
closed = 1;
nodes = (
"232 80 LINE",
"238 80 LINE",
"260 32 OFFCURVE",
"299 -15 OFFCURVE",
"389 -15 CURVE SMOOTH",
"567 -15 OFFCURVE",
"643 149 OFFCURVE",
"643 330 CURVE SMOOTH",
"643 450 OFFCURVE",
"583 549 OFFCURVE",
"467 549 CURVE SMOOTH",
"388 549 OFFCURVE",
"329 502 OFFCURVE",
"301 454 CURVE",
"289 454 LINE",
"287 535 LINE",
"107 535 LINE",
"-22 -195 LINE",
"183 -195 LINE"
);
},
{
closed = 1;
nodes = (
"411 384 OFFCURVE",
"437 352 OFFCURVE",
"437 302 CURVE SMOOTH",
"437 242 OFFCURVE",
"424 151 OFFCURVE",
"331 151 CURVE SMOOTH",
"284 151 OFFCURVE",
"259 183 OFFCURVE",
"259 233 CURVE SMOOTH",
"259 293 OFFCURVE",
"274 384 OFFCURVE",
"365 384 CURVE SMOOTH"
);
}
);
};
components = (
{
name = d;
transform = "{-1, 0, 0, -1, 680, 535}";
}
);
layerId = "C1DA716A-5F29-4CD0-A38F-CCADF5849A80";
width = 680;
},
{
components = (
{
name = d;
transform = "{-1, 0, 0, -1, 641, 528}";
}
);
layerId = "6641C2CA-B9F9-47EE-AEEC-6BEE387D8CB9";
width = 641;
}
);
leftMetricsKey = n;
rightMetricsKey = o;
unicode = 0070;
userData = {
RMXScaler = {
source = p;
};
};
},
{
glyphname = q;
lastChange = "2018-03-02 16:29:04 +0000";
layers = (
{
background = {
paths = (
{
closed = 1;
nodes = (
"436 -195 LINE",
"561 515 LINE",
"519 515 LINE",
"488 412 LINE",
"484 412 LINE",
"466 465 OFFCURVE",
"425 530 OFFCURVE",
"318 530 CURVE SMOOTH",
"157 530 OFFCURVE",
"62 378 OFFCURVE",
"62 195 CURVE SMOOTH",
"62 69 OFFCURVE",
"126 -15 OFFCURVE",
"246 -15 CURVE SMOOTH",
"340 -15 OFFCURVE",
"395 32 OFFCURVE",
"426 88 CURVE",
"431 88 LINE",
"381 -195 LINE"
);
},
{
closed = 1;
nodes = (
"427 483 OFFCURVE",
"469 402 OFFCURVE",
"469 303 CURVE SMOOTH",
"469 179 OFFCURVE",
"400 32 OFFCURVE",
"256 32 CURVE SMOOTH",
"161 32 OFFCURVE",
"117 89 OFFCURVE",
"117 195 CURVE SMOOTH",
"117 348 OFFCURVE",
"187 483 OFFCURVE",
"323 483 CURVE SMOOTH"
);
}
);
};
components = (
{
name = b;
transform = "{-1, 0, 0, -1, 623, 523}";
}
);
layerId = "CC363ACD-D5A5-4E19-A940-9AF36D109D9E";
width = 623;
},
{
background = {
paths = (
{
closed = 1;
nodes = (
"531 -195 LINE",
"661 535 LINE",
"479 535 LINE",
"448 454 LINE",
"436 454 LINE",
"410 507 OFFCURVE",
"365 549 OFFCURVE",
"280 549 CURVE SMOOTH",
"113 549 OFFCURVE",
"32 385 OFFCURVE",
"32 194 CURVE SMOOTH",
"32 74 OFFCURVE",
"92 -15 OFFCURVE",
"207 -15 CURVE SMOOTH",
"287 -15 OFFCURVE",
"336 21 OFFCURVE",
"370 80 CURVE",
"377 80 LINE",
"326 -195 LINE"
);
},
{
closed = 1;
nodes = (
"390 384 OFFCURVE",
"416 352 OFFCURVE",
"416 302 CURVE SMOOTH",
"416 242 OFFCURVE",
"403 151 OFFCURVE",
"310 151 CURVE SMOOTH",
"263 151 OFFCURVE",
"238 183 OFFCURVE",
"238 233 CURVE SMOOTH",
"238 293 OFFCURVE",
"253 384 OFFCURVE",
"344 384 CURVE SMOOTH"
);
}
);
};
components = (
{
name = b;
transform = "{-1, 0, 0, -1, 678, 535}";
}
);
layerId = "C1DA716A-5F29-4CD0-A38F-CCADF5849A80";
width = 678;
},
{
components = (
{
name = b;
transform = "{-1, 0, 0, -1, 640, 528}";
}
);
layerId = "6641C2CA-B9F9-47EE-AEEC-6BEE387D8CB9";
width = 640;
}
);
leftMetricsKey = o;
rightMetricsKey = idotless;
unicode = 0071;
userData = {
RMXScaler = {
source = q;
};
};
},
{
color = 4;
glyphname = r;
lastChange = "2018-03-02 10:50:24 +0000";
layers = (
{
anchors = (
{
name = bottom;
position = "{85, 0}";
},
{
name = top;
position = "{268, 515}";
}
);
background = {
paths = (
{
closed = 1;
nodes = (
"207 420 LINE",
"181 420 LINE",
"191 515 LINE",
"148 515 LINE",
"57 0 LINE",
"112 0 LINE",
"161 276 LINE SMOOTH",
"180 384 OFFCURVE",
"238 475 OFFCURVE",
"334 475 CURVE SMOOTH",
"358 475 OFFCURVE",
"377 471 OFFCURVE",
"387 469 CURVE",
"397 522 LINE",
"385 526 OFFCURVE",
"360 530 OFFCURVE",
"340 530 CURVE SMOOTH",
"264 530 OFFCURVE",
"211 487 OFFCURVE",
"174 397 CURVE"
);
}
);
};
layerId = "CC363ACD-D5A5-4E19-A940-9AF36D109D9E";
paths = (
{
closed = 1;
nodes = (
"207 420 LINE",
"181 420 LINE",
"191 515 LINE",
"148 515 LINE",
"57 0 LINE",
"112 0 LINE",
"161 276 LINE SMOOTH",
"180 384 OFFCURVE",
"238 475 OFFCURVE",
"334 475 CURVE SMOOTH",
"358 475 OFFCURVE",
"375 471 OFFCURVE",
"385 469 CURVE",
"397 521 LINE",
"384 526 OFFCURVE",
"360 530 OFFCURVE",
"340 530 CURVE SMOOTH",
"264 530 OFFCURVE",
"211 487 OFFCURVE",
"174 397 CURVE"
);
}
);
width = 358;
},
{
anchors = (
{
name = bottom;
position = "{116, 0}";
},
{
name = top;
position = "{291, 535}";
}
);
background = {
paths = (
{
closed = 1;
nodes = (
"282 422 LINE",
"261 422 LINE",
"241 535 LINE",
"60 535 LINE",
"60 0 LINE",
"265 0 LINE",
"265 249 LINE SMOOTH",
"265 316 OFFCURVE",
"314 358 OFFCURVE",
"388 358 CURVE SMOOTH",
"403 358 OFFCURVE",
"418 357 OFFCURVE",
"434 354 CURVE",
"454 543 LINE",
"438 547 OFFCURVE",
"418 550 OFFCURVE",
"396 550 CURVE SMOOTH",
"296 550 OFFCURVE",
"268 480 OFFCURVE",
"256 345 CURVE"
);
}
);
};
layerId = "C1DA716A-5F29-4CD0-A38F-CCADF5849A80";
paths = (
{
closed = 1;
nodes = (
"304 422 LINE",
"282 422 LINE",
"283 535 LINE",
"108 535 LINE",
"13 0 LINE",
"218 0 LINE",
"260 242 LINE SMOOTH",
"275 329 OFFCURVE",
"317 358 OFFCURVE",
"392 358 CURVE SMOOTH",
"408 358 OFFCURVE",
"429 355 OFFCURVE",
"444 352 CURVE",
"487 540 LINE",
"475 545 OFFCURVE",
"448 550 OFFCURVE",
"427 550 CURVE SMOOTH",
"316 550 OFFCURVE",
"303 487 OFFCURVE",
"269 352 CURVE"
);
}
);
width = 457;
},
{
anchors = (
{
name = bottom;
position = "{94, 0}";
},
{
name = top;
position = "{285, 520}";
}
);
layerId = "6641C2CA-B9F9-47EE-AEEC-6BEE387D8CB9";
paths = (
{
closed = 1;
nodes = (
"237 425 LINE",
"214 425 LINE",
"220 520 LINE",
"136 520 LINE",
"45 0 LINE",
"145 0 LINE",
"196 289 LINE SMOOTH",
"212 379 OFFCURVE",
"267 438 OFFCURVE",
"346 438 CURVE SMOOTH",
"369 438 OFFCURVE",
"390 434 OFFCURVE",
"403 430 CURVE",
"425 526 LINE",
"412 531 OFFCURVE",
"389 535 OFFCURVE",
"368 535 CURVE SMOOTH",
"284 535 OFFCURVE",
"242 486 OFFCURVE",
"199 374 CURVE"
);
}
);
width = 387;
}
);
leftMetricsKey = n;
unicode = 0072;
userData = {
RMXScaler = {
source = r;
};
};
},
{
color = 4;
glyphname = s;
lastChange = "2018-03-02 10:50:24 +0000";
layers = (
{
anchors = (
{
name = bottom;
position = "{239, 0}";
},
{
name = top;
position = "{325, 525}";
}
);
associatedMasterId = "CC363ACD-D5A5-4E19-A940-9AF36D109D9E";
background = {
anchors = (
{
name = bottom;
position = "{284, 0}";
},
{
name = top;
position = "{277, 525}";
}
);
paths = (
{
closed = 1;
nodes = (
"403 -15 OFFCURVE",
"506 51 OFFCURVE",
"506 171 CURVE SMOOTH",
"506 252 OFFCURVE",
"450 293 OFFCURVE",
"345 312 CURVE SMOOTH",
"272 325 LINE SMOOTH",
"229 333 OFFCURVE",
"211 350 OFFCURVE",
"211 376 CURVE SMOOTH",
"211 414 OFFCURVE",
"242 435 OFFCURVE",
"299 435 CURVE SMOOTH",
"362 435 OFFCURVE",
"384 418 OFFCURVE",
"384 373 CURVE",
"520 373 LINE",
"524 481 OFFCURVE",
"461 540 OFFCURVE",
"304 540 CURVE SMOOTH",
"164 540 OFFCURVE",
"75 482 OFFCURVE",
"75 361 CURVE SMOOTH",
"75 276 OFFCURVE",
"132 233 OFFCURVE",
"224 217 CURVE SMOOTH",
"297 204 LINE SMOOTH",
"353 194 OFFCURVE",
"370 178 OFFCURVE",
"370 151 CURVE SMOOTH",
"370 109 OFFCURVE",
"329 90 OFFCURVE",
"271 90 CURVE SMOOTH",
"202 90 OFFCURVE",
"169 109 OFFCURVE",
"169 157 CURVE",
"33 157 LINE",
"33 39 OFFCURVE",
"108 -15 OFFCURVE",
"269 -15 CURVE SMOOTH"
);
}
);
};
layerId = "88BC82E2-047E-4845-A855-EDCB4372DCA0";
name = "Aug 30 17, 11:32";
paths = (
{
closed = 1;
nodes = (
"404 -15 OFFCURVE",
"500 54 OFFCURVE",
"500 180 CURVE SMOOTH",
"500 248 OFFCURVE",
"449 295 OFFCURVE",
"347 314 CURVE SMOOTH",
"276 327 LINE SMOOTH",
"236 334 OFFCURVE",
"221 351 OFFCURVE",
"221 375 CURVE SMOOTH",
"221 413 OFFCURVE",
"251 435 OFFCURVE",
"308 435 CURVE SMOOTH",
"370 435 OFFCURVE",
"391 419 OFFCURVE",
"388 373 CURVE",
"524 373 LINE",
"537 481 OFFCURVE",
"486 540 OFFCURVE",
"327 540 CURVE SMOOTH",
"167 540 OFFCURVE",
"82 463 OFFCURVE",
"82 354 CURVE SMOOTH",
"82 279 OFFCURVE",
"134 232 OFFCURVE",
"224 216 CURVE SMOOTH",
"291 204 LINE SMOOTH",
"344 195 OFFCURVE",
"359 175 OFFCURVE",
"359 151 CURVE SMOOTH",
"359 108 OFFCURVE",
"318 90 OFFCURVE",
"263 90 CURVE SMOOTH",
"196 90 OFFCURVE",
"165 109 OFFCURVE",
"167 157 CURVE",
"31 157 LINE",
"23 40 OFFCURVE",
"76 -15 OFFCURVE",
"240 -15 CURVE SMOOTH"
);
}
);
width = 568;
},
{
anchors = (
{
name = bottom;
position = "{223, 0}";
},
{
name = top;
position = "{302, 515}";
}
);
background = {
paths = (
{
closed = 1;
nodes = (
"352 -15 OFFCURVE",
"425 46 OFFCURVE",
"425 146 CURVE SMOOTH",
"425 213 OFFCURVE",
"385 254 OFFCURVE",
"302 275 CURVE SMOOTH",
"219 297 LINE SMOOTH",
"170 310 OFFCURVE",
"146 336 OFFCURVE",
"146 381 CURVE SMOOTH",
"146 449 OFFCURVE",
"192 485 OFFCURVE",
"281 485 CURVE SMOOTH",
"363 485 OFFCURVE",
"403 455 OFFCURVE",
"405 379 CURVE",
"457 379 LINE",
"460 476 OFFCURVE",
"391 530 OFFCURVE",
"284 530 CURVE SMOOTH",
"164 530 OFFCURVE",
"95 473 OFFCURVE",
"95 378 CURVE SMOOTH",
"95 310 OFFCURVE",
"135 270 OFFCURVE",
"208 251 CURVE SMOOTH",
"291 229 LINE SMOOTH",
"353 213 OFFCURVE",
"374 189 OFFCURVE",
"374 142 CURVE SMOOTH",
"374 69 OFFCURVE",
"325 30 OFFCURVE",
"225 30 CURVE SMOOTH",
"134 30 OFFCURVE",
"90 63 OFFCURVE",
"92 140 CURVE",
"40 140 LINE",
"36 40 OFFCURVE",
"106 -15 OFFCURVE",
"222 -15 CURVE SMOOTH"
);
}
);
};
guideLines = (
{
angle = 166.293;
position = "{290, 230}";
},
{
angle = -13.707;
position = "{302, 275}";
},
{
angle = 256.8313;
position = "{226, 153}";
showMeasurement = 1;
}
);
layerId = "CC363ACD-D5A5-4E19-A940-9AF36D109D9E";
paths = (
{
closed = 1;
nodes = (
"352 -15 OFFCURVE",
"425 46 OFFCURVE",
"425 146 CURVE SMOOTH",
"425 213 OFFCURVE",
"385 254 OFFCURVE",
"302 275 CURVE SMOOTH",
"219 297 LINE SMOOTH",
"170 310 OFFCURVE",
"146 336 OFFCURVE",
"146 381 CURVE SMOOTH",
"146 449 OFFCURVE",
"192 485 OFFCURVE",
"281 485 CURVE SMOOTH",
"363 485 OFFCURVE",
"403 455 OFFCURVE",
"405 379 CURVE",
"457 382 LINE",
"458 477 OFFCURVE",
"391 530 OFFCURVE",
"284 530 CURVE SMOOTH",
"164 530 OFFCURVE",
"95 473 OFFCURVE",
"95 378 CURVE SMOOTH",
"95 310 OFFCURVE",
"135 270 OFFCURVE",
"208 251 CURVE SMOOTH",
"291 229 LINE SMOOTH",
"353 213 OFFCURVE",
"374 189 OFFCURVE",
"374 142 CURVE SMOOTH",
"374 69 OFFCURVE",
"325 30 OFFCURVE",
"225 30 CURVE SMOOTH",
"134 30 OFFCURVE",
"90 63 OFFCURVE",
"92 140 CURVE",
"40 137 LINE",
"36 35 OFFCURVE",
"106 -15 OFFCURVE",
"222 -15 CURVE SMOOTH"
);
}
);
width = 506;
},
{
anchors = (
{
name = bottom;
position = "{245, 0}";
},
{
name = top;
position = "{334, 535}";
}
);
background = {
paths = (
{
closed = 1;
nodes = (
"410 -15 OFFCURVE",
"523 42 OFFCURVE",
"523 182 CURVE SMOOTH",
"523 261 OFFCURVE",
"459 309 OFFCURVE",
"365 328 CURVE SMOOTH",
"287 344 LINE SMOOTH",
"259 350 OFFCURVE",
"247 361 OFFCURVE",
"247 382 CURVE SMOOTH",
"247 406 OFFCURVE",
"270 420 OFFCURVE",
"310 419 CURVE SMOOTH",
"348 418 OFFCURVE",
"366 402 OFFCURVE",
"363 369 CURVE",
"551 369 LINE",
"555 486 OFFCURVE",
"475 550 OFFCURVE",
"313 550 CURVE SMOOTH",
"152 550 OFFCURVE",
"60 481 OFFCURVE",
"60 360 CURVE SMOOTH",
"60 274 OFFCURVE",
"109 223 OFFCURVE",
"214 203 CURVE SMOOTH",
"282 190 LINE SMOOTH",
"321 183 OFFCURVE",
"328 166 OFFCURVE",
"328 150 CURVE SMOOTH",
"328 127 OFFCURVE",
"309 115 OFFCURVE",
"270 115 CURVE SMOOTH",
"227 115 OFFCURVE",
"211 131 OFFCURVE",
"209 165 CURVE",
"17 165 LINE",
"14 44 OFFCURVE",
"99 -15 OFFCURVE",
"254 -15 CURVE SMOOTH"
);
}
);
};
layerId = "C1DA716A-5F29-4CD0-A38F-CCADF5849A80";
paths = (
{
closed = 1;
nodes = (
"410 -15 OFFCURVE",
"523 42 OFFCURVE",
"523 182 CURVE SMOOTH",
"523 261 OFFCURVE",
"459 309 OFFCURVE",
"365 328 CURVE SMOOTH",
"287 344 LINE SMOOTH",
"259 350 OFFCURVE",
"247 361 OFFCURVE",
"247 382 CURVE SMOOTH",
"247 406 OFFCURVE",
"268 420 OFFCURVE",
"308 419 CURVE SMOOTH",
"351 418 OFFCURVE",
"363 397 OFFCURVE",
"363 364 CURVE",
"551 378 LINE",
"551 492 OFFCURVE",
"475 550 OFFCURVE",
"313 550 CURVE SMOOTH",
"152 550 OFFCURVE",
"60 481 OFFCURVE",
"60 360 CURVE SMOOTH",
"60 274 OFFCURVE",
"109 223 OFFCURVE",
"214 203 CURVE SMOOTH",
"282 190 LINE SMOOTH",
"321 183 OFFCURVE",
"328 166 OFFCURVE",
"328 150 CURVE SMOOTH",
"328 127 OFFCURVE",
"309 115 OFFCURVE",
"270 115 CURVE SMOOTH",
"222 115 OFFCURVE",
"211 136 OFFCURVE",
"209 170 CURVE",
"17 155 LINE",
"24 34 OFFCURVE",
"99 -15 OFFCURVE",
"254 -15 CURVE SMOOTH"
);
}
);
width = 577;
},
{
anchors = (
{
name = bottom;
position = "{222, 0}";
},
{
name = top;
position = "{306, 515}";
}
);
associatedMasterId = "CC363ACD-D5A5-4E19-A940-9AF36D109D9E";
background = {
paths = (
{
closed = 1;
nodes = (
"343 -15 OFFCURVE",
"429 44 OFFCURVE",
"429 155 CURVE SMOOTH",
"429 225 OFFCURVE",
"378 258 OFFCURVE",
"299 277 CURVE SMOOTH",
"241 291 LINE SMOOTH",
"182 305 OFFCURVE",
"156 329 OFFCURVE",
"156 373 CURVE SMOOTH",
"156 447 OFFCURVE",
"213 483 OFFCURVE",
"297 483 CURVE SMOOTH",
"380 483 OFFCURVE",
"409 447 OFFCURVE",
"410 379 CURVE",
"463 379 LINE",
"466 476 OFFCURVE",
"412 530 OFFCURVE",
"299 530 CURVE SMOOTH",
"187 530 OFFCURVE",
"105 473 OFFCURVE",
"105 370 CURVE SMOOTH",
"105 297 OFFCURVE",
"156 260 OFFCURVE",
"220 245 CURVE SMOOTH",
"291 228 LINE SMOOTH",
"345 215 OFFCURVE",
"377 196 OFFCURVE",
"377 150 CURVE SMOOTH",
"377 68 OFFCURVE",
"316 31 OFFCURVE",
"221 31 CURVE SMOOTH",
"135 31 OFFCURVE",
"94 59 OFFCURVE",
"96 140 CURVE",
"43 140 LINE",
"34 38 OFFCURVE",
"100 -15 OFFCURVE",
"223 -15 CURVE SMOOTH"
);
},
{
closed = 1;
nodes = (
"-114 -15 OFFCURVE",
"-31 33 OFFCURVE",
"-31 133 CURVE SMOOTH",
"-31 224 OFFCURVE",
"-91 257 OFFCURVE",
"-190 278 CURVE SMOOTH",
"-255 292 LINE SMOOTH",
"-330 308 OFFCURVE",
"-363 336 OFFCURVE",
"-363 392 CURVE SMOOTH",
"-363 450 OFFCURVE",
"-317 483 OFFCURVE",
"-232 483 CURVE SMOOTH",
"-143 483 OFFCURVE",
"-99 451 OFFCURVE",
"-92 379 CURVE",
"-37 379 LINE",
"-46 483 OFFCURVE",
"-112 530 OFFCURVE",
"-232 530 CURVE SMOOTH",
"-341 530 OFFCURVE",
"-414 479 OFFCURVE",
"-414 392 CURVE SMOOTH",
"-414 299 OFFCURVE",
"-349 261 OFFCURVE",
"-271 244 CURVE SMOOTH",
"-191 227 LINE SMOOTH",
"-123 213 OFFCURVE",
"-82 194 OFFCURVE",
"-82 128 CURVE SMOOTH",
"-82 63 OFFCURVE",
"-139 31 OFFCURVE",
"-228 31 CURVE SMOOTH",
"-324 31 OFFCURVE",
"-376 65 OFFCURVE",
"-380 140 CURVE",
"-435 140 LINE",
"-435 39 OFFCURVE",
"-360 -15 OFFCURVE",
"-226 -15 CURVE SMOOTH"
);
}
);
};
layerId = "31CB84DC-1B2D-425A-B3D8-19BCB4EBD1F5";
name = "Sep 27 17, 15:35";
paths = (
{
closed = 1;
nodes = (
"349 -15 OFFCURVE",
"430 39 OFFCURVE",
"430 147 CURVE SMOOTH",
"430 217 OFFCURVE",
"375 252 OFFCURVE",
"296 276 CURVE SMOOTH",
"247 291 LINE SMOOTH",
"188 309 OFFCURVE",
"152 334 OFFCURVE",
"152 378 CURVE SMOOTH",
"152 447 OFFCURVE",
"199 483 OFFCURVE",
"293 483 CURVE SMOOTH",
"376 483 OFFCURVE",
"410 447 OFFCURVE",
"411 379 CURVE",
"464 379 LINE",
"467 466 OFFCURVE",
"408 530 OFFCURVE",
"295 530 CURVE SMOOTH",
"173 530 OFFCURVE",
"101 473 OFFCURVE",
"101 375 CURVE SMOOTH",
"101 301 OFFCURVE",
"162 266 OFFCURVE",
"228 246 CURVE SMOOTH",
"288 228 LINE SMOOTH",
"342 212 OFFCURVE",
"378 188 OFFCURVE",
"378 142 CURVE SMOOTH",
"378 65 OFFCURVE",
"322 31 OFFCURVE",
"227 31 CURVE SMOOTH",
"141 31 OFFCURVE",
"95 59 OFFCURVE",
"97 140 CURVE",
"44 140 LINE",
"40 38 OFFCURVE",
"106 -15 OFFCURVE",
"229 -15 CURVE SMOOTH"
);
}
);
width = 513;
},
{
associatedMasterId = "CC363ACD-D5A5-4E19-A940-9AF36D109D9E";
background = {
paths = (
{
closed = 1;
nodes = (
"357 -15 OFFCURVE",
"430 44 OFFCURVE",
"430 145 CURVE SMOOTH",
"430 214 OFFCURVE",
"391 255 OFFCURVE",
"308 275 CURVE SMOOTH",
"226 295 LINE SMOOTH",
"176 307 OFFCURVE",
"152 334 OFFCURVE",
"152 380 CURVE SMOOTH",
"152 450 OFFCURVE",
"198 485 OFFCURVE",
"287 485 CURVE SMOOTH",
"369 485 OFFCURVE",
"409 455 OFFCURVE",
"411 379 CURVE",
"463 379 LINE",
"466 476 OFFCURVE",
"397 530 OFFCURVE",
"290 530 CURVE SMOOTH",
"170 530 OFFCURVE",
"101 474 OFFCURVE",
"101 378 CURVE SMOOTH",
"101 308 OFFCURVE",
"141 268 OFFCURVE",
"214 250 CURVE SMOOTH",
"296 230 LINE SMOOTH",
"358 215 OFFCURVE",
"379 191 OFFCURVE",
"379 142 CURVE SMOOTH",
"379 67 OFFCURVE",
"330 30 OFFCURVE",
"230 30 CURVE SMOOTH",
"138 30 OFFCURVE",
"95 63 OFFCURVE",
"97 140 CURVE",
"45 140 LINE",
"41 40 OFFCURVE",
"110 -15 OFFCURVE",
"227 -15 CURVE SMOOTH"
);
}
);
};
guideLines = (
{
angle = 166.293;
position = "{296, 230}";
},
{
angle = -13.707;
position = "{308, 275}";
}
);
layerId = "3EA3D867-BB2D-4979-9C60-B32A886F64F9";
name = "Sep 27 17, 16:22";
paths = (
{
closed = 1;
nodes = (
"357 -15 OFFCURVE",
"430 44 OFFCURVE",
"430 145 CURVE SMOOTH",
"430 214 OFFCURVE",
"391 255 OFFCURVE",
"308 275 CURVE SMOOTH",
"226 295 LINE SMOOTH",
"176 307 OFFCURVE",
"152 334 OFFCURVE",
"152 380 CURVE SMOOTH",
"152 450 OFFCURVE",
"198 485 OFFCURVE",
"287 485 CURVE SMOOTH",
"369 485 OFFCURVE",
"409 455 OFFCURVE",
"411 379 CURVE",
"463 379 LINE",
"466 476 OFFCURVE",
"397 530 OFFCURVE",
"290 530 CURVE SMOOTH",
"170 530 OFFCURVE",
"101 474 OFFCURVE",
"101 378 CURVE SMOOTH",
"101 308 OFFCURVE",
"141 268 OFFCURVE",
"214 250 CURVE SMOOTH",
"296 230 LINE SMOOTH",
"358 215 OFFCURVE",
"379 191 OFFCURVE",
"379 142 CURVE SMOOTH",
"379 67 OFFCURVE",
"330 30 OFFCURVE",
"230 30 CURVE SMOOTH",
"138 30 OFFCURVE",
"95 63 OFFCURVE",
"97 140 CURVE",
"45 140 LINE",
"41 40 OFFCURVE",
"110 -15 OFFCURVE",
"227 -15 CURVE SMOOTH"
);
}
);
width = 513;
},
{
anchors = (
{
name = bottom;
position = "{245, 0}";
},
{
name = top;
position = "{334, 535}";
}
);
associatedMasterId = "C1DA716A-5F29-4CD0-A38F-CCADF5849A80";
background = {
anchors = (
{
name = bottom;
position = "{245, 0}";
},
{
name = top;
position = "{334, 535}";
}
);
paths = (
{
closed = 1;
nodes = (
"410 -15 OFFCURVE",
"523 42 OFFCURVE",
"523 182 CURVE SMOOTH",
"523 261 OFFCURVE",
"459 306 OFFCURVE",
"365 328 CURVE SMOOTH",
"305 342 LINE SMOOTH",
"265 351 OFFCURVE",
"253 363 OFFCURVE",
"253 383 CURVE SMOOTH",
"253 407 OFFCURVE",
"276 419 OFFCURVE",
"309 419 CURVE SMOOTH",
"350 419 OFFCURVE",
"365 402 OFFCURVE",
"365 369 CURVE",
"557 369 LINE",
"557 486 OFFCURVE",
"472 550 OFFCURVE",
"321 550 CURVE SMOOTH",
"161 550 OFFCURVE",
"60 487 OFFCURVE",
"60 361 CURVE SMOOTH",
"60 281 OFFCURVE",
"109 226 OFFCURVE",
"214 203 CURVE SMOOTH",
"282 188 LINE SMOOTH",
"321 179 OFFCURVE",
"328 166 OFFCURVE",
"328 150 CURVE SMOOTH",
"328 127 OFFCURVE",
"309 115 OFFCURVE",
"270 115 CURVE SMOOTH",
"227 115 OFFCURVE",
"211 131 OFFCURVE",
"209 165 CURVE",
"17 165 LINE",
"14 44 OFFCURVE",
"99 -15 OFFCURVE",
"254 -15 CURVE SMOOTH"
);
}
);
};
layerId = "A611FA9B-88AB-4381-83C3-65CCC488E4C5";
name = "Sep 27 17, 16:27";
paths = (
{
closed = 1;
nodes = (
"410 -15 OFFCURVE",
"523 42 OFFCURVE",
"523 182 CURVE SMOOTH",
"523 261 OFFCURVE",
"459 306 OFFCURVE",
"365 328 CURVE SMOOTH",
"305 342 LINE SMOOTH",
"265 351 OFFCURVE",
"253 363 OFFCURVE",
"253 383 CURVE SMOOTH",
"253 407 OFFCURVE",
"276 419 OFFCURVE",
"309 419 CURVE SMOOTH",
"350 419 OFFCURVE",
"365 402 OFFCURVE",
"365 369 CURVE",
"557 369 LINE",
"557 486 OFFCURVE",
"472 550 OFFCURVE",
"321 550 CURVE SMOOTH",
"161 550 OFFCURVE",
"60 487 OFFCURVE",
"60 361 CURVE SMOOTH",
"60 281 OFFCURVE",
"109 226 OFFCURVE",
"214 203 CURVE SMOOTH",
"282 188 LINE SMOOTH",
"321 179 OFFCURVE",
"328 166 OFFCURVE",
"328 150 CURVE SMOOTH",
"328 127 OFFCURVE",
"309 115 OFFCURVE",
"270 115 CURVE SMOOTH",
"227 115 OFFCURVE",
"211 131 OFFCURVE",
"209 165 CURVE",
"17 165 LINE",
"14 44 OFFCURVE",
"99 -15 OFFCURVE",
"254 -15 CURVE SMOOTH"
);
}
);
width = 577;
},
{
anchors = (
{
name = bottom;
position = "{226, 0}";
},
{
name = top;
position = "{305, 515}";
}
);
associatedMasterId = "CC363ACD-D5A5-4E19-A940-9AF36D109D9E";
background = {
anchors = (
{
name = bottom;
position = "{222, 0}";
},
{
name = top;
position = "{306, 515}";
}
);
paths = (
{
closed = 1;
nodes = (
"349 -15 OFFCURVE",
"430 39 OFFCURVE",
"430 147 CURVE SMOOTH",
"430 217 OFFCURVE",
"375 252 OFFCURVE",
"296 276 CURVE SMOOTH",
"247 291 LINE SMOOTH",
"188 309 OFFCURVE",
"152 334 OFFCURVE",
"152 378 CURVE SMOOTH",
"152 447 OFFCURVE",
"199 483 OFFCURVE",
"293 483 CURVE SMOOTH",
"376 483 OFFCURVE",
"410 447 OFFCURVE",
"411 379 CURVE",
"464 379 LINE",
"467 466 OFFCURVE",
"408 530 OFFCURVE",
"295 530 CURVE SMOOTH",
"173 530 OFFCURVE",
"101 473 OFFCURVE",
"101 375 CURVE SMOOTH",
"101 301 OFFCURVE",
"162 266 OFFCURVE",
"228 246 CURVE SMOOTH",
"288 228 LINE SMOOTH",
"342 212 OFFCURVE",
"378 188 OFFCURVE",
"378 142 CURVE SMOOTH",
"378 65 OFFCURVE",
"322 31 OFFCURVE",
"227 31 CURVE SMOOTH",
"141 31 OFFCURVE",
"95 59 OFFCURVE",
"97 140 CURVE",
"44 140 LINE",
"40 38 OFFCURVE",
"106 -15 OFFCURVE",
"229 -15 CURVE SMOOTH"
);
}
);
};
guideLines = (
{
angle = 166.293;
position = "{293, 230}";
},
{
angle = -13.707;
position = "{305, 275}";
},
{
angle = 256.8313;
position = "{229, 153}";
showMeasurement = 1;
}
);
layerId = "C9C38675-991D-44E1-B5E7-084FC7C680B3";
name = "Sep 29 17, 09:46";
paths = (
{
closed = 1;
nodes = (
"355 -15 OFFCURVE",
"428 46 OFFCURVE",
"428 146 CURVE SMOOTH",
"428 213 OFFCURVE",
"388 254 OFFCURVE",
"305 275 CURVE SMOOTH",
"222 296 LINE SMOOTH",
"173 309 OFFCURVE",
"149 335 OFFCURVE",
"149 381 CURVE SMOOTH",
"149 449 OFFCURVE",
"195 485 OFFCURVE",
"284 485 CURVE SMOOTH",
"366 485 OFFCURVE",
"406 455 OFFCURVE",
"408 379 CURVE",
"460 379 LINE",
"463 476 OFFCURVE",
"394 530 OFFCURVE",
"287 530 CURVE SMOOTH",
"167 530 OFFCURVE",
"98 473 OFFCURVE",
"98 378 CURVE SMOOTH",
"98 309 OFFCURVE",
"138 269 OFFCURVE",
"211 250 CURVE SMOOTH",
"294 229 LINE SMOOTH",
"356 213 OFFCURVE",
"377 189 OFFCURVE",
"377 142 CURVE SMOOTH",
"377 69 OFFCURVE",
"328 30 OFFCURVE",
"228 30 CURVE SMOOTH",
"137 30 OFFCURVE",
"93 63 OFFCURVE",
"95 140 CURVE",
"43 140 LINE",
"39 40 OFFCURVE",
"109 -15 OFFCURVE",
"225 -15 CURVE SMOOTH"
);
}
);
width = 509;
},
{
anchors = (
{
name = bottom;
position = "{258, 0}";
},
{
name = top;
position = "{319, 525}";
}
);
associatedMasterId = "CC363ACD-D5A5-4E19-A940-9AF36D109D9E";
background = {
paths = (
{
closed = 1;
nodes = (
"389 -15 OFFCURVE",
"496 52 OFFCURVE",
"496 168 CURVE SMOOTH",
"496 253 OFFCURVE",
"445 293 OFFCURVE",
"341 312 CURVE SMOOTH",
"271 325 LINE SMOOTH",
"229 333 OFFCURVE",
"213 350 OFFCURVE",
"213 376 CURVE SMOOTH",
"213 414 OFFCURVE",
"246 435 OFFCURVE",
"302 435 CURVE SMOOTH",
"364 435 OFFCURVE",
"385 418 OFFCURVE",
"384 373 CURVE",
"520 373 LINE",
"526 481 OFFCURVE",
"465 540 OFFCURVE",
"307 540 CURVE SMOOTH",
"168 540 OFFCURVE",
"77 480 OFFCURVE",
"77 362 CURVE SMOOTH",
"77 274 OFFCURVE",
"132 234 OFFCURVE",
"221 217 CURVE SMOOTH",
"291 204 LINE SMOOTH",
"345 194 OFFCURVE",
"360 179 OFFCURVE",
"360 154 CURVE SMOOTH",
"360 110 OFFCURVE",
"317 90 OFFCURVE",
"258 90 CURVE SMOOTH",
"190 90 OFFCURVE",
"161 109 OFFCURVE",
"162 157 CURVE",
"26 157 LINE",
"24 39 OFFCURVE",
"94 -15 OFFCURVE",
"256 -15 CURVE SMOOTH"
);
}
);
};
layerId = "754059F4-B6FF-448B-9855-BCEE341C79D6";
name = "Oct 3 17, 17:24";
paths = (
{
closed = 1;
nodes = (
"389 -15 OFFCURVE",
"496 52 OFFCURVE",
"496 168 CURVE SMOOTH",
"496 253 OFFCURVE",
"445 293 OFFCURVE",
"341 312 CURVE SMOOTH",
"271 325 LINE SMOOTH",
"229 333 OFFCURVE",
"213 350 OFFCURVE",
"213 376 CURVE SMOOTH",
"213 414 OFFCURVE",
"246 435 OFFCURVE",
"302 435 CURVE SMOOTH",
"364 435 OFFCURVE",
"385 418 OFFCURVE",
"384 373 CURVE",
"520 373 LINE",
"526 481 OFFCURVE",
"465 540 OFFCURVE",
"307 540 CURVE SMOOTH",
"168 540 OFFCURVE",
"77 480 OFFCURVE",
"77 362 CURVE SMOOTH",
"77 274 OFFCURVE",
"132 234 OFFCURVE",
"221 217 CURVE SMOOTH",
"291 204 LINE SMOOTH",
"345 194 OFFCURVE",
"360 179 OFFCURVE",
"360 154 CURVE SMOOTH",
"360 110 OFFCURVE",
"317 90 OFFCURVE",
"258 90 CURVE SMOOTH",
"190 90 OFFCURVE",
"161 109 OFFCURVE",
"162 157 CURVE",
"26 157 LINE",
"24 39 OFFCURVE",
"94 -15 OFFCURVE",
"256 -15 CURVE SMOOTH"
);
}
);
width = 561;
},
{
anchors = (
{
name = bottom;
position = "{245, 0}";
},
{
name = top;
position = "{334, 535}";
}
);
associatedMasterId = "C1DA716A-5F29-4CD0-A38F-CCADF5849A80";
background = {
anchors = (
{
name = bottom;
position = "{245, 0}";
},
{
name = top;
position = "{334, 535}";
}
);
paths = (
{
closed = 1;
nodes = (
"410 -15 OFFCURVE",
"523 42 OFFCURVE",
"523 182 CURVE SMOOTH",
"523 261 OFFCURVE",
"459 306 OFFCURVE",
"365 328 CURVE SMOOTH",
"305 342 LINE SMOOTH",
"265 351 OFFCURVE",
"253 363 OFFCURVE",
"253 383 CURVE SMOOTH",
"253 407 OFFCURVE",
"276 419 OFFCURVE",
"309 419 CURVE SMOOTH",
"350 419 OFFCURVE",
"365 402 OFFCURVE",
"365 369 CURVE",
"557 369 LINE",
"557 486 OFFCURVE",
"472 550 OFFCURVE",
"321 550 CURVE SMOOTH",
"161 550 OFFCURVE",
"60 487 OFFCURVE",
"60 361 CURVE SMOOTH",
"60 281 OFFCURVE",
"109 226 OFFCURVE",
"214 203 CURVE SMOOTH",
"282 188 LINE SMOOTH",
"321 179 OFFCURVE",
"328 166 OFFCURVE",
"328 150 CURVE SMOOTH",
"328 127 OFFCURVE",
"309 115 OFFCURVE",
"270 115 CURVE SMOOTH",
"227 115 OFFCURVE",
"211 131 OFFCURVE",
"209 165 CURVE",
"17 165 LINE",
"14 44 OFFCURVE",
"99 -15 OFFCURVE",
"254 -15 CURVE SMOOTH"
);
}
);
};
layerId = "7B4EF5A9-9A94-45B5-8843-F2E75965330F";
name = "Oct 4 17, 22:35";
paths = (
{
closed = 1;
nodes = (
"410 -15 OFFCURVE",
"523 42 OFFCURVE",
"523 182 CURVE SMOOTH",
"523 261 OFFCURVE",
"459 314 OFFCURVE",
"365 330 CURVE SMOOTH",
"302 341 LINE SMOOTH",
"265 347 OFFCURVE",
"252 359 OFFCURVE",
"253 382 CURVE SMOOTH",
"254 407 OFFCURVE",
"276 419 OFFCURVE",
"309 419 CURVE SMOOTH",
"350 419 OFFCURVE",
"366 402 OFFCURVE",
"365 369 CURVE",
"555 369 LINE",
"558 486 OFFCURVE",
"475 550 OFFCURVE",
"320 550 CURVE SMOOTH",
"160 550 OFFCURVE",
"60 487 OFFCURVE",
"60 361 CURVE SMOOTH",
"60 281 OFFCURVE",
"109 218 OFFCURVE",
"214 201 CURVE SMOOTH",
"282 190 LINE SMOOTH",
"321 184 OFFCURVE",
"328 166 OFFCURVE",
"328 150 CURVE SMOOTH",
"328 127 OFFCURVE",
"309 115 OFFCURVE",
"270 115 CURVE SMOOTH",
"227 115 OFFCURVE",
"211 131 OFFCURVE",
"209 165 CURVE",
"17 165 LINE",
"14 44 OFFCURVE",
"99 -15 OFFCURVE",
"254 -15 CURVE SMOOTH"
);
}
);
width = 577;
},
{
anchors = (
{
name = bottom;
position = "{230, 0}";
},
{
name = top;
position = "{300, 520}";
}
);
layerId = "6641C2CA-B9F9-47EE-AEEC-6BEE387D8CB9";
paths = (
{
closed = 1;
nodes = (
"367 -15 OFFCURVE",
"451 50 OFFCURVE",
"451 154 CURVE SMOOTH",
"451 234 OFFCURVE",
"404 272 OFFCURVE",
"312 294 CURVE SMOOTH",
"235 313 LINE SMOOTH",
"191 324 OFFCURVE",
"171 344 OFFCURVE",
"171 380 CURVE SMOOTH",
"171 430 OFFCURVE",
"208 459 OFFCURVE",
"279 459 CURVE SMOOTH",
"352 459 OFFCURVE",
"380 432 OFFCURVE",
"382 373 CURVE",
"479 380 LINE",
"477 481 OFFCURVE",
"414 535 OFFCURVE",
"286 535 CURVE SMOOTH",
"151 535 OFFCURVE",
"75 474 OFFCURVE",
"75 373 CURVE SMOOTH",
"75 298 OFFCURVE",
"118 255 OFFCURVE",
"204 234 CURVE SMOOTH",
"280 215 LINE SMOOTH",
"337 201 OFFCURVE",
"355 184 OFFCURVE",
"355 146 CURVE SMOOTH",
"355 92 OFFCURVE",
"313 62 OFFCURVE",
"237 62 CURVE SMOOTH",
"156 62 OFFCURVE",
"123 89 OFFCURVE",
"122 152 CURVE",
"25 145 LINE",
"25 36 OFFCURVE",
"95 -15 OFFCURVE",
"232 -15 CURVE SMOOTH"
);
}
);
width = 520;
}
);
unicode = 0073;
userData = {
RMXScaler = {
source = s;
};
};
},
{
color = 4;
glyphname = t;
lastChange = "2018-03-02 10:50:24 +0000";
layers = (
{
anchors = (
{
name = bottom;
position = "{191, 0}";
},
{
name = topright;
position = "{298, 515}";
}
);
background = {
paths = (
{
closed = 1;
nodes = (
"49 466 LINE",
"375 466 LINE",
"384 515 LINE",
"58 515 LINE"
);
},
{
closed = 1;
nodes = (
"303 47 LINE",
"284 43 OFFCURVE",
"267 39 OFFCURVE",
"239 39 CURVE SMOOTH",
"173 39 OFFCURVE",
"143 71 OFFCURVE",
"159 165 CURVE SMOOTH",
"247 665 LINE",
"207 665 LINE",
"166 515 LINE",
"105 172 LINE SMOOTH",
"84 52 OFFCURVE",
"124 -10 OFFCURVE",
"232 -10 CURVE SMOOTH",
"257 -10 OFFCURVE",
"277 -6 OFFCURVE",
"297 0 CURVE"
);
}
);
};
layerId = "CC363ACD-D5A5-4E19-A940-9AF36D109D9E";
paths = (
{
closed = 1;
nodes = (
"49 466 LINE",
"375 466 LINE",
"384 515 LINE",
"58 515 LINE"
);
},
{
closed = 1;
nodes = (
"300 47 LINE",
"284 43 OFFCURVE",
"260 39 OFFCURVE",
"239 39 CURVE SMOOTH",
"173 39 OFFCURVE",
"143 71 OFFCURVE",
"159 165 CURVE SMOOTH",
"247 665 LINE",
"207 665 LINE",
"166 515 LINE",
"105 172 LINE SMOOTH",
"84 52 OFFCURVE",
"124 -10 OFFCURVE",
"232 -10 CURVE SMOOTH",
"257 -10 OFFCURVE",
"284 -6 OFFCURVE",
"303 1 CURVE"
);
}
);
width = 367;
},
{
anchors = (
{
name = bottom;
position = "{204, 0}";
},
{
name = topright;
position = "{409, 535}";
}
);
background = {
paths = (
{
closed = 1;
nodes = (
"1 381 LINE",
"403 381 LINE",
"403 535 LINE",
"1 535 LINE"
);
},
{
closed = 1;
nodes = (
"393 153 LINE",
"378 150 OFFCURVE",
"362 148 OFFCURVE",
"347 148 CURVE SMOOTH",
"299 148 OFFCURVE",
"284 165 OFFCURVE",
"284 216 CURVE SMOOTH",
"284 675 LINE",
"108 675 LINE",
"79 535 LINE",
"79 161 LINE SMOOTH",
"79 41 OFFCURVE",
"137 -15 OFFCURVE",
"278 -15 CURVE SMOOTH",
"326 -15 OFFCURVE",
"384 -6 OFFCURVE",
"413 4 CURVE"
);
}
);
};
guideLines = (
{
angle = 80;
position = "{474, 675}";
}
);
layerId = "C1DA716A-5F29-4CD0-A38F-CCADF5849A80";
paths = (
{
closed = 1;
nodes = (
"31 381 LINE",
"422 381 LINE",
"450 535 LINE",
"58 535 LINE"
);
},
{
closed = 1;
nodes = (
"379 151 LINE",
"369 149 OFFCURVE",
"348 147 OFFCURVE",
"332 147 CURVE SMOOTH",
"285 147 OFFCURVE",
"273 169 OFFCURVE",
"282 219 CURVE SMOOTH",
"362 675 LINE",
"184 675 LINE",
"131 535 LINE",
"75 210 LINE SMOOTH",
"50 67 OFFCURVE",
"98 -15 OFFCURVE",
"250 -15 CURVE SMOOTH",
"297 -15 OFFCURVE",
"353 -6 OFFCURVE",
"382 3 CURVE"
);
}
);
width = 452;
},
{
anchors = (
{
name = bottom;
position = "{202, 0}";
},
{
name = topright;
position = "{335, 520}";
}
);
layerId = "6641C2CA-B9F9-47EE-AEEC-6BEE387D8CB9";
paths = (
{
closed = 1;
nodes = (
"47 436 LINE",
"398 436 LINE",
"413 520 LINE",
"62 520 LINE"
);
},
{
closed = 1;
nodes = (
"331 79 LINE",
"316 75 OFFCURVE",
"290 71 OFFCURVE",
"270 71 CURVE SMOOTH",
"214 71 OFFCURVE",
"187 98 OFFCURVE",
"200 175 CURVE SMOOTH",
"287 668 LINE",
"206 668 LINE",
"161 520 LINE",
"101 178 LINE SMOOTH",
"79 51 OFFCURVE",
"123 -13 OFFCURVE",
"246 -13 CURVE SMOOTH",
"277 -13 OFFCURVE",
"312 -7 OFFCURVE",
"334 0 CURVE"
);
}
);
width = 400;
}
);
unicode = 0074;
userData = {
RMXScaler = {
source = t;
};
};
},
{
color = 4;
glyphname = u;
lastChange = "2018-03-02 10:50:24 +0000";
layers = (
{
anchors = (
{
name = bottom;
position = "{266, 0}";
},
{
name = ogonek;
position = "{437, 0}";
},
{
name = top;
position = "{344, 515}";
}
);
background = {
paths = (
{
closed = 1;
nodes = (
"480 515 LINE",
"431 239 LINE SMOOTH",
"409 116 OFFCURVE",
"328 37 OFFCURVE",
"233 37 CURVE SMOOTH",
"169 37 OFFCURVE",
"136 68 OFFCURVE",
"136 132 CURVE SMOOTH",
"136 150 OFFCURVE",
"138 172 OFFCURVE",
"142 197 CURVE SMOOTH",
"198 515 LINE",
"143 515 LINE",
"88 205 LINE SMOOTH",
"81 168 OFFCURVE",
"81 147 OFFCURVE",
"81 122 CURVE SMOOTH",
"81 28 OFFCURVE",
"145 -15 OFFCURVE",
"223 -15 CURVE SMOOTH",
"317 -15 OFFCURVE",
"387 44 OFFCURVE",
"418 118 CURVE",
"383 95 LINE",
"420 95 LINE",
"411 115 LINE",
"401 0 LINE",
"444 0 LINE",
"535 515 LINE"
);
}
);
};
layerId = "CC363ACD-D5A5-4E19-A940-9AF36D109D9E";
paths = (
{
closed = 1;
nodes = (
"483 515 LINE",
"434 239 LINE SMOOTH",
"412 115 OFFCURVE",
"338 35 OFFCURVE",
"236 35 CURVE SMOOTH",
"171 35 OFFCURVE",
"136 67 OFFCURVE",
"136 132 CURVE SMOOTH",
"136 150 OFFCURVE",
"138 172 OFFCURVE",
"142 197 CURVE SMOOTH",
"198 515 LINE",
"143 515 LINE",
"87 198 LINE SMOOTH",
"83 174 OFFCURVE",
"81 153 OFFCURVE",
"81 128 CURVE SMOOTH",
"81 39 OFFCURVE",
"133 -15 OFFCURVE",
"231 -15 CURVE SMOOTH",
"318 -15 OFFCURVE",
"387 37 OFFCURVE",
"421 118 CURVE",
"386 95 LINE",
"423 95 LINE",
"414 115 LINE",
"404 0 LINE",
"447 0 LINE",
"538 515 LINE"
);
}
);
width = 595;
},
{
anchors = (
{
name = bottom;
position = "{302, 0}";
},
{
name = ogonek;
position = "{507, 0}";
},
{
name = top;
position = "{372, 535}";
}
);
background = {
paths = (
{
closed = 1;
nodes = (
"437 535 LINE",
"389 263 LINE SMOOTH",
"377 197 OFFCURVE",
"342 166 OFFCURVE",
"300 166 CURVE SMOOTH",
"269 166 OFFCURVE",
"254 183 OFFCURVE",
"254 211 CURVE SMOOTH",
"254 221 OFFCURVE",
"256 240 OFFCURVE",
"258 250 CURVE SMOOTH",
"308 535 LINE",
"103 535 LINE",
"47 216 LINE SMOOTH",
"43 192 OFFCURVE",
"39 157 OFFCURVE",
"39 132 CURVE SMOOTH",
"39 54 OFFCURVE",
"79 -15 OFFCURVE",
"184 -15 CURVE SMOOTH",
"284 -15 OFFCURVE",
"329 39 OFFCURVE",
"374 131 CURVE",
"349 108 LINE",
"378 108 LINE",
"367 130 LINE",
"367 0 LINE",
"547 0 LINE",
"642 535 LINE"
);
}
);
};
layerId = "C1DA716A-5F29-4CD0-A38F-CCADF5849A80";
paths = (
{
closed = 1;
nodes = (
"440 535 LINE",
"392 263 LINE SMOOTH",
"380 197 OFFCURVE",
"354 167 OFFCURVE",
"305 167 CURVE SMOOTH",
"270 167 OFFCURVE",
"255 182 OFFCURVE",
"255 216 CURVE SMOOTH",
"255 227 OFFCURVE",
"257 242 OFFCURVE",
"259 253 CURVE SMOOTH",
"309 535 LINE",
"104 535 LINE",
"49 225 LINE SMOOTH",
"44 197 OFFCURVE",
"40 169 OFFCURVE",
"40 134 CURVE SMOOTH",
"40 38 OFFCURVE",
"92 -15 OFFCURVE",
"189 -15 CURVE SMOOTH",
"278 -15 OFFCURVE",
"331 24 OFFCURVE",
"374 115 CURVE",
"359 108 LINE",
"388 108 LINE",
"377 115 LINE",
"377 0 LINE",
"550 0 LINE",
"645 535 LINE"
);
}
);
width = 658;
},
{
anchors = (
{
name = bottom;
position = "{276, 0}";
},
{
name = ogonek;
position = "{460, 0}";
},
{
name = top;
position = "{349, 520}";
}
);
layerId = "6641C2CA-B9F9-47EE-AEEC-6BEE387D8CB9";
paths = (
{
closed = 1;
nodes = (
"468 520 LINE",
"418 234 LINE SMOOTH",
"400 135 OFFCURVE",
"339 75 OFFCURVE",
"259 75 CURVE SMOOTH",
"201 75 OFFCURVE",
"171 102 OFFCURVE",
"171 157 CURVE SMOOTH",
"171 172 OFFCURVE",
"173 190 OFFCURVE",
"177 214 CURVE SMOOTH",
"231 520 LINE",
"131 520 LINE",
"77 215 LINE SMOOTH",
"71 180 OFFCURVE",
"68 153 OFFCURVE",
"68 127 CURVE SMOOTH",
"68 37 OFFCURVE",
"123 -15 OFFCURVE",
"219 -15 CURVE SMOOTH",
"302 -15 OFFCURVE",
"366 32 OFFCURVE",
"400 106 CURVE",
"375 91 LINE",
"409 91 LINE",
"399 106 LINE",
"392 0 LINE",
"476 0 LINE",
"568 520 LINE"
);
}
);
width = 613;
}
);
rightMetricsKey = idotless;
unicode = 0075;
userData = {
RMXScaler = {
source = u;
};
};
},
{
color = 4;
glyphname = v;
lastChange = "2018-03-02 10:50:24 +0000";
layers = (
{
layerId = "CC363ACD-D5A5-4E19-A940-9AF36D109D9E";
paths = (
{
closed = 1;
nodes = (
"204 63 LINE",
"199 63 LINE",
"110 515 LINE",
"52 515 LINE",
"161 0 LINE",
"221 0 LINE",
"513 515 LINE",
"452 515 LINE"
);
}
);
width = 475;
},
{
layerId = "C1DA716A-5F29-4CD0-A38F-CCADF5849A80";
paths = (
{
closed = 1;
nodes = (
"284 163 LINE",
"278 163 LINE",
"258 535 LINE",
"47 535 LINE",
"120 0 LINE",
"392 0 LINE",
"653 535 LINE",
"439 535 LINE"
);
}
);
width = 606;
},
{
layerId = "6641C2CA-B9F9-47EE-AEEC-6BEE387D8CB9";
paths = (
{
closed = 1;
nodes = (
"232 93 LINE",
"226 93 LINE",
"155 520 LINE",
"52 520 LINE",
"150 0 LINE",
"277 0 LINE",
"557 520 LINE",
"447 520 LINE"
);
}
);
width = 518;
}
);
unicode = 0076;
userData = {
RMXScaler = {
source = v;
};
};
},
{
color = 4;
glyphname = w;
lastChange = "2018-03-02 10:50:24 +0000";
layers = (
{
anchors = (
{
name = top;
position = "{425, 515}";
}
);
layerId = "CC363ACD-D5A5-4E19-A940-9AF36D109D9E";
paths = (
{
closed = 1;
nodes = (
"508 60 LINE",
"504 60 LINE",
"450 515 LINE",
"390 515 LINE",
"179 60 LINE",
"175 60 LINE",
"113 515 LINE",
"57 515 LINE",
"134 0 LINE",
"204 0 LINE",
"409 444 LINE",
"411 444 LINE",
"461 0 LINE",
"531 0 LINE",
"786 515 LINE",
"727 515 LINE"
);
}
);
width = 753;
},
{
anchors = (
{
name = top;
position = "{485, 535}";
}
);
layerId = "C1DA716A-5F29-4CD0-A38F-CCADF5849A80";
paths = (
{
closed = 1;
nodes = (
"588 165 LINE",
"583 165 LINE",
"580 535 LINE",
"386 535 LINE",
"255 165 LINE",
"251 165 LINE",
"262 535 LINE",
"47 535 LINE",
"78 0 LINE",
"331 0 LINE",
"450 344 LINE",
"454 344 LINE",
"452 0 LINE",
"706 0 LINE",
"926 535 LINE",
"706 535 LINE"
);
}
);
width = 879;
},
{
anchors = (
{
name = top;
position = "{451, 520}";
}
);
layerId = "6641C2CA-B9F9-47EE-AEEC-6BEE387D8CB9";
paths = (
{
closed = 1;
nodes = (
"547 97 LINE",
"542 97 LINE",
"500 520 LINE",
"387 520 LINE",
"212 97 LINE",
"207 97 LINE",
"159 520 LINE",
"56 520 LINE",
"128 0 LINE",
"257 0 LINE",
"428 413 LINE",
"431 413 LINE",
"466 0 LINE",
"595 0 LINE",
"842 520 LINE",
"735 520 LINE"
);
}
);
width = 805;
}
);
unicode = 0077;
userData = {
RMXScaler = {
source = w;
};
};
},
{
color = 4;
glyphname = x;
lastChange = "2018-03-02 10:50:24 +0000";
layers = (
{
layerId = "CC363ACD-D5A5-4E19-A940-9AF36D109D9E";
paths = (
{
closed = 1;
nodes = (
"61 0 LINE",
"246 221 LINE",
"258 221 LINE",
"502 515 LINE",
"438 515 LINE",
"232 265 LINE",
"221 265 LINE",
"-3 0 LINE"
);
},
{
closed = 1;
nodes = (
"414 0 LINE",
"261 293 LINE",
"253 293 LINE",
"151 515 LINE",
"91 515 LINE",
"234 215 LINE",
"244 215 LINE",
"355 0 LINE"
);
}
);
width = 501;
},
{
layerId = "C1DA716A-5F29-4CD0-A38F-CCADF5849A80";
paths = (
{
closed = 1;
nodes = (
"177 0 LINE",
"338 247 LINE",
"447 247 LINE",
"650 535 LINE",
"432 535 LINE",
"287 304 LINE",
"177 304 LINE",
"-41 0 LINE"
);
},
{
closed = 1;
nodes = (
"554 0 LINE",
"408 364 LINE",
"322 364 LINE",
"268 535 LINE",
"60 535 LINE",
"202 166 LINE",
"289 166 LINE",
"346 0 LINE"
);
}
);
width = 609;
},
{
layerId = "6641C2CA-B9F9-47EE-AEEC-6BEE387D8CB9";
paths = (
{
closed = 1;
nodes = (
"102 0 LINE",
"271 224 LINE",
"307 219 LINE",
"543 520 LINE",
"425 520 LINE",
"247 285 LINE",
"211 290 LINE",
"-16 0 LINE"
);
},
{
closed = 1;
nodes = (
"453 0 LINE",
"304 317 LINE",
"268 317 LINE",
"181 520 LINE",
"78 520 LINE",
"220 200 LINE",
"257 200 LINE",
"350 0 LINE"
);
}
);
width = 529;
}
);
unicode = 0078;
userData = {
RMXScaler = {
source = x;
};
};
},
{
color = 4;
glyphname = y;
lastChange = "2018-03-02 10:50:24 +0000";
layers = (
{
anchors = (
{
name = bottom;
position = "{371, 0}";
},
{
name = top;
position = "{282, 515}";
}
);
background = {
paths = (
{
closed = 1;
nodes = (
"254 53 LINE",
"249 53 LINE",
"67 515 LINE",
"7 515 LINE",
"215 0 LINE",
"243 0 LINE",
"245 30 LINE",
"192 -117 OFFCURVE",
"145 -161 OFFCURVE",
"81 -161 CURVE SMOOTH",
"67 -161 OFFCURVE",
"40 -159 OFFCURVE",
"19 -155 CURVE",
"19 -204 LINE",
"30 -206 OFFCURVE",
"61 -210 OFFCURVE",
"80 -210 CURVE SMOOTH",
"185 -210 OFFCURVE",
"232 -142 OFFCURVE",
"287 0 CURVE SMOOTH",
"488 515 LINE",
"429 515 LINE"
);
}
);
};
layerId = "CC363ACD-D5A5-4E19-A940-9AF36D109D9E";
paths = (
{
closed = 1;
nodes = (
"210 53 LINE",
"205 53 LINE",
"110 515 LINE",
"52 515 LINE",
"166 0 LINE",
"193 0 LINE",
"201 32 LINE",
"125 -115 OFFCURVE",
"94 -161 OFFCURVE",
"15 -161 CURVE SMOOTH",
"-3 -161 OFFCURVE",
"-25 -157 OFFCURVE",
"-42 -152 CURVE",
"-52 -198 LINE",
"-33 -205 OFFCURVE",
"-8 -210 OFFCURVE",
"18 -210 CURVE SMOOTH",
"123 -210 OFFCURVE",
"161 -144 OFFCURVE",
"237 -2 CURVE SMOOTH",
"513 515 LINE",
"453 515 LINE"
);
}
);
width = 475;
},
{
anchors = (
{
name = bottom;
position = "{482, 0}";
},
{
name = top;
position = "{341, 535}";
}
);
background = {
paths = (
{
closed = 1;
nodes = (
"317 164 LINE",
"311 164 LINE",
"215 535 LINE",
"0 535 LINE",
"178 0 LINE",
"311 0 LINE",
"284 18 LINE",
"260 -43 OFFCURVE",
"229 -56 OFFCURVE",
"169 -56 CURVE SMOOTH",
"145 -56 OFFCURVE",
"108 -52 OFFCURVE",
"86 -47 CURVE",
"66 -192 LINE",
"101 -202 OFFCURVE",
"153 -210 OFFCURVE",
"198 -210 CURVE SMOOTH",
"344 -210 OFFCURVE",
"410 -140 OFFCURVE",
"452 0 CURVE SMOOTH",
"611 535 LINE",
"396 535 LINE"
);
}
);
};
layerId = "C1DA716A-5F29-4CD0-A38F-CCADF5849A80";
paths = (
{
closed = 1;
nodes = (
"284 163 LINE",
"278 163 LINE",
"258 535 LINE",
"47 535 LINE",
"125 0 LINE",
"254 0 LINE",
"233 25 LINE",
"201 -36 OFFCURVE",
"178 -56 OFFCURVE",
"117 -56 CURVE SMOOTH",
"89 -56 OFFCURVE",
"54 -49 OFFCURVE",
"29 -42 CURVE",
"-4 -184 LINE",
"32 -197 OFFCURVE",
"87 -210 OFFCURVE",
"137 -210 CURVE SMOOTH",
"264 -210 OFFCURVE",
"336 -147 OFFCURVE",
"400 -7 CURVE SMOOTH",
"647 535 LINE",
"429 535 LINE"
);
}
);
width = 600;
},
{
anchors = (
{
name = bottom;
position = "{411, 0}";
},
{
name = top;
position = "{302, 520}";
}
);
layerId = "6641C2CA-B9F9-47EE-AEEC-6BEE387D8CB9";
paths = (
{
closed = 1;
nodes = (
"240 84 LINE",
"235 84 LINE",
"156 520 LINE",
"52 520 LINE",
"159 0 LINE",
"224 0 LINE",
"217 38 LINE",
"154 -85 OFFCURVE",
"127 -126 OFFCURVE",
"52 -126 CURVE SMOOTH",
"28 -126 OFFCURVE",
"3 -122 OFFCURVE",
"-19 -114 CURVE",
"-37 -193 LINE",
"-13 -202 OFFCURVE",
"23 -210 OFFCURVE",
"59 -210 CURVE SMOOTH",
"171 -210 OFFCURVE",
"221 -142 OFFCURVE",
"293 -1 CURVE SMOOTH",
"556 520 LINE",
"449 520 LINE"
);
}
);
width = 517;
}
);
leftMetricsKey = v;
rightMetricsKey = v;
unicode = 0079;
userData = {
RMXScaler = {
source = y;
};
};
},
{
color = 4;
glyphname = z;
lastChange = "2018-03-02 10:50:24 +0000";
layers = (
{
anchors = (
{
name = top;
position = "{289, 515}";
}
);
layerId = "CC363ACD-D5A5-4E19-A940-9AF36D109D9E";
paths = (
{
closed = 1;
nodes = (
"89 53 LINE",
"449 470 LINE",
"456 515 LINE",
"119 515 LINE",
"110 465 LINE",
"380 465 LINE",
"380 462 LINE",
"20 45 LINE",
"13 0 LINE",
"356 0 LINE",
"364 50 LINE",
"89 50 LINE"
);
}
);
width = 469;
},
{
anchors = (
{
name = top;
position = "{336, 535}";
}
);
layerId = "C1DA716A-5F29-4CD0-A38F-CCADF5849A80";
paths = (
{
closed = 1;
nodes = (
"291 161 LINE",
"543 385 LINE",
"568 535 LINE",
"109 535 LINE",
"81 381 LINE",
"279 381 LINE",
"278 374 LINE",
"24 150 LINE",
"0 0 LINE",
"472 0 LINE",
"499 154 LINE",
"290 154 LINE"
);
}
);
width = 567;
},
{
anchors = (
{
name = top;
position = "{300, 520}";
}
);
layerId = "6641C2CA-B9F9-47EE-AEEC-6BEE387D8CB9";
paths = (
{
closed = 1;
nodes = (
"153 88 LINE",
"476 441 LINE",
"490 520 LINE",
"115 520 LINE",
"100 436 LINE",
"347 436 LINE",
"347 432 LINE",
"23 79 LINE",
"10 0 LINE",
"393 0 LINE",
"407 84 LINE",
"153 84 LINE"
);
}
);
width = 500;
}
);
unicode = 007A;
userData = {
RMXScaler = {
source = z;
};
};
},
{
color = 4;
glyphname = quotesingle;
lastChange = "2018-03-02 10:50:24 +0000";
layers = (
{
background = {
paths = (
{
closed = 1;
nodes = (
"60 520 LINE",
"102 520 LINE",
"118 770 LINE",
"60 770 LINE"
);
}
);
};
layerId = "CC363ACD-D5A5-4E19-A940-9AF36D109D9E";
paths = (
{
closed = 1;
nodes = (
"111 520 LINE",
"153 520 LINE",
"213 770 LINE",
"155 770 LINE"
);
}
);
width = 178;
},
{
background = {
paths = (
{
closed = 1;
nodes = (
"60 500 LINE",
"204 500 LINE",
"235 770 LINE",
"60 770 LINE"
);
}
);
};
layerId = "C1DA716A-5F29-4CD0-A38F-CCADF5849A80";
paths = (
{
closed = 1;
nodes = (
"96 500 LINE",
"240 500 LINE",
"319 770 LINE",
"144 770 LINE"
);
}
);
width = 265;
},
{
layerId = "6641C2CA-B9F9-47EE-AEEC-6BEE387D8CB9";
paths = (
{
closed = 1;
nodes = (
"111 520 LINE",
"183 520 LINE",
"250 765 LINE",
"154 765 LINE"
);
}
);
width = 211;
}
);
unicode = 0027;
},
